<svg id="Calque_1" data-name="Calque 1" xmlns="http://www.w3.org/2000/svg" viewBox="0 0 1000 991"><defs><style>.cls-1{fill:#fff;}</style></defs><ellipse cx="500" cy="495.5" rx="500" ry="495.5"/><path class="cls-1" d="M768.09,201.3h-13.2A59.66,59.66,0,0,0,695.24,261v30.58a321.22,321.22,0,0,1,0,418.42v29.27a59.65,59.65,0,0,0,59.65,59.65h13.2a59.65,59.65,0,0,0,59.65-59.65V261A59.66,59.66,0,0,0,768.09,201.3Z"/><path class="cls-1" d="M626,578A191.73,191.73,0,0,1,450.62,692.17c-105.87,0-191.69-85.82-191.69-191.69s85.82-191.69,191.69-191.69A191.77,191.77,0,0,1,633.69,443.47H339.23a49.9,49.9,0,0,0-49.89,49.9v5.21a49.89,49.89,0,0,0,49.89,49.89h324v-.16h82.9a300.61,300.61,0,0,0,3.75-47.37c0-165-133.77-298.78-298.78-298.78S152.3,335.93,152.3,500.94,286.07,799.73,451.09,799.73c138.37,0,254.76-94.07,288.74-221.74Z"/></svg>