<?xml version="1.0" encoding="utf-8"?>
<svg xmlns="http://www.w3.org/2000/svg" width="149" height="96" viewBox="0 0 149 96">
  <path fill="#e0e0e0" d="M117.76 92.56L4.96 96 0 26.16l117.68-4.56z"/>
  <path fill="#d5d5d5" d="M142.88 68.24L22.88 62l2.08-62L148.8 7.12z"/>
  <path fill="#0227b7" d="M133.6 75.52L11.04 81.04 6.24 9.36 129.04.64z"/>
  <path fill="#fff" d="M14.56 13.04h121.52V87.6H14.56z"/>
  <path fill="#0227b7" d="M56.56 57.28v1.6h2.72V60h-2.72v2.8h-1.2v-6.64h4.32v1.12zm7.84-1.12c1.28 0 2.16.88 2.16 2.08 0 .64-.24 1.44-1.28 1.84l1.44 2.72h-1.44L64 60.32h-1.12v2.48h-1.2v-6.64zm-1.52 3.2h.96c.88 0 1.44-.24 1.44-1.04 0-.72-.48-1.04-1.28-1.04h-1.12zm9.6 3.52l-.4-1.28H69.6l-.4 1.28H68l2.24-6.64h1.44l2.24 6.64zm-1.52-5.44l-.88 3.04h1.84zm8.72 5.44l-2.88-4.64s.08 4.56.08 4.64h-1.2v-6.64h1.12l2.96 4.72s-.16-4.56-.16-4.72h1.2v6.64zm9.04-1.92c-.24.56-.96 2-2.8 2-1.6 0-3.12-1.04-3.12-3.52 0-1.44.88-3.44 3.12-3.44 1.68 0 2.4 1.12 2.64 2.08l-1.2.32c-.08-.72-.72-1.2-1.44-1.2-1.04 0-1.84.88-1.84 2.32 0 .88.4 2.4 1.84 2.4.88 0 1.44-.64 1.6-1.28zm1.76 1.92v-6.64h4.64v1.12h-3.44v1.6h3.2V60h-3.2v1.76h3.76v1.12z"/>
  <path fill="#3c3c3b" d="M42.24 42.72c0-.96.4-1.76 1.2-2.4.8-.64 1.92-1.04 3.28-1.04 1.36 0 2.4.32 3.28.96.8.64 1.28 1.52 1.28 2.64H48.4c-.08-.96-.64-1.44-1.76-1.44-.56 0-.96.08-1.28.32-.32.24-.4.56-.4.88 0 .4.24.72.72.88.4.24.96.4 1.6.56.64.08 1.28.24 1.92.48.64.16 1.12.56 1.6.96.4.48.72 1.04.72 1.84 0 1.04-.4 1.76-1.28 2.4-.88.64-1.92.96-3.28.96-1.28 0-2.4-.32-3.2-.96-.88-.64-1.28-1.52-1.36-2.72h2.88c.08.96.72 1.44 1.76 1.44.56 0 .96-.08 1.28-.4.32-.24.48-.56.48-.96 0-.4-.24-.72-.72-.88-.4-.24-.96-.4-1.6-.56-.64-.08-1.28-.24-1.92-.4-.64-.16-1.12-.48-1.6-.96-.56-.24-.72-.8-.72-1.6zM56 39.52v1.68c.72-1.2 1.84-1.84 3.44-1.84.88 0 1.6.24 2.24.56.72.4 1.12.96 1.52 1.68.4-.72.88-1.28 1.6-1.6.72-.4 1.44-.56 2.24-.56 1.28 0 2.4.4 3.2 1.28.8.88 1.2 2 1.2 3.44v6.56h-2.8v-6.24c0-.88-.24-1.52-.72-2-.4-.48-1.04-.72-1.76-.72s-1.36.24-1.76.72c-.4.48-.72 1.12-.72 2v6.08h-2.8v-6.08c0-.88-.24-1.52-.72-2-.4-.48-1.04-.72-1.76-.72s-1.36.24-1.76.72c-.48.48-.72 1.12-.72 2v6.08h-2.8V39.52zm18.8 9.68c-1.12-1.04-1.6-2.4-1.6-4.16 0-1.68.56-3.12 1.6-4.08 1.12-1.04 2.48-1.6 4.08-1.6s2.96.56 4.08 1.6 1.6 2.4 1.6 4.08c0 1.68-.56 3.12-1.6 4.16-1.12 1.04-2.48 1.6-4.08 1.6-1.68 0-3.04-.56-4.08-1.6zm4-.8c.8 0 1.44-.32 2.08-.88.64-.56.88-1.44.88-2.48s-.24-1.92-.88-2.48c-.56-.56-1.28-.88-2.08-.88s-1.44.24-2 .88c-.56.56-.88 1.36-.88 2.48 0 1.04.24 1.92.88 2.48.56.64 1.2.88 2 .88zm-38.48-8.88v11.12h-2.8v-.88c-.8.56-1.92 1.04-2.96 1.04-1.68 0-2.96-.56-4.08-1.6-1.04-1.04-1.6-2.48-1.6-4.16 0-1.68.48-3.04 1.6-4.08s2.48-1.6 4.08-1.6c1.04 0 2.08.32 2.96 1.04v-.88zm-2.88 5.52c0-1.12-.32-1.92-.88-2.48-.64-.64-1.28-.88-2.08-.88s-1.44.32-2 .88c-.64.56-.88 1.44-.88 2.48s.32 1.92.88 2.48c.56.64 1.2.88 2 .88s1.52-.32 2.08-.88c.64-.56.88-1.36.88-2.48zm59.52-9.28v14.88h-2.8v-.88c-.8.56-1.92 1.04-2.96 1.04-1.68 0-2.96-.56-4.08-1.6-1.04-1.04-1.6-2.48-1.6-4.16 0-1.68.48-3.04 1.6-4.08s2.48-1.6 4.08-1.6c1.04 0 2.08.4 2.96.96v-4.56zm-2.8 9.28c0-1.12-.32-1.92-.88-2.48-.64-.64-1.28-.88-2.08-.88s-1.44.32-2 .88c-.64.56-.88 1.44-.88 2.48s.32 1.92.88 2.48c.56.64 1.2.88 2 .88s1.52-.32 2.08-.88c.48-.56.8-1.36.88-2.48zm10 5.76c-1.6 0-2.96-.56-3.92-1.6s-1.52-2.4-1.52-4.16c0-1.76.56-3.12 1.52-4.16s2.4-1.52 3.92-1.52c1.6 0 2.96.56 4 1.52s1.6 2.4 1.6 4.08c0 .4 0 .72-.08 1.12h-8.08c.08.72.32 1.28.8 1.76.48.4 1.04.72 1.76.72.96 0 1.68-.4 2.16-1.2 0 0 1.36 1.04 2.16 1.68-.24.32-.56.64-.96.88-.96.56-2 .88-3.36.88zm2.16-3.6c1.92 1.44 1.68 1.28 2.16 1.68zm-.32-4.8c-.56-.4-1.12-.72-1.76-.72-.64 0-1.28.24-1.76.72-.48.4-.72 1.04-.88 1.76h5.28c-.08-.72-.32-1.28-.88-1.76zm10.32 8.4c-1.6 0-2.96-.56-3.92-1.6s-1.52-2.4-1.52-4.16c0-1.76.56-3.12 1.52-4.16s2.4-1.52 3.92-1.52c1.6 0 2.96.56 4 1.52 1.04 1.04 1.6 2.4 1.6 4.08 0 .4 0 .72-.08 1.12h-8c.08.72.32 1.28.8 1.76.48.4 1.04.72 1.76.72.96 0 1.68-.4 2.16-1.2 0 0 1.36 1.04 2.16 1.68-.24.32-.56.64-.96.88-1.04.56-2.16.88-3.44.88zm2.16-3.6c1.92 1.44 1.68 1.28 2.16 1.68zm-.32-4.8c-.56-.4-1.12-.72-1.76-.72-.64 0-1.28.24-1.76.72-.48.4-.72 1.04-.88 1.76h5.28c-.08-.72-.4-1.28-.88-1.76z"/>
</svg>