<svg id="Calque_1" data-name="Calque 1" xmlns="http://www.w3.org/2000/svg" viewBox="0 0 489 489"><path d="M240.8,6h18.4a13.8,13.8,0,0,0,2,.3,225.7,225.7,0,0,1,36.7,4.4c40.9,8.3,77.6,25.6,109.3,52.7q78.2,66.8,86.6,169.4c.3,2.9.5,5.7.7,8.5v18.4l-.3,2c-.4,5.1-.7,10.3-1.2,15.4a231.2,231.2,0,0,1-11.6,52.6C465.1,376.4,437.4,415,398,445s-81.9,45.7-130.1,49.3l-8.7.7H240.8l-1.8-.3c-5.2-.4-10.4-.7-15.6-1.2a229.6,229.6,0,0,1-57.3-13.3Q90.7,452.2,45.8,385C22.4,349.6,9.3,310.6,6.2,268.2c-.2-2.8-.5-5.7-.7-8.5V241.3a16.6,16.6,0,0,0,.3-2.2,236.8,236.8,0,0,1,10.7-61.3Q40.9,100.9,106,53c37.6-27.6,79.8-42.8,126.3-46.3ZM250,445.1A194.6,194.6,0,0,0,444.6,250.5c0-107.4-86.8-194.3-194.5-194.6S55.3,143.1,55.4,250.6,142.5,445.1,250,445.1Z" transform="translate(-5.5 -6)"/><path d="M114.9,219.5c14.7-64.6,75.3-110.5,143.4-105.6C331,119.1,387,180.4,385.6,254c-1.3,69.8-57.3,128.8-127,133.6-71.2,5-130-43.9-143.7-105.6h63.4a2.6,2.6,0,0,1,2.7,1.7c11.5,22.5,29.7,36.4,54.5,40.9a74.6,74.6,0,0,0,85.8-57.8c9.2-41.9-18.9-83.1-61.1-89.8a74.9,74.9,0,0,0-79.3,41c-.4,1-.8,1.7-2.1,1.7H114.9Z" transform="translate(-5.5 -6)"/></svg>