<svg id="Calque_1" data-name="Calque 1" xmlns="http://www.w3.org/2000/svg" viewBox="0 0 487 487"><defs><style>.cls-1{fill:#512bd4;}.cls-2{fill:#fff;}</style></defs><rect class="cls-1" width="487" height="487"/><path class="cls-2" d="M93.3,318.1a12.3,12.3,0,0,1-8.8-3.4,11.7,11.7,0,0,1,0-16.9,12.9,12.9,0,0,1,17.7,0,11.5,11.5,0,0,1,0,16.9A12.4,12.4,0,0,1,93.3,318.1Z" transform="translate(-6.5 -7)"/><path class="cls-2" d="M231,316.2H208.6l-59-93a42.6,42.6,0,0,1-3.7-7.4h-.5a144.9,144.9,0,0,1,.7,17.4v83H126.3V189.6h23.8l57,90.8c2.4,3.8,4,6.4,4.7,7.8h.3c-.6-3.3-.9-9-.9-17V189.6H231Z" transform="translate(-6.5 -7)"/><path class="cls-2" d="M327.4,316.2H258.1V189.6h66.5v17.9h-46v35.8H321V261H278.6v37.5h48.8Z" transform="translate(-6.5 -7)"/><path class="cls-2" d="M425.9,207.5H390.4V316.2H369.9V207.5H334.5V189.6h91.4Z" transform="translate(-6.5 -7)"/></svg>