<svg id="Calque_1" data-name="Calque 1" xmlns="http://www.w3.org/2000/svg" viewBox="0 0 490 113.8"><defs><style>.cls-1{fill:#39c;}.cls-2{fill:#151515;}</style></defs><path class="cls-1" d="M495,287.7a57.2,57.2,0,0,1-2.8,6.8c-4.8,8.3-11.9,12.9-21.8,12.9H413.7V291.3h47.7c5.8,0,9.2-3.3,9.2-9.1,0-1.7-.1-3.4,0-5.1s-.5-2.2-2.2-2.2c-9.8.1-19.7-.1-29.6.1a24.2,24.2,0,0,1-19.3-8.5c-3.3-3.7-5.7-8-5.8-13a234.2,234.2,0,0,1,.3-23.7c.7-9.6,10.9-19.1,20.6-19.7,4-.3,8.1-.2,12.2-.2H495Zm-24.5-61.6H446.2c-4.8,0-8.1,3.1-8.2,7.9s-.1,11-.1,16.5,3.4,8,7.4,8c8.3.1,16.5,0,24.7,0l.5-.3Z" transform="translate(-5 -193.6)"/><path class="cls-1" d="M356.5,209.9c6.2,0,12.3-.3,18.5,0,12,.5,22.1,11.1,22.2,23.1s.1,23.1,0,34.6c-.1,13-11,23.5-24.4,23.6-11,.1-22-.2-33,0s-24.4-11.2-24.1-23.9c.2-11.2-.1-22.3,0-33.4s8-21.5,19.8-23.7a43.9,43.9,0,0,1,8.9-.4h12.1Zm-16.4,40.4v16c.1,5.1,3.4,8.5,8.5,8.5h15.6c4.9,0,8.6-3.3,8.6-8.2.1-10.9.1-21.7,0-32.6a7.9,7.9,0,0,0-8.3-7.9H348.7c-5.3,0-8.6,3.3-8.6,8.6Z" transform="translate(-5 -193.6)"/><path class="cls-1" d="M265.9,209.9v56c0,5.7,3.3,9,8.9,8.9h29.6c1.7,0,2.2.4,2.2,2.1-.2,4.6-.1,9.3-.1,14.1h-2.6c-12.9.1-25.8-.1-38.7.1s-24-11.7-23.8-24.1c.2-18.6,0-37.3.1-56v-1.2Z" transform="translate(-5 -193.6)"/><path class="cls-2" d="M176.1,209.9l-15.8,31.7c3.7,1.2,7.6,1.8,10.9,3.6,8.5,4.3,13.1,11.3,13.1,21.1.1,7.6,0,15.1,0,22.7v2.1H160.1a17,17,0,0,1-.1-2.2V267.6c-.1-5.8-3.3-9.1-9.2-9.1H127.3V291H103V193.6h24.3v48.7c2.6,0,5.1.1,7.6-.1.5,0,1.1-1,1.4-1.7,4.9-9.6,9.8-19.3,14.6-29.1a2.5,2.5,0,0,1,2.6-1.6h22.6Z" transform="translate(-5 -193.6)"/><path class="cls-2" d="M29.5,258.5c0,3.3-.1,6.3.1,9.2a7.9,7.9,0,0,0,8.2,7.1H86.4v16.3H29.5A24.6,24.6,0,0,1,5.7,272.8a18.4,18.4,0,0,1-.6-4.7c-.1-11.5,0-23-.1-34.4,0-7.8,3.4-13.9,9.3-18.7a22.2,22.2,0,0,1,15.1-5.2H62.5c12.1,0,22,8.6,23.9,20.8a24.4,24.4,0,0,1-16.8,26.9,22.4,22.4,0,0,1-6.8,1c-10.3.1-20.5,0-30.8,0Zm.1-16.2c8.7,0,17.1.1,25.6-.1,4-.1,7.1-4.2,6.9-8.3s-3.4-7.8-7.5-7.8H37.1a7.5,7.5,0,0,0-7.4,6.4C29.4,235.7,29.6,238.8,29.6,242.3Z" transform="translate(-5 -193.6)"/><path class="cls-2" d="M225.6,291.9H201.5V240h24.1Z" transform="translate(-5 -193.6)"/><path class="cls-2" d="M201.5,210.9h24V232h-24Z" transform="translate(-5 -193.6)"/></svg>