<svg id="Calque_1" data-name="Calque 1" xmlns="http://www.w3.org/2000/svg" viewBox="0 0 488 488"><defs><style>.cls-1{fill:#f05133;}</style></defs><path class="cls-1" d="M484.8,228.8,271.7,15.7a31.3,31.3,0,0,0-44.4,0L183,60l56.2,56.1a37.2,37.2,0,0,1,47.2,47.6l54.1,54.1a37.3,37.3,0,1,1-14.2,61.7,37.6,37.6,0,0,1-8.2-40.7l-50.4-50.4V321.1a42,42,0,0,1,9.9,7.1,37.4,37.4,0,1,1-52.9,0,39.1,39.1,0,0,1,12.2-8.2V186.1a39.1,39.1,0,0,1-12.2-8.2,37.3,37.3,0,0,1-8.1-40.9L161.3,81.7,15.2,227.8a31.3,31.3,0,0,0,0,44.4L228.3,485.3a31.3,31.3,0,0,0,44.4,0L484.8,273.2a31.3,31.3,0,0,0,0-44.4" transform="translate(-6 -6.5)"/></svg>