<svg id="Calque_1" data-name="Calque 1" xmlns="http://www.w3.org/2000/svg" xmlns:xlink="http://www.w3.org/1999/xlink" viewBox="0 0 835.87 157.48"><defs><style>.cls-1{fill:none;}.cls-2{clip-path:url(#clip-path);}.cls-3{fill:url(#Dégradé_sans_nom_13);}.cls-4{clip-path:url(#clip-path-2);}.cls-5{fill:url(#Dégradé_sans_nom_13-2);}.cls-6{clip-path:url(#clip-path-3);}.cls-7{fill:url(#Dégradé_sans_nom_13-3);}.cls-8{clip-path:url(#clip-path-4);}.cls-9{fill:url(#Dégradé_sans_nom_13-4);}.cls-10{clip-path:url(#clip-path-5);}.cls-11{fill:url(#Dégradé_sans_nom_13-5);}.cls-12{clip-path:url(#clip-path-6);}.cls-13{fill:url(#Dégradé_sans_nom_13-6);}</style><clipPath id="clip-path" transform="translate(-3.2 -219.09)"><rect class="cls-1" x="4.15" y="220.17" width="34.73" height="155.44"/></clipPath><linearGradient id="Dégradé_sans_nom_13" x1="-65.65" y1="545.76" x2="-39.34" y2="545.76" gradientTransform="matrix(0, 33.73, 33.93, 0, -18493.4, 2471.02)" gradientUnits="userSpaceOnUse"><stop offset="0" stop-color="#2da836"/><stop offset="0.12" stop-color="#30a936"/><stop offset="0.23" stop-color="#3bac34"/><stop offset="0.33" stop-color="#4db131"/><stop offset="0.42" stop-color="#65b92e"/><stop offset="0.51" stop-color="#86c229"/><stop offset="0.6" stop-color="#adce23"/><stop offset="0.69" stop-color="#dbdb1c"/><stop offset="0.74" stop-color="#f9e418"/><stop offset="1" stop-color="#f9e418"/></linearGradient><clipPath id="clip-path-2" transform="translate(-3.2 -219.09)"><polygon class="cls-1" points="299.62 220.94 299.62 375.61 405.99 375.61 405.99 348.75 327.06 348.83 327.06 311.21 405.99 311.21 405.99 284.37 327.06 284.42 327.06 247.69 405.99 247.69 405.99 220.86 299.62 220.94"/></clipPath><linearGradient id="Dégradé_sans_nom_13-2" x1="-65.65" y1="545.81" x2="-39.34" y2="545.81" gradientTransform="matrix(0, 33.73, 33.93, 0, -18163.84, 2140.07)" xlink:href="#Dégradé_sans_nom_13"/><clipPath id="clip-path-3" transform="translate(-3.2 -219.09)"><polygon class="cls-1" points="468.27 220.65 468.27 375.3 559.98 375.3 559.98 347.83 500.26 347.83 500.26 220.65 468.27 220.65"/></clipPath><linearGradient id="Dégradé_sans_nom_13-3" x1="-65.65" y1="545.84" x2="-39.34" y2="545.84" gradientTransform="matrix(0, 33.73, 33.93, 0, -18003.89, 1978.49)" xlink:href="#Dégradé_sans_nom_13"/><clipPath id="clip-path-4" transform="translate(-3.2 -219.09)"><rect class="cls-1" x="615.92" y="220.17" width="34.76" height="153.31"/></clipPath><linearGradient id="Dégradé_sans_nom_13-4" x1="-65.65" y1="545.9" x2="-39.34" y2="545.9" gradientTransform="matrix(0, 33.73, 33.92, 0, -17885.43, 1858.07)" xlink:href="#Dégradé_sans_nom_13"/><clipPath id="clip-path-5" transform="translate(-3.2 -219.09)"><path class="cls-1" d="M771.05,220.86q-30.36,0-46,13T709.4,266.4q0,21.51,16,31.6c6.29,4.05,17.87,7.76,34.73,11.21l17.13,3.47c10.05,2,17.39,4.26,22,6.81s6.94,6.37,6.94,11.21q0,12.36-14.15,16.92c-5,1.61-11.45,2.37-19.42,2.37q-20,0-28.2-9-4.47-5-6-14.94H706.85q0,22.77,17.89,35.78t49.2,13h0q30.59,0,47.36-13.23t16.79-33.23q0-19.5-14.16-29.79Q814.88,292,796.57,288l-27.79-6q-16.06-3.48-21-6.06c-5.16-2.57-7.73-6.49-7.73-11.68,0-5.71,2.6-10.1,7.84-13.26s12.18-4.76,20.91-4.76c7.87,0,14.42,1.18,19.74,3.63,7.92,3.74,12.18,10,12.76,18.73h31.83q-.9-23.23-18.78-35.49t-43.21-12.23Z"/></clipPath><linearGradient id="Dégradé_sans_nom_13-5" x1="-65.65" y1="545.89" x2="-39.34" y2="545.89" gradientTransform="matrix(0, 33.73, 33.92, 0, -17746.65, 1719.97)" xlink:href="#Dégradé_sans_nom_13"/><clipPath id="clip-path-6" transform="translate(-3.2 -219.09)"><path class="cls-1" d="M99.1,332.31h29.66V251.72a147.25,147.25,0,0,1,48,18.23c20.44,12.45,35.2,29.21,42.6,48.52,2.18,5.76,3.23,10.89,3.05,15.21a13,13,0,0,1-2.66,8,14.06,14.06,0,0,1-7.08,4.18c-5.52,1.66-11.23,1.79-16.68,1.79H99.1v28h98.75c14.1,0,34.31-1.76,46.86-17a39.5,39.5,0,0,0,8.84-23.87c.37-7.89-1.24-16.52-4.74-25.62-9.6-25.15-28.31-47.23-54.7-62.7-42.46-25-95-26.39-95-26.39Z"/></clipPath><linearGradient id="Dégradé_sans_nom_13-6" x1="-65.53" y1="545.79" x2="-39.22" y2="545.79" gradientTransform="matrix(0, 33.73, 33.92, 0, -18339.37, 2316.12)" xlink:href="#Dégradé_sans_nom_13"/></defs><g class="cls-2"><rect class="cls-3" x="-56.31" y="280.06" width="155.65" height="35.68" transform="translate(-279.71 98.49) rotate(-89.65)"/></g><g class="cls-4"><rect class="cls-5" x="275.1" y="244.58" width="155.41" height="107.31" transform="translate(49.2 430.11) rotate(-89.65)"/></g><g class="cls-6"><rect class="cls-7" x="436.52" y="251.64" width="155.21" height="92.66" transform="translate(209.79 591.17) rotate(-89.65)"/></g><g class="cls-8"><rect class="cls-9" x="556.54" y="278.98" width="153.52" height="35.69" transform="translate(329.37 709.2) rotate(-89.65)"/></g><g class="cls-10"><rect class="cls-11" x="695.09" y="231.74" width="154.8" height="132.22" transform="translate(466.69 849.41) rotate(-89.65)"/></g><g class="cls-12"><rect class="cls-13" x="98.25" y="219.95" width="156.52" height="155.75" transform="translate(-125.6 253.41) rotate(-89.65)"/></g></svg>