<svg id="Calque_1" data-name="Calque 1" xmlns="http://www.w3.org/2000/svg" viewBox="0 0 488 124.8"><defs><style>.cls-1{fill:#e30613;}</style></defs><path class="cls-1" d="M400,249.8c4.2-2.9,50.2-36.8,83.8-61.6H372.5a21.5,21.5,0,0,0-21.4,19.5h0l-4.4,49.1h33.2c7.2-.1,13.2-2.2,20.1-7m10,13.9c-8.5,6-15.7,9.3-28.7,9.3h-36l-1.2,16a16.4,16.4,0,0,0-.2,2.3,21.4,21.4,0,0,0,20.9,21.5h99.8A21.5,21.5,0,0,0,486,293.5l8-91.5c-33,24.4-79.8,58.8-84,61.7" transform="translate(-6 -188.1)"/><path d="M114.5,312.9h14c7.5-12.9,15-26.4,22.7-39.6H105.5c3.1,13,6.2,26.2,9,39.6" transform="translate(-6 -188.1)"/><path d="M166.8,312.9h32.7c.3-13.2.4-26.4.6-39.6H168.3c-.5,13.2-.9,26.5-1.5,39.6" transform="translate(-6 -188.1)"/><path d="M61,312.9A20.7,20.7,0,0,0,80.6,299h0c2-6.7,5.8-19.1,7.9-25.7H56.8L43.5,312.9H61" transform="translate(-6 -188.1)"/><path d="M41.3,296.7c.8-5.2,3.1-18.3,3.9-23.4H12.5c-2.2,13.2-4.4,26.4-6.5,39.6H21.3" transform="translate(-6 -188.1)"/><path d="M23.7,205.5a21,21,0,0,1,20.4-17.3h15c-3.4,23.1-7.2,45.7-11.1,68.4H15.2c2.5-14.8,5-29.6,7.4-44.4l1.1-6.7" transform="translate(-6 -188.1)"/><path d="M41.3,296.7c-1.7,9.2-10.3,16.2-20.2,16.2" transform="translate(-6 -188.1)"/><path d="M317.9,273.3H217.8q-10.8,19.8-21.5,39.6h23.8A20.4,20.4,0,0,0,237,302.2h0l6.1-10.6h43.8c1.4,7.2,2.9,14.2,4.4,21.3h35c-2.9-13.2-5.6-26.4-8.4-39.6" transform="translate(-6 -188.1)"/><path d="M299.8,188.2H276.3a19.7,19.7,0,0,0-16.5,9.8,27,27,0,0,0-3,4.7c-10.1,17.9-20,35.9-29.9,54h34.3c3-5.8,6.1-11.9,9.1-18.1,1.8-3.8,3.6-7.1,5.2-10.7,2.1,9.1,3.4,19.2,5,28.8h34c-4.9-22.9-9.8-45.8-14.7-68.5" transform="translate(-6 -188.1)"/><path d="M180.3,188.2a19.8,19.8,0,0,0-17.5,10.5c-1.5,2.7-4.3,7.7-5.7,10-3.2,5.6-6.3,11.2-9.3,16.6-3.9,7-8.1,14.1-11.8,20.6-1.6,2.7-2.7,5.7-4.9,7.8-4.5-22-9.2-43.9-14.1-65.5H99.3a19.8,19.8,0,0,0-18.2,12.6H81s-2.6,7.4-2.7,7.4q-8,24.3-16.1,48.3H93.4c.5-1.7,1-3.5,1.6-5.2s1.6-6,3.3-8.5c1.1,4.6,2.2,9.2,3.2,13.7h59.3l3.3-5.6c1.6-2.7,2.8-6,5.2-8.1-.2,4.6-.5,9.1-.6,13.7h31.4c.3-22.8.6-46,1.1-68.5H180.3Z" transform="translate(-6 -188.1)"/></svg>