<svg id="Calque_1" data-name="Calque 1" xmlns="http://www.w3.org/2000/svg" viewBox="0 0 423.5 489"><defs><style>.cls-1{fill:#9fc03d;}.cls-2{fill:#a9c44f;}.cls-3{fill:#98bc24;}.cls-4{fill:#fff;}</style></defs><path class="cls-1" d="M461.8,128.3,250,250.5,38.2,128.3,250,6Z" transform="translate(-38.2 -6)"/><path class="cls-2" d="M461.8,128.3V372.7L250,495V250.5Z" transform="translate(-38.2 -6)"/><path class="cls-3" d="M250,250.5V495L38.2,372.7V128.3Z" transform="translate(-38.2 -6)"/><path class="cls-4" d="M233.1,391.2a9.2,9.2,0,0,1-3.9-.9L127.6,340.4a8.9,8.9,0,0,1-4.1-11.8,8.8,8.8,0,0,1,5.8-4.7l95-24.3V125.2a8.7,8.7,0,0,1,3.8-7.3,9.1,9.1,0,0,1,8.3-1l90.2,35.4a8.9,8.9,0,0,1,5,11.5,7.5,7.5,0,0,1-1.8,2.8l-51,54.1,51.1,56.7a8.8,8.8,0,0,1-.6,12.5,8.2,8.2,0,0,1-3.8,2L242,313.3v69a8.8,8.8,0,0,1-4.2,7.5,8.6,8.6,0,0,1-4.7,1.4Zm-76.2-56.1,67.4,33V317.8l-67.4,17.3ZM242,138.2V295l65-16.6-46.8-51.9a8.9,8.9,0,0,1,.2-12L307.9,164Z" transform="translate(-38.2 -6)"/></svg>