<svg id="Calque_1" data-name="Calque 1" xmlns="http://www.w3.org/2000/svg" viewBox="0 0 360.5 488.8"><defs><style>.cls-1{fill:#0074bd;}.cls-1,.cls-2{fill-rule:evenodd;}.cls-2{fill:#ea2d2e;}</style></defs><path class="cls-1" d="M187,383.2s-18.7,10.9,13.3,14.5c38.7,4.5,58.5,3.8,101.2-4.2a177.1,177.1,0,0,0,26.9,13.1c-95.7,41-216.6-2.4-141.4-23.4Z" transform="translate(-70.9 -5.2)"/><path class="cls-1" d="M175.3,329.7s-21,15.5,11,18.8c41.4,4.3,74.1,4.6,130.6-6.2A57.5,57.5,0,0,0,337,354.5c-115.6,33.8-244.5,2.7-161.7-24.8Z" transform="translate(-70.9 -5.2)"/><path class="cls-2" d="M273.9,238.9c23.5,27.2-6.2,51.6-6.2,51.6s59.8-30.9,32.3-69.6c-25.6-36.1-45.3-54,61.3-115.8,0,0-167.4,41.7-87.4,133.8Z" transform="translate(-70.9 -5.2)"/><path class="cls-1" d="M400.4,422.8s13.8,11.4-15.2,20.2c-55.2,16.7-229.9,21.8-278.4.7-17.4-7.6,15.3-18.1,25.6-20.4s16.8-1.9,16.8-1.9c-19.4-13.6-125.3,26.9-53.8,38.5,195.1,31.6,355.6-14.3,305-37.1Z" transform="translate(-70.9 -5.2)"/><path class="cls-1" d="M196,274.3s-88.9,21.1-31.5,28.7c24.2,3.3,72.5,2.5,117.5-1.3,36.8-3,73.7-9.6,73.7-9.6s-13,5.5-22.3,11.9c-90.3,23.8-264.5,12.7-214.3-11.6,42.4-20.5,76.9-18.1,76.9-18.1Z" transform="translate(-70.9 -5.2)"/><path class="cls-1" d="M355.3,363.3c91.7-47.6,49.3-93.4,19.7-87.2a67.6,67.6,0,0,0-10.4,2.8,16.5,16.5,0,0,1,7.8-6.1c58.5-20.5,103.6,60.7-18.9,92.9a6.9,6.9,0,0,0,1.8-2.4Z" transform="translate(-70.9 -5.2)"/><path class="cls-2" d="M300.1,5.2S350.8,56,251.9,134.1c-79.4,62.7-18.1,98.4-.1,139.3-46.3-41.8-80.3-78.6-57.5-112.9C227.8,110.3,320.5,85.9,300.1,5.2Z" transform="translate(-70.9 -5.2)"/><path class="cls-1" d="M205,492.5c88,5.6,223.2-3.2,226.4-44.8,0,0-6.2,15.8-72.8,28.3-75.1,14.1-167.8,12.5-222.7,3.4,0,0,11.2,9.3,69.1,13.1Z" transform="translate(-70.9 -5.2)"/></svg>