<?xml version="1.0" encoding="utf-8"?>
<!-- Generator: Adobe Illustrator 25.0.0, SVG Export Plug-In . SVG Version: 6.00 Build 0)  -->
<svg version="1.1" id="Calque_1" xmlns="http://www.w3.org/2000/svg" xmlns:xlink="http://www.w3.org/1999/xlink" x="0px" y="0px"
	 viewBox="0 0 630 630" style="enable-background:new 0 0 630 630;" xml:space="preserve">
<style type="text/css">
	.st0{fill:#F7DF1E;}
</style>
<rect x="9" y="9" class="st0" width="612" height="612"/>
<path d="M420.1,487.1c12.3,20.1,28.4,34.9,56.7,34.9c23.8,0,39.1-11.9,39.1-28.4c0-19.7-15.6-26.7-41.9-38.2l-14.4-6.2
	c-41.5-17.7-69.1-39.8-69.1-86.7c0-43.1,32.9-76,84.2-76c36.6,0,62.9,12.7,81.8,46l-44.8,28.8c-9.9-17.7-20.5-24.6-37-24.6
	c-16.8,0-27.5,10.7-27.5,24.6c0,17.3,10.7,24.2,35.4,34.9l14.4,6.2c48.9,21,76.5,42.3,76.5,90.3c0,51.8-40.7,80.1-95.3,80.1
	c-53.4,0-87.9-25.5-104.8-58.8L420.1,487.1z M217,492.1c9,16,17.3,29.6,37,29.6c18.9,0,30.8-7.4,30.8-36.1V290h57.5v196.3
	c0,59.5-34.9,86.7-85.9,86.7c-46,0-72.7-23.8-86.3-52.5L217,492.1z"/>
</svg>
