<svg id="Calque_1" data-name="Calque 1" xmlns="http://www.w3.org/2000/svg" xmlns:xlink="http://www.w3.org/1999/xlink" viewBox="0 0 474 490.1"><defs><style>.cls-1{fill:#2684ff;}.cls-2{fill:url(#Dégradé_sans_nom_2);}.cls-3{fill:url(#Dégradé_sans_nom_2-2);}</style><linearGradient id="Dégradé_sans_nom_2" x1="125.91" y1="431.23" x2="78.25" y2="383.59" gradientTransform="matrix(1.74, 0, 0, -1.74, -0.36, 873.66)" gradientUnits="userSpaceOnUse"><stop offset="0" stop-color="#0052cc"/><stop offset="1" stop-color="#2684ff"/></linearGradient><linearGradient id="Dégradé_sans_nom_2-2" x1="162.2" y1="285.17" x2="209.76" y2="332.73" xlink:href="#Dégradé_sans_nom_2"/></defs><path id="path8005" class="cls-1" d="M481.3,236.8,270.4,25.9,250,5.5,18.7,236.8a19.3,19.3,0,0,0,0,27.4l145,145L250,495.5,481.3,264.2A19.3,19.3,0,0,0,481.3,236.8ZM250,322.9l-72.4-72.4L250,178l72.4,72.5Z" transform="translate(-13 -5.5)"/><path id="path8015" class="cls-2" d="M250,178a122,122,0,0,1-.5-172L90.9,164.5l86.3,86.3Z" transform="translate(-13 -5.5)"/><path id="path8025" class="cls-3" d="M322.6,250.3,250,322.9a121.9,121.9,0,0,1,0,172.6L408.9,336.6Z" transform="translate(-13 -5.5)"/></svg>