<svg id="Calque_1" data-name="Calque 1" xmlns="http://www.w3.org/2000/svg" viewBox="0 0 486.8 432"><defs><style>.cls-1{fill:#5078b4;}.cls-1,.cls-2,.cls-3,.cls-4{fill-rule:evenodd;}.cls-2{fill:#6197cf;}.cls-3{fill:#779788;}.cls-4{fill:#f0833c;}</style></defs><path class="cls-1" d="M53.4,283.8a24.3,24.3,0,0,1-31.2,14.7A24.8,24.8,0,0,1,7.7,266.9L56.8,130A24.4,24.4,0,0,1,88,115.3,24.8,24.8,0,0,1,102.5,147Z" transform="translate(-6.2 -23.5)"/><path class="cls-2" d="M137.3,319.6a31.7,31.7,0,0,1-40.8,19.2,32.4,32.4,0,0,1-19-41.3l66.6-185.7A31.7,31.7,0,0,1,185,92.5c16.5,6.1,25,24.7,19,41.4Z" transform="translate(-6.2 -23.5)"/><path class="cls-3" d="M243,363.2c-8.1,22.5-32.6,34.1-54.7,25.9s-33.6-33.1-25.6-55.5l87.6-244a42.7,42.7,0,0,1,54.8-25.9c22.1,8.2,33.5,33,25.5,55.5Z" transform="translate(-6.2 -23.5)"/><path class="cls-4" d="M375.6,417.8c-10.7,29.7-43.1,45-72.4,34.2s-44.4-43.7-33.7-73.3l114-317.5A56.2,56.2,0,0,1,455.9,27c29.2,10.8,44.3,43.7,33.7,73.4Z" transform="translate(-6.2 -23.5)"/></svg>