<svg id="Calque_1" data-name="Calque 1" xmlns="http://www.w3.org/2000/svg" xmlns:xlink="http://www.w3.org/1999/xlink" viewBox="0 0 491.2 300.8"><defs><style>.cls-1{fill:none;}.cls-2,.cls-4{fill:#689f63;}.cls-3{fill:#333;}.cls-3,.cls-4{fill-rule:evenodd;}.cls-5{clip-path:url(#clip-path);}.cls-6{fill:url(#Dégradé_sans_nom_4);}.cls-7{clip-path:url(#clip-path-2);}.cls-8{fill:url(#Dégradé_sans_nom_2);}.cls-9{clip-path:url(#clip-path-3);}.cls-10{fill:url(#Dégradé_sans_nom_3);}</style><clipPath id="clip-path" transform="translate(-4.4 -100.2)"><path class="cls-1" d="M182.9,169.7l-46.8,27a5.4,5.4,0,0,0-2.8,4.9v54a5.5,5.5,0,0,0,2.8,4.9l46.8,27a5.6,5.6,0,0,0,5.6,0l46.8-27a5.8,5.8,0,0,0,2.8-4.9v-54a5.6,5.6,0,0,0-2.8-4.9l-46.8-27a5.7,5.7,0,0,0-2.8-.8,5.4,5.4,0,0,0-2.8.8"/></clipPath><linearGradient id="Dégradé_sans_nom_4" x1="1.48" y1="501.02" x2="2.82" y2="501.02" gradientTransform="matrix(-50.75, 103.54, 103.54, 50.75, -51579.22, -25422.37)" gradientUnits="userSpaceOnUse"><stop offset="0.3" stop-color="#3e863d"/><stop offset="0.5" stop-color="#55934f"/><stop offset="0.8" stop-color="#5aad45"/></linearGradient><clipPath id="clip-path-2" transform="translate(-4.4 -100.2)"><path class="cls-1" d="M134.4,259a6.1,6.1,0,0,0,1.7,1.5l40.1,23.2,6.7,3.8a5.4,5.4,0,0,0,3.3.7l1.1-.2,49.3-90.3a4.1,4.1,0,0,0-1.3-1L204.7,179l-16.2-9.4-1.5-.5Z"/></clipPath><linearGradient id="Dégradé_sans_nom_2" x1="0.23" y1="500.78" x2="1.1" y2="500.78" gradientTransform="matrix(142.41, -105.22, -105.22, -142.41, 52784.05, 71614.15)" gradientUnits="userSpaceOnUse"><stop offset="0.57" stop-color="#3e863d"/><stop offset="0.72" stop-color="#619857"/><stop offset="1" stop-color="#76ac64"/></linearGradient><clipPath id="clip-path-3" transform="translate(-4.4 -100.2)"><path class="cls-1" d="M185.1,168.9a5.8,5.8,0,0,0-2.2.8l-46.7,26.9,50.3,91.6a4.8,4.8,0,0,0,2-.7l46.8-27a5.7,5.7,0,0,0,2.7-3.9L186.8,169h-1.6"/></clipPath><linearGradient id="Dégradé_sans_nom_3" x1="0.87" y1="500.44" x2="1.65" y2="500.44" gradientTransform="matrix(129.89, 0, 0, -129.89, 23.85, 65229.62)" gradientUnits="userSpaceOnUse"><stop offset="0.16" stop-color="#6bbf47"/><stop offset="0.38" stop-color="#79b461"/><stop offset="0.47" stop-color="#75ac64"/><stop offset="0.7" stop-color="#659e5a"/><stop offset="0.9" stop-color="#3e863d"/></linearGradient></defs><path class="cls-2" d="M247.2,401a10,10,0,0,1-4.7-1.2L227.7,391c-2.2-1.2-1.1-1.7-.4-1.9A30.7,30.7,0,0,0,234,386a1.1,1.1,0,0,1,1.1.1l11.4,6.7a1.2,1.2,0,0,0,1.4,0l44.3-25.6a1.4,1.4,0,0,0,.7-1.2V314.8a1.5,1.5,0,0,0-.7-1.2L247.9,288a1.7,1.7,0,0,0-1.4,0l-44.3,25.6a1.3,1.3,0,0,0-.7,1.2V366a1.2,1.2,0,0,0,.7,1.2l12.1,7c6.6,3.3,10.6-.6,10.6-4.5V319.2a1.3,1.3,0,0,1,1.3-1.3h5.6a1.3,1.3,0,0,1,1.3,1.3v50.6c0,8.7-4.8,13.8-13.1,13.8-2.6,0-4.6,0-10.2-2.8l-11.7-6.7a9.2,9.2,0,0,1-4.6-8.1V314.8a9.4,9.4,0,0,1,4.6-8.1l44.4-25.6a9.8,9.8,0,0,1,9.4,0l44.3,25.7a9.2,9.2,0,0,1,4.7,8V366a9.2,9.2,0,0,1-4.7,8.1l-44.3,25.6a9,9,0,0,1-4.7,1.3" transform="translate(-4.4 -100.2)"/><path class="cls-2" d="M260.9,365.7c-19.4,0-23.5-8.9-23.5-16.4a1.2,1.2,0,0,1,1.3-1.2h5.7a1.2,1.2,0,0,1,1.3,1.1c.9,5.8,3.4,8.7,15.2,8.7,9.3,0,13.3-2.1,13.3-7,0-2.9-1.1-5-15.7-6.4-12.1-1.2-19.6-3.9-19.6-13.6s7.5-14.3,20.2-14.3,21.2,4.9,22.1,15.5a1.7,1.7,0,0,1-.3,1,1.3,1.3,0,0,1-1,.4h-5.7a1.3,1.3,0,0,1-1.3-1c-1.4-6.1-4.7-8.1-13.8-8.1s-11.4,3.6-11.4,6.2,1.4,4.2,15.1,6,20.1,4.4,20.1,14-8,15.2-22.1,15.2" transform="translate(-4.4 -100.2)"/><path class="cls-3" d="M109.8,200.7a5.8,5.8,0,0,0-2.8-4.9L59.9,168.7a4.5,4.5,0,0,0-2.5-.7h-.5a4.8,4.8,0,0,0-2.6.7L7.2,195.8a5.8,5.8,0,0,0-2.8,4.9v72.9a2.9,2.9,0,0,0,1.4,2.5,2.8,2.8,0,0,0,2.8,0l28-16.1a5.5,5.5,0,0,0,2.8-4.9v-34a5.7,5.7,0,0,1,2.9-5l11.9-6.8a5.7,5.7,0,0,1,2.8-.8,5.4,5.4,0,0,1,2.8.8l11.9,6.8a5.7,5.7,0,0,1,2.9,5v34a5.8,5.8,0,0,0,2.8,4.9l28,16a2.4,2.4,0,0,0,2.8,0,2.7,2.7,0,0,0,1.4-2.4Zm221.9,38a1.3,1.3,0,0,1-.7,1.2l-16.1,9.3a1.7,1.7,0,0,1-1.4,0l-16.2-9.3a1.5,1.5,0,0,1-.7-1.2V220a1.4,1.4,0,0,1,.7-1.2l16.1-9.4a2,2,0,0,1,1.5,0l16.1,9.4a1.2,1.2,0,0,1,.7,1.2Zm4.4-138.2a2.8,2.8,0,0,0-2.8,0,3,3,0,0,0-1.4,2.5v72.2a2.1,2.1,0,0,1-1,1.7,1.8,1.8,0,0,1-2,0l-11.8-6.8a5.8,5.8,0,0,0-5.7,0l-47,27.2a5.5,5.5,0,0,0-2.8,4.9v54.3a5.5,5.5,0,0,0,2.8,4.9l47,27.2a5.8,5.8,0,0,0,5.7,0l47.1-27.2a5.8,5.8,0,0,0,2.8-4.9V121.1a5.7,5.7,0,0,0-2.9-5Zm156.7,119a5.8,5.8,0,0,0,2.8-4.9V201.4a5.8,5.8,0,0,0-2.8-4.9L446,169.4a5.8,5.8,0,0,0-5.7,0l-47,27.1a5.7,5.7,0,0,0-2.8,5v54.3a5.8,5.8,0,0,0,2.8,4.9l46.8,26.6a5.7,5.7,0,0,0,5.5.1l28.3-15.7a2.8,2.8,0,0,0,0-5l-47.3-27.1a2.9,2.9,0,0,1-1.4-2.5v-17a2.7,2.7,0,0,1,1.4-2.5l14.7-8.5a2.8,2.8,0,0,1,2.8,0l14.8,8.5a2.7,2.7,0,0,1,1.4,2.5v13.3a2.7,2.7,0,0,0,1.4,2.5,3,3,0,0,0,2.9,0Z" transform="translate(-4.4 -100.2)"/><path class="cls-4" d="M442.5,217a1.1,1.1,0,0,1,1.1,0l9,5.2a1.1,1.1,0,0,1,.6.9v10.5a1.3,1.3,0,0,1-.6.9l-9,5.2a1.1,1.1,0,0,1-1.1,0l-9-5.2a1.1,1.1,0,0,1-.6-.9V223.1a1,1,0,0,1,.6-.9Z" transform="translate(-4.4 -100.2)"/><g class="cls-5"><path class="cls-6" d="M285.4,192.1,153.6,127.5,86,265.3,217.8,330Z" transform="translate(-4.4 -100.2)"/></g><g class="cls-7"><path class="cls-8" d="M77.4,211.2l93.1,126,123.1-91-93.1-126Z" transform="translate(-4.4 -100.2)"/></g><g class="cls-9"><path class="cls-10" d="M136.2,168.9V288.2H238V168.9Z" transform="translate(-4.4 -100.2)"/></g></svg>