<svg id="Calque_1" data-name="Calque 1" xmlns="http://www.w3.org/2000/svg" viewBox="0 0 487.8 63.5"><defs><style>.cls-1{fill:#e2231a;}</style></defs><path class="cls-1" d="M216.4,260.3h32.3l-17.1-27.5-31.3,49.7H186.1l38-59.7a9.1,9.1,0,0,1,12.7-2.2,10.4,10.4,0,0,1,2.1,2.1l38.3,59.8H263l-6.7-11.1H223.5l-7.1-11.1" transform="translate(-6.2 -219)"/><path class="cls-1" d="M364.5,271.4V219.6H352.3v56.9a5.9,5.9,0,0,0,1.8,4.1,6.2,6.2,0,0,0,4.4,1.8h55.2l7.2-11.1H364.5" transform="translate(-6.2 -219)"/><path class="cls-1" d="M164.3,262.1a21.3,21.3,0,1,0,0-42.5H111.4v62.9h12.1V230.7h40a10.2,10.2,0,0,1,0,20.4H129.4l36.2,31.5h17.5l-24.2-20.4h5.4" transform="translate(-6.2 -219)"/><path class="cls-1" d="M36.9,282.5a31.5,31.5,0,0,1,0-62.9H73.5a31.5,31.5,0,0,1,0,62.9H36.9m35.9-11.1a20.4,20.4,0,0,0,0-40.7H37.7a20.4,20.4,0,0,0,0,40.7H72.8" transform="translate(-6.2 -219)"/><path class="cls-1" d="M302.4,282.5a31.5,31.5,0,1,1-1.5-62.9h45l-7.1,11.1H303.4a20.4,20.4,0,0,0,0,40.7H347l-7.1,11.1H302.4" transform="translate(-6.2 -219)"/><path class="cls-1" d="M450.4,271.4a20.3,20.3,0,0,1-19.6-14.8h51.7l7.1-11.1H430.8a20.3,20.3,0,0,1,19.6-14.8h35.4l7.1-11.1H449.6a31.5,31.5,0,0,0,0,62.9h37.3l7.1-11.1H450.4" transform="translate(-6.2 -219)"/></svg>