<svg id="Calque_1" data-name="Calque 1" xmlns="http://www.w3.org/2000/svg" viewBox="0 0 490.2 317"><defs><style>.cls-1{fill:#4b85b2;}.cls-2{fill:#4782b0;}.cls-3{fill:#4782b1;}.cls-4{fill:#4480af;}.cls-5{fill:#4983b1;}.cls-6{fill:#464547;}.cls-7{fill:#427fae;}.cls-8{fill:#474648;}</style></defs><path class="cls-1" d="M137.6,174.5c20.8,15.5,16.9,40.2,26.2,59.4l-2.1,1.1c-22.6,2.6-22.6,2.6-28-19.4-1.5-6.1-2.9-12.2-4.7-18.2s-4-9.2-8.5-11.6c-6.8-3.5-14.9-4.9-21.4-2-4.9,2.1-1.8,9.6-2,14.6-.4,8-.8,16.2.1,24.1,1.2,10.6-2.2,14-13.1,13.4-8.4-.4-11.4-2-11.2-11,.6-27.7.3-55.4.3-83,0-8.8.1-17.5-.1-26.3-.1-4.4.8-7.6,5.9-8,17.1-1.3,34.2-3.4,51.3.3,14.4,3.1,25.3,10.7,28.3,26s-2.6,28.9-16.5,37.8ZM97,145c0,22.1,3.3,24.8,23,19.1,12-3.4,17.9-12.8,15.6-24.8s-13.8-17.5-31.5-15.5c-13.4,1.5-4.5,12.1-7.1,18C96.6,142.7,97,143.9,97,145Z" transform="translate(-4.8 -93)"/><path class="cls-2" d="M222.2,270c11.8-3.8,16.2,2.2,19.5,12.9,10.9,35.4,22.5,70.6,34.3,105.7,2.4,7.4,1.5,9-6.6,9.7-12.1.9-17.8-2.8-21-15-5.8-22.2-6.6-22-29.8-22a30.1,30.1,0,0,1-5.2,0c-9.2-1.6-14.6,1.7-15.9,11.4-.5,4.1-3,7.9-3.4,12-1.3,10.8-6.6,14-17.5,13.6-9.4-.3-10.9-2.1-7.9-10.9,11.5-34.5,22.9-69,33.2-103.9C205.3,272.2,210,266.4,222.2,270ZM221,290c-3.5,12-5.9,20.9-8.6,29.8-7.8,25.4-7.9,25.1,18.6,23.8,5.8-.3,6.3-2.1,4.7-6.8C231,322.2,226.5,307.6,221,290Z" transform="translate(-4.8 -93)"/><path class="cls-3" d="M182.2,171.3c0-18.6.2-37.2-.1-55.8-.1-6.1,1.1-8.8,8-8.6,20,.4,40,.5,60,0,8.8-.3,7.4,4.9,7.4,10.1s.9,10.4-7.7,9.8c-11.9-.7-23.8,0-35.8-.2-5.2-.1-7.2,1.7-7.6,7.1-1.9,26-2,26,23.2,26,4.5,0,9.2.5,13.6-.2,10.2-1.5,12.6,3,11.9,12.2-.4,5.6-2.2,7.2-7.5,7.1-10.9-.4-21.8.2-32.7-.2-6.1-.3-8.5,1.1-8.6,8-.6,29.3-.9,29.3,28.7,29.3h13.6c11.8,0,14.7,4.2,12,16-1,4.2-3.6,3.6-6.3,3.6-21.7,0-43.5-.2-65.2.1-5.9.1-7-2.4-6.9-7.5C182.4,209.2,182.2,190.2,182.2,171.3Z" transform="translate(-4.8 -93)"/><path class="cls-4" d="M296.7,333.7c0-18.3.1-36.5,0-54.8,0-4.3-.5-8.4,5.8-8.9,17.8-1.4,35.6-3.8,53.2,1.5,15.8,4.6,25.3,14.9,27.1,31.3s-3.5,30.5-18.3,39.6c-11.4,7-24.3,8.8-37.4,8.1-5.9-.3-7.4,1.3-7.3,6.7.3,11.3-.2,22.5.2,33.7.2,5.6-1.7,7-7.2,7.1-16.1.4-16.1.6-16.1-15.9Zm34.1-47.4c-8.9-2.2-11.9,2.7-11.1,12.6s.3,17.5.2,26.3c-.1,3.5.3,6.5,4.6,6.8,11,.8,22.1.5,29.9-8.8,6.2-7.3,7.1-16.2,3-24.7C352.4,288.2,342.8,286.2,330.8,286.3Z" transform="translate(-4.8 -93)"/><path class="cls-3" d="M323.4,104.4c5.5.8,11.1,1.3,16.5,2.5,13.6,3,13.4,3.3,9.4,16.5-1.6,5.2-3.1,6.7-8.5,4.5a45,45,0,0,0-26.9-2.4c-6.7,1.4-11.8,4.9-13,12s2.2,12.4,8.2,15.6c7.5,3.8,15.3,7,22.9,10.5,18.9,8.9,27.7,21.8,25.9,38-1.9,18.2-14,29.9-34.6,34.3-14.2,3-27.8.8-41.4-3.4s-4.1-11.8-3.2-17.7c1.3-8.5,6.3-2.3,9.2-1.3,10.2,3.4,20.5,4.9,31.1,3.1,7.4-1.3,13.1-5.1,14.6-13.1s-1.8-13.8-8.4-17.8A108.8,108.8,0,0,0,311,179c-6.5-2.6-13-5.3-18.7-9.4-22.3-15.8-20.4-45.5,3.6-58.7C304.4,106.2,313.6,104.5,323.4,104.4Z" transform="translate(-4.8 -93)"/><path class="cls-5" d="M403.4,181.1c0-15.4-.3-30.8.1-46.2.2-6.5-2-8.8-8.4-8.3s-12.7-.6-18.9.2c-9.2,1.2-8.8-4-9.1-10.5s1.7-9.6,9.2-9.5c26.6.5,53.3.5,79.9,0,7.7-.1,8.6,3.3,8.1,9.3s1.8,12.2-7.8,10.6a1.7,1.7,0,0,0-1,0c-8.9.8-20.5-4.1-26.1,2.3s-1.6,17.5-1.7,26.5c-.2,23.8-.3,47.6.1,71.4.1,7-2.1,9-8.9,8.8-18.8-.8-15.2,1.9-15.5-15.7C403.2,207,403.4,194.1,403.4,181.1Z" transform="translate(-4.8 -93)"/><path class="cls-6" d="M473.1,332.1c-12.7-5.2-14.2-14.7-13.8-25,.4-6.9,1.6-13.9,1.9-20.8s-2-12.4-10.3-13-3.5-7.4-4.5-11.3,1.8-5.5,6-5.7c20.4-.9,30.6,8.7,30,29.4-.2,7.3-1.3,14.6-1.9,21.9s.6,15.2,10.2,16.6c4.9.7,4.3,4,4,6.9s2.4,8.4-3.5,9.5c-10.9,2.2-11.2,9.8-10.5,18.4s1.9,18.2,1.6,27.3c-.4,15.9-18.5,27.7-33.3,22.5-4.7-1.7-2.5-5.3-2.6-7.9s-1.9-8.1,4.4-8.7c9.4-.8,10.9-7.4,10.4-15-.3-5.6-1-11.2-1.6-16.8C458.3,348.9,460,338.7,473.1,332.1Z" transform="translate(-4.8 -93)"/><path class="cls-6" d="M27.6,170.2c11.9,6.3,13.4,15.8,12.8,26-.3,5.9-1.4,11.8-1.8,17.8-.6,7.9.5,14.6,10.6,16,7.8,1.2,3.4,7.8,4.2,11.9s-2.9,4.4-6,4.6c-20.6,1-30.8-8.8-30.1-29.5.2-7,1.1-14,1.8-20.9s.1-15.9-10.1-17.7c-5.5-.9-4-5.1-3.9-8.2s-2.2-7.4,3.6-8.2c10.3-1.6,11.1-9,10.4-17.4s-1.9-18.2-1.7-27.2c.5-16.4,17.4-27.9,33-23.4,5.5,1.6,2.9,5.7,2.9,8.6s2.6,8.3-4.3,8.4c-9.2.1-10.8,6.5-10.5,13.8.2,5.6.9,11.2,1.5,16.7C41.5,152.9,40,163.2,27.6,170.2Z" transform="translate(-4.8 -93)"/><path class="cls-7" d="M427.3,333.6c0,18.5-.2,37.1.2,55.6.1,6.7-1.6,9.1-8.7,8.8-18.2-.7-14.8,1.9-14.9-15-.2-34.9.4-69.9-.3-104.9-.2-10.7,6-8.6,12-8.6s12.5-2.3,12,8.5C426.7,296.5,427.3,315.1,427.3,333.6Z" transform="translate(-4.8 -93)"/><path class="cls-8" d="M121.9,310.3c.1-10.7,7.2-17.9,17.6-17.7s17.3,7.8,17.1,18.4-7.3,17-17.3,17.1S121.8,321,121.9,310.3Z" transform="translate(-4.8 -93)"/><path class="cls-6" d="M139.1,389.5c-10.7,0-17.4-6.9-17.2-17.8s7.7-18,17.8-17.7,17.1,8.4,16.8,18.8S149.2,389.6,139.1,389.5Z" transform="translate(-4.8 -93)"/></svg>