<svg id="Calque_1" data-name="Calque 1" xmlns="http://www.w3.org/2000/svg" viewBox="0 0 486.5 461.6"><defs><style>.cls-1{fill:#36c;}</style></defs><path class="cls-1" d="M283.1,250.6c0,63.2.1,126.4-.1,189.7-.1,33.8-13.5,45.4-46.6,39.4q-91.5-16.5-182.7-34.2C22,439.3,6.6,420.2,6.6,388.1q-.1-137.7,0-275.4C6.6,81.4,21.7,61.9,52.1,56q93.9-18.3,188-35.2c28.2-5.1,42.7,7.3,42.8,36.4C283.3,121.7,283.1,186.1,283.1,250.6ZM134.5,353.1c25.2-3.5,48.8-21.2,56.2-44.5s-.3-50.9-21.3-64.5c-10-6.6-21.6-10.8-32.6-15.9s-25.4-9-20.7-25,19.2-14.5,32.1-13.9a27.6,27.6,0,0,1,12.1,3.7c9.9,5.5,18.3,6.1,24.7-5s2.3-20.1-7.3-26.6c-23.6-15.9-47.5-11.1-70.8.5-20.8,10.4-32.7,27.5-32,51,.8,25.8,15.9,42.3,39.1,52.1,9.4,4,19.8,7.4,27.4,13.8,4.8,4,8.7,14.5,6.6,19.6s-11.6,10.8-18.1,11.1c-8.6.4-17.8-3.3-26-6.8s-17.3-5.7-23.3,4.9-3.3,20.1,6.3,25.2C102.1,340.8,118.6,346.5,134.5,353.1Z" transform="translate(-6.5 -19.6)"/><path class="cls-1" d="M402.8,194.1l-27-25.5c-19.7,18.6-39.5,30.6-67.4,21.1,0-32.1-.3-64.8.5-97.5,0-3.1,6.6-8.1,10.7-8.7,30.4-5.1,60,17.6,60.6,48.3.2,14.7,4.9,23.9,16.9,30.8a28.6,28.6,0,0,1,8.2,7.3c12.2,16.1,25.1,27.1,48.3,28.6s41.1,29.9,39.3,55.8-22.1,49.5-48.7,50.3c-13.7.4-23.2,3.8-29.4,16a28.2,28.2,0,0,1-7.2,8.2c-16.8,12.5-27.8,26-29.4,49.7-1.9,26.4-32.6,44-59,38.9-4.2-.8-10.3-7-10.5-10.9-1-25.5-.5-51.1-.6-76.6V311.4c27-8.8,47.4.3,67.8,22.9,10.5-12,20-22.6,26.5-30-7.6-20.2-18.8-37-19-54S394.2,217.4,402.8,194.1Z" transform="translate(-6.5 -19.6)"/></svg>