<svg id="Calque_1" data-name="Calque 1" xmlns="http://www.w3.org/2000/svg" xmlns:xlink="http://www.w3.org/1999/xlink" viewBox="0 0 490.4 479"><defs><style>.cls-1{fill:#036c70;}.cls-2{fill:#1a9ba1;}.cls-3{fill:#37c6d0;}.cls-4{opacity:0.1;}.cls-4,.cls-5{isolation:isolate;}.cls-5{opacity:0.2;}.cls-6{fill:url(#Dégradé_sans_nom_2);}.cls-7{fill:#fff;}</style><linearGradient id="Dégradé_sans_nom_2" x1="48.38" y1="-1339.29" x2="212.12" y2="-1055.71" gradientTransform="translate(0 1448)" gradientUnits="userSpaceOnUse"><stop offset="0" stop-color="#058f92"/><stop offset="0.5" stop-color="#038489"/><stop offset="1" stop-color="#026d71"/></linearGradient></defs><circle class="cls-1" cx="250.9" cy="136.9" r="136.9"/><circle class="cls-2" cx="365" cy="262.3" r="125.5"/><circle class="cls-3" cx="268" cy="382.1" r="96.9"/><path class="cls-4" d="M278.5,134.5V377.9a21.1,21.1,0,0,1-13,19.3,21.4,21.4,0,0,1-7.9,1.6H176c-.1-2-.1-3.8-.1-5.7a36.2,36.2,0,0,1,.2-5.7,96.6,96.6,0,0,1,58-83.2V283A136.7,136.7,0,0,1,120.5,126.6l.3-1.6a115.6,115.6,0,0,1,2.4-11.4H257.6A21,21,0,0,1,278.5,134.5Z" transform="translate(-4.8 -11)"/><path class="cls-5" d="M246.2,125H120.8A136.8,136.8,0,0,0,232.6,282.8c2.3.3,4.5.7,6.8.9-35.4,16.8-61.1,64.4-63.3,103.7a36.2,36.2,0,0,0-.2,5.7c0,1.9,0,3.7.1,5.7a74.2,74.2,0,0,0,1.5,11.4h68.7a21.1,21.1,0,0,0,19.3-13,19.6,19.6,0,0,0,1.6-7.9V145.9A21,21,0,0,0,246.2,125Z" transform="translate(-4.8 -11)"/><path class="cls-5" d="M246.2,125H120.8A136.8,136.8,0,0,0,232.6,282.8l4.6.7c-34.2,17.9-59,65.4-61.1,103.9h70.1a21.1,21.1,0,0,0,20.9-20.9V145.9A21,21,0,0,0,246.2,125Z" transform="translate(-4.8 -11)"/><path class="cls-5" d="M234.8,125h-114A136.7,136.7,0,0,0,221.9,280.5a188.6,188.6,0,0,0-45.8,106.9h58.7a21,21,0,0,0,20.9-20.9V145.9A21,21,0,0,0,234.8,125Z" transform="translate(-4.8 -11)"/><path class="cls-6" d="M25.7,125H234.8a21,21,0,0,1,20.9,21V355a21,21,0,0,1-20.9,21H25.7A21,21,0,0,1,4.8,355V146A21,21,0,0,1,25.7,125Z" transform="translate(-4.8 -11)"/><path class="cls-7" d="M98.2,247.9a38.1,38.1,0,0,1-12-12.6A34.9,34.9,0,0,1,82,218a33.3,33.3,0,0,1,7.8-22.4,45.1,45.1,0,0,1,20.6-13.4,86.9,86.9,0,0,1,28.1-4.4,106.2,106.2,0,0,1,37.1,5.2v26.2a59.9,59.9,0,0,0-16.8-6.8,80.9,80.9,0,0,0-19.6-2.4,42.1,42.1,0,0,0-20.1,4.3,13.1,13.1,0,0,0-8,12.1,12.4,12.4,0,0,0,3.4,8.6,30.9,30.9,0,0,0,9.1,6.5q5.7,2.9,17.1,7.5l2.5,1a138.9,138.9,0,0,1,21.5,10.7,38.2,38.2,0,0,1,12.8,12.8,37.3,37.3,0,0,1,4.6,19.4,36.2,36.2,0,0,1-7.3,23.3,40.5,40.5,0,0,1-19.4,13.1,89.1,89.1,0,0,1-27.6,4,150.9,150.9,0,0,1-25.1-2.1,86.5,86.5,0,0,1-20.4-5.9V287.6a64,64,0,0,0,20.6,9.8,78.5,78.5,0,0,0,22.6,3.6,38.9,38.9,0,0,0,20.6-4.3,13.8,13.8,0,0,0,7-12.3,13.2,13.2,0,0,0-3.9-9.4,39.7,39.7,0,0,0-10.7-7.5c-4.6-2.3-11.3-5.3-20.2-9A110.3,110.3,0,0,1,98.2,247.9Z" transform="translate(-4.8 -11)"/></svg>