<?xml version="1.0" encoding="utf-8"?>
<!-- Generator: Adobe Illustrator 25.0.0, SVG Export Plug-In . SVG Version: 6.00 Build 0)  -->
<svg version="1.1" id="Layer_1" xmlns="http://www.w3.org/2000/svg" xmlns:xlink="http://www.w3.org/1999/xlink" x="0px" y="0px"
	 viewBox="0 0 500 500" style="enable-background:new 0 0 500 500;" xml:space="preserve">
<style type="text/css">
	.st0{fill:#FFFFFF;}
</style>
<g id="XMLID_1_">
	<path id="XMLID_2_" d="M9.6,45.5h480.6c5.3,0,9.7,4.4,9.7,9.7v389.5c0,5.3-4.4,9.7-9.7,9.7H9.6c-5.3,0-9.7-4.4-9.7-9.7V55.3
		C-0.1,49.9,4.3,45.5,9.6,45.5z"/>
	<path id="XMLID_3_" class="st0" d="M55.1,88c-1.6-1.6-3.7-2.5-6-2.5c-2.3,0-4.4,0.8-6,2.5c-1.6,1.6-2.5,3.7-2.5,6
		c0,2.3,0.8,4.4,2.5,6l26.3,26.3l-26.5,26.3c-1.6,1.6-2.5,3.7-2.6,6c0,2.3,0.8,4.4,2.5,6c1.6,1.6,3.7,2.5,6,2.5
		c2.3,0,4.4-0.8,6.2-2.5l29.2-29.2c6.2-6.2,6.2-12.2,0-18.4L55.1,88z M169.4,152.7c-1.6-1.6-3.7-2.5-6.2-2.5l0,0h-56.3l0,0
		c-2.3,0-4.4,0.8-6.2,2.5c-1.6,1.6-2.5,3.7-2.5,6.2c0,2.5,0.8,4.4,2.5,6.2c1.6,1.6,3.7,2.5,6.2,2.5l0,0h56.3l0,0
		c2.3,0,4.4-0.8,6.2-2.5c1.6-1.6,2.5-3.7,2.5-6.2C171.9,156.4,171.2,154.3,169.4,152.7z"/>
</g>
</svg>
