<?xml version="1.0" encoding="utf-8"?>
<!-- Generator: Adobe Illustrator 25.0.0, SVG Export Plug-In . SVG Version: 6.00 Build 0)  -->
<svg version="1.1" id="Livello_1" xmlns="http://www.w3.org/2000/svg" xmlns:xlink="http://www.w3.org/1999/xlink" x="0px" y="0px"
	 viewBox="0 0 340 72" style="enable-background:new 0 0 340 72;" xml:space="preserve">
<style type="text/css">
	.st0{fill:#333399;}
</style>
<path class="st0" d="M232.8,26c0.3,0,0.5-0.3,0.5-0.6c0-0.3-0.3-0.5-0.6-0.5c-0.3,0-0.5,0.3-0.5,0.6c0,0,0,0,0,0
	C232.2,25.8,232.4,26.1,232.8,26 M197.1,7.9c0,0.9,0.7,1.6,1.6,1.6s1.6-0.7,1.6-1.6c0-0.9-0.7-1.6-1.6-1.6S197.1,7,197.1,7.9
	C197.1,7.9,197.1,7.9,197.1,7.9 M207.5,11.4c0,0.9,0.7,1.6,1.6,1.6s1.6-0.7,1.6-1.6c0-0.9-0.7-1.6-1.6-1.6c0,0,0,0,0,0
	C208.2,9.7,207.5,10.5,207.5,11.4C207.5,11.4,207.5,11.4,207.5,11.4 M168.5,54.1c0,0.9,0.7,1.6,1.6,1.6c0.9,0,1.6-0.7,1.6-1.6
	c0-0.9-0.7-1.6-1.6-1.6c0,0,0,0,0,0C169.2,52.4,168.5,53.2,168.5,54.1C168.5,54.1,168.5,54.1,168.5,54.1 M176.5,60.9
	c0,0.9,0.7,1.6,1.6,1.6c0.9,0,1.6-0.7,1.6-1.6s-0.7-1.6-1.6-1.6c0,0,0,0,0,0C177.3,59.2,176.5,60,176.5,60.9 M186.8,64
	c0,0.9,0.7,1.6,1.6,1.6s1.6-0.7,1.6-1.6s-0.7-1.6-1.6-1.6l0,0C187.6,62.4,186.8,63.1,186.8,64 M197.4,63.9c0,0.9,0.8,1.6,1.7,1.6
	s1.6-0.8,1.6-1.7c0-0.9-0.7-1.6-1.6-1.6C198.1,62.2,197.4,62.9,197.4,63.9C197.4,63.8,197.4,63.8,197.4,63.9 M207.5,60.6
	c0,0.9,0.7,1.6,1.6,1.6c0.9,0,1.6-0.7,1.6-1.6c0-0.9-0.7-1.6-1.6-1.6c0,0,0,0,0,0C208.2,59,207.5,59.7,207.5,60.6 M215.5,54.2
	c0,0.9,0.7,1.6,1.6,1.6s1.6-0.7,1.6-1.6s-0.7-1.6-1.6-1.6l0,0C216.3,52.5,215.5,53.3,215.5,54.2 M215.4,17.9c0,0.9,0.7,1.6,1.6,1.6
	c0.9,0,1.6-0.7,1.6-1.6c0-0.9-0.7-1.6-1.6-1.6C216.2,16.2,215.4,16.9,215.4,17.9C215.4,17.9,215.4,17.9,215.4,17.9 M204,13.5
	c0-1.1-0.9-2.1-2.1-2.1c-1.1,0-2.1,0.9-2.1,2.1c0,1.1,0.9,2.1,2.1,2.1C203.1,15.6,204,14.7,204,13.5C204,13.5,204,13.5,204,13.5
	 M211,17.9c0-1.1-0.9-2.1-2.1-2.1c-1.1,0-2.1,0.9-2.1,2.1c0,1.1,0.9,2.1,2.1,2.1C210.1,19.9,211,19,211,17.9
	C211,17.9,211,17.9,211,17.9 M216.5,24c0-1.2-0.9-2.1-2.1-2.1c-1.2,0-2.1,0.9-2.1,2.1c0,1.2,0.9,2.1,2.1,2.1c0,0,0,0,0,0
	C215.5,26.1,216.5,25.2,216.5,24C216.5,24,216.5,24,216.5,24 M201.5,0.6c0-0.3-0.2-0.6-0.5-0.6c-0.3,0-0.6,0.2-0.6,0.5
	c0,0.3,0.2,0.6,0.5,0.6C201.2,1.1,201.5,0.9,201.5,0.6C201.5,0.6,201.5,0.6,201.5,0.6 M215.4,5.7c0-0.3-0.2-0.6-0.5-0.6c0,0,0,0,0,0
	c-0.3,0-0.6,0.3-0.5,0.6c0,0.3,0.2,0.5,0.5,0.5C215.1,6.2,215.4,6,215.4,5.7 M226.4,13.5c0-0.3-0.2-0.6-0.5-0.6c0,0,0,0,0,0
	c-0.3,0-0.6,0.2-0.6,0.5c0,0,0,0,0,0c-0.1,0.3,0.1,0.6,0.4,0.7c0.3,0.1,0.6-0.1,0.7-0.4C226.4,13.6,226.4,13.6,226.4,13.5
	 M207.4,6.3c0-0.6-0.4-1.1-1-1.1c-0.6,0-1.1,0.4-1.1,1c0,0.6,0.4,1.1,1,1.1C206.9,7.3,207.4,6.9,207.4,6.3
	C207.4,6.3,207.4,6.3,207.4,6.3 M218.1,11.6c0.1-0.6-0.4-1.1-1-1.1c0,0,0,0,0,0c-0.6-0.1-1.1,0.3-1.2,0.9c-0.1,0.6,0.3,1.1,0.9,1.2
	c0,0,0.1,0,0.1,0C217.5,12.6,218,12.2,218.1,11.6C218,11.6,218,11.6,218.1,11.6 M225.3,19.1c-0.6,0-1.1,0.4-1.1,1
	c0,0.6,0.4,1.1,1,1.1c0.6,0,1.1-0.4,1.1-1C226.4,19.7,225.9,19.2,225.3,19.1C225.3,19.1,225.3,19.1,225.3,19.1 M193.6,3.3
	c-0.6,0-1.1,0.5-1.1,1.1s0.5,1.1,1.1,1.1c0.6,0,1.1-0.5,1.1-1.1c0,0,0,0,0,0C194.7,3.8,194.2,3.4,193.6,3.3 M188.4,6.3
	c-0.9,0-1.6,0.7-1.6,1.6s0.7,1.6,1.6,1.6s1.6-0.7,1.6-1.6c0,0,0,0,0,0C190.1,7,189.3,6.3,188.4,6.3L188.4,6.3 M178.1,9.8
	c-0.9,0-1.6,0.7-1.6,1.6s0.7,1.6,1.6,1.6c0.9,0,1.6-0.7,1.6-1.6c0,0,0,0,0,0C179.7,10.5,179,9.8,178.1,9.8 M162.9,34.4
	c-0.9,0-1.6,0.7-1.6,1.6s0.7,1.6,1.6,1.6c0.9,0,1.6-0.7,1.6-1.6c0,0,0,0,0,0C164.6,35.2,163.8,34.4,162.9,34.4L162.9,34.4
	 M164.9,24.8c-0.9,0-1.6,0.7-1.6,1.6s0.7,1.6,1.6,1.6s1.6-0.7,1.6-1.6c0,0,0,0,0,0C166.6,25.5,165.9,24.8,164.9,24.8
	C164.9,24.8,164.9,24.8,164.9,24.8 M170.2,16.2c-0.9,0-1.6,0.7-1.6,1.6s0.7,1.6,1.6,1.6s1.6-0.7,1.6-1.6c0,0,0,0,0,0
	C171.8,16.9,171.1,16.2,170.2,16.2 M193.6,61.9c1.2,0,2.1-0.9,2.1-2.1s-0.9-2.1-2.1-2.1c-1.2,0-2.1,0.9-2.1,2.1c0,0,0,0,0,0
	C191.5,60.9,192.4,61.9,193.6,61.9 M193.6,14.4c1.2,0,2.1-0.9,2.1-2.1s-0.9-2.1-2.1-2.1c-1.2,0-2.1,0.9-2.1,2.1c0,0,0,0,0,0
	C191.5,13.5,192.4,14.4,193.6,14.4 M185.3,15.6c1.2,0,2.1-0.9,2.1-2.1s-0.9-2.1-2.1-2.1c-1.2,0-2.1,0.9-2.1,2.1c0,0,0,0,0,0
	C183.2,14.7,184.1,15.6,185.3,15.6C185.3,15.6,185.3,15.6,185.3,15.6 M178.3,19.9c1.2,0,2.1-0.9,2.1-2.1c0-1.2-0.9-2.1-2.1-2.1
	c-1.2,0-2.1,0.9-2.1,2.1c0,0,0,0,0,0C176.2,19,177.1,19.9,178.3,19.9C178.3,19.9,178.3,19.9,178.3,19.9 M172.8,26.1
	c1.2,0,2.1-0.9,2.1-2c0-1.2-0.9-2.1-2-2.1s-2.1,0.9-2.1,2c0,0,0,0,0,0C170.7,25.1,171.7,26.1,172.8,26.1
	C172.8,26.1,172.8,26.1,172.8,26.1 M170.6,33.9c1.2,0,2.1-0.9,2.1-2.1s-0.9-2.1-2.1-2.1c-1.2,0-2.1,0.9-2.1,2.1c0,0,0,0,0,0
	C168.5,32.9,169.4,33.9,170.6,33.9L170.6,33.9 M186.3,1.1c0.3,0,0.5-0.3,0.5-0.6c0-0.3-0.3-0.5-0.6-0.5c-0.3,0-0.5,0.3-0.5,0.6
	C185.7,0.9,186,1.1,186.3,1.1C186.3,1.1,186.3,1.1,186.3,1.1 M172.4,6.2c0.3,0,0.5-0.3,0.5-0.6c0,0,0,0,0,0c0-0.3-0.3-0.5-0.6-0.5
	c-0.3,0-0.5,0.3-0.5,0.6c0,0,0,0,0,0C171.8,6,172.1,6.2,172.4,6.2 M232.8,49.9c0.3,0,0.6-0.2,0.6-0.5s-0.2-0.6-0.5-0.6
	c0,0-0.1,0-0.1,0c-0.3,0-0.5,0.3-0.5,0.6c0,0,0,0,0,0C232.2,49.7,232.4,49.9,232.8,49.9 M226.1,59.2c0.3,0,0.5-0.3,0.5-0.6
	c0-0.3-0.3-0.5-0.6-0.5c-0.3,0-0.5,0.3-0.5,0.6C225.5,59,225.8,59.2,226.1,59.2 M214.9,67c0.3,0,0.5-0.3,0.5-0.6c0,0,0,0,0,0
	c0-0.3-0.2-0.6-0.6-0.6c-0.3,0-0.6,0.2-0.6,0.6c0,0,0,0.1,0,0.1C214.3,66.8,214.6,67,214.9,67C214.9,67,214.9,67,214.9,67 M201,72
	c0.3,0,0.5-0.3,0.5-0.6c0-0.3-0.3-0.5-0.6-0.5c0,0,0,0,0,0c-0.3,0-0.5,0.3-0.5,0.6C200.4,71.8,200.7,72,201,72 M186.3,72
	c0.3,0,0.5-0.3,0.5-0.6c0-0.3-0.3-0.5-0.6-0.5l0,0c-0.3,0-0.5,0.3-0.5,0.6C185.7,71.8,186,72,186.3,72C186.3,72,186.3,72,186.3,72
	 M172.4,66.9c0.3,0,0.5-0.3,0.5-0.6c0,0,0,0,0,0c0-0.3-0.3-0.5-0.6-0.5c-0.3,0-0.5,0.3-0.5,0.6c0,0,0,0,0,0
	C171.8,66.7,172.1,67,172.4,66.9 M161.4,59.1c0.3,0,0.5-0.3,0.5-0.6s-0.3-0.5-0.6-0.5c-0.3,0-0.5,0.3-0.5,0.6c0,0,0,0,0,0
	C160.8,58.9,161.1,59.1,161.4,59.1 M154.5,49.9c0.3,0,0.6-0.2,0.6-0.5s-0.2-0.6-0.5-0.6c0,0-0.1,0-0.1,0c-0.3,0.1-0.5,0.4-0.4,0.7
	C154,49.7,154.2,49.9,154.5,49.9 M161.4,14c0.3,0,0.5-0.3,0.5-0.6s-0.3-0.5-0.6-0.5c-0.3,0-0.5,0.3-0.5,0.6c0,0,0,0,0,0
	C160.8,13.8,161.1,14,161.4,14 M180.9,7.2c0.6-0.1,1-0.6,1-1.1s-0.6-1-1.1-1c-0.6,0-1,0.5-1,1.1C179.8,6.8,180.3,7.2,180.9,7.2
	C180.9,7.2,180.9,7.2,180.9,7.2 M170.3,12.5c0.6-0.1,1-0.6,0.9-1.2c-0.1-0.5-0.5-0.9-1.1-0.9c-0.6,0-1,0.5-1,1.1
	C169.1,12.1,169.6,12.5,170.3,12.5C170.2,12.5,170.2,12.5,170.3,12.5 M160.9,20.3c0,0.6,0.4,1,1,1c0.1,0,0.1,0,0.1,0
	c0.6,0,1-0.6,1-1.1c0-0.6-0.6-1-1.1-1C161.3,19.2,160.9,19.7,160.9,20.3 M229.5,40.4c-0.6,0-1,0.6-1,1.1c0,0.6,0.6,1,1.1,1l0,0
	c0.6,0,1-0.6,1-1.1C230.6,40.8,230.1,40.4,229.5,40.4L229.5,40.4 M225.4,50.7c-0.6,0.1-1,0.6-1,1.1s0.6,1,1.1,1c0.6,0,1-0.5,1-1.1
	C226.5,51.1,226,50.7,225.4,50.7C225.4,50.7,225.4,50.7,225.4,50.7 M217.1,59.5c-0.6,0-1,0.6-1,1.1c0,0.6,0.6,1,1.1,1
	c0.6,0,1-0.5,1-1.1c0-0.6-0.4-1-1-1C217.2,59.4,217.2,59.4,217.1,59.5 M206.3,64.8c-0.6,0-1,0.5-1,1.1c0,0,0,0,0,0
	c0,0.6,0.5,1,1.1,1c0.6,0,1-0.5,1-1.1c0,0,0-0.1,0-0.1C207.4,65.2,206.9,64.7,206.3,64.8C206.3,64.7,206.3,64.7,206.3,64.8
	 M193.5,66.5c-0.6,0-1,0.5-1,1.1c0,0.6,0.5,1,1.1,1c0,0,0.1,0,0.1,0c0.6-0.1,1-0.6,0.9-1.2C194.5,66.9,194,66.5,193.5,66.5
	 M181.2,65.1c-0.6,0-1,0.6-1,1.2c0,0.6,0.6,1,1.1,1s1-0.6,1-1.2C182.3,65.5,181.8,65.1,181.2,65.1L181.2,65.1 M170.1,59.5
	c-0.6,0-1,0.5-1,1.1c0,0.6,0.5,1,1.1,1c0,0,0.1,0,0.1,0c0.6-0.1,1-0.6,0.9-1.2C171.1,59.9,170.6,59.5,170.1,59.5 M161.8,50.7
	c-0.6,0.1-1,0.6-1,1.1s0.6,1,1.1,1c0.6,0,1-0.5,1-1.1C163,51.1,162.5,50.7,161.8,50.7C161.9,50.7,161.9,50.7,161.8,50.7 M157.2,30.4
	c-0.6,0.1-1,0.6-1,1.1s0.6,1,1.1,1c0.6,0,1-0.5,1-1.1C158.4,30.8,157.9,30.4,157.2,30.4C157.3,30.4,157.3,30.4,157.2,30.4
	 M187.4,58.4c0-1.1-0.9-2.1-2.1-2.1s-2.1,0.9-2.1,2.1c0,1.1,0.9,2.1,2.1,2.1S187.4,59.6,187.4,58.4L187.4,58.4 M201.7,56.3
	c-1.2,0-2.1,0.9-2.1,2.1s0.9,2.1,2.1,2.1c1.2,0,2.1-0.9,2.1-2.1c0,0,0,0,0,0C203.8,57.3,202.9,56.3,201.7,56.3
	C201.7,56.3,201.7,56.3,201.7,56.3 M208.9,52.2c-1.2,0-2.1,1-2,2.1s1,2.1,2.1,2c1.1,0,2-0.9,2-2C211,53.2,210.1,52.2,208.9,52.2
	 M216.4,48c0-1.1-0.9-2.1-2.1-2.1c-1.1,0-2.1,0.9-2.1,2.1c0,1.1,0.9,2.1,2.1,2.1C215.5,50.1,216.4,49.2,216.4,48
	C216.4,48,216.4,48,216.4,48 M178.3,52.1c-1.2,0-2.1,0.9-2.1,2.1s0.9,2.1,2.1,2.1c1.2,0,2.1-0.9,2.1-2.1c0,0,0,0,0,0
	C180.4,53,179.5,52.1,178.3,52.1C178.3,52.1,178.3,52.1,178.3,52.1 M172.8,45.9c-1.2,0-2.1,0.9-2.1,2.1s0.9,2.1,2.1,2.1
	c1.2,0,2.1-0.9,2.1-2.1c0,0,0,0,0,0C174.9,46.9,174,45.9,172.8,45.9L172.8,45.9 M256.3,28h12.9v17.2h4.5V28h11.8l1.1-3h-29.2
	L256.3,28z M151.8,25h-4.5v20.2h20.7l1.1-3h-17.2V25z M193.9,25l10.9,20h4.9l-10.9-20L193.9,25z M177.4,45h4.9l10.9-20h-4.9
	L177.4,45z M242.5,40l-19-14.9H219V45h4.5V30l19,15h4.5V25h-4.5L242.5,40z M334.1,33.5h-13.9c-1.4,0.1-2.6-0.9-2.7-2.3
	c0-0.1,0-0.1,0-0.2v-0.6c0-1.4,1.2-2.5,2.5-2.4c0.1,0,0.1,0,0.2,0h18.7l1.1-3h-21.2c-3.8,0-5.8,2.6-5.8,5.1v1.3c0,2.6,2,5.3,5.9,5.3
	h13.9c1.4-0.1,2.6,0.9,2.7,2.3c0,0.1,0,0.1,0,0.2v0.6c0,1.4-1.2,2.5-2.5,2.4c-0.1,0-0.1,0-0.2,0h-18.7l-1.1,3h21.2
	c3.8,0,5.8-2.6,5.8-5.1v-1.3C340,36.2,338,33.5,334.1,33.5 M21.1,33.5H7.2c-1.4,0.1-2.6-0.9-2.7-2.3c0-0.1,0-0.1,0-0.2v-0.6
	c0-1.4,1.2-2.5,2.5-2.4c0.1,0,0.1,0,0.2,0h18.7l1.1-3H5.8C2,25.1,0.1,27.6,0,30.2v1.3c0,2.6,2,5.3,5.9,5.3h13.9
	c1.4-0.1,2.6,0.9,2.7,2.3c0,0.1,0,0.1,0,0.2v0.6c0,1.4-1.2,2.5-2.5,2.4c-0.1,0-0.1,0-0.2,0H1.1l-1.1,3h21.2c3.8,0,5.8-2.6,5.8-5.1
	v-1.4C27,36.2,25,33.5,21.1,33.5 M296.2,45h4.5V25h-4.5V45z M36.8,28h12.9v17.2h4.5V28H66l1.1-3H37.9L36.8,28z M98.8,28l1.1-3H77
	v20.2h21.9l1.1-3H81.6v-5.7h12.9l1.1-2.9h-14V28H98.8z M118.1,42.2h17.2l-1.1,3h-20.7V25h4.5V42.2z"/>
</svg>
