<svg id="Calque_1" data-name="Calque 1" xmlns="http://www.w3.org/2000/svg" viewBox="0 0 490 423"><defs><style>.cls-1,.cls-5{fill:none;}.cls-2{fill:#fff;}.cls-2,.cls-3,.cls-4{fill-rule:evenodd;}.cls-3{fill:#809cc9;}.cls-4{fill:#999;}.cls-5{stroke:#809cc9;stroke-linejoin:round;stroke-width:4px;}</style></defs><g id="cvfa"><rect class="cls-1" width="490" height="423"/></g><path class="cls-2" d="M250,462H5V39H495V462Z" transform="translate(-5 -39)"/><rect class="cls-1" width="490" height="423.03"/><path class="cls-3" d="M5,39V168.2q99.3-41.5,266-83.7Q378,57.6,477.6,39Zm316.6,61.5Q234,122.6,180.8,145.4t-49.9,36.3c2.1,8.2,16.9,11.9,44.8,11.1,14.2-.3,37.4-1.8,69.6-4.7s73.6-6.9,124.4-12.3,91.9-8.9,125.3-10.9V66.7Q398.1,81.1,321.6,100.5ZM292.4,233.8q-37.9,2.8-94.1,8.7Q111,252,53.3,256.7c-18.4,1.5-34.4,2.6-48.3,3.4V364.9Q119.5,348,211.8,324.7q90.8-22.8,139.8-44.4t45.3-36.4c-2.1-8.6-17.3-12.9-45.3-13.1Q330.2,231,292.4,233.8ZM495,267.7Q394.3,307.3,245.3,345,106.4,380,5,395.5v.9H495Z" transform="translate(-5 -39)"/><path class="cls-2" d="M26.1,289.5a4.5,4.5,0,0,1,3.3,1.4,4.9,4.9,0,0,1,1.4,3.4,4.8,4.8,0,0,1-4.8,4.8,4.8,4.8,0,0,1-4.8-4.8,4.8,4.8,0,0,1,4.9-4.8Zm3.3,32.3a4.8,4.8,0,0,1,0,6.8A4.9,4.9,0,0,1,26,330a6.5,6.5,0,0,1-1.9-.4,4.9,4.9,0,0,1-1.5-1,4.4,4.4,0,0,1-1-1.6,3.7,3.7,0,0,1-.4-1.8,4.8,4.8,0,0,1,4.9-4.8A4.2,4.2,0,0,1,29.4,321.8Z" transform="translate(-5 -39)"/><path class="cls-2" d="M42.7,289.5a4.5,4.5,0,0,1,3.3,1.4,4.9,4.9,0,0,1,1.4,3.4,4.8,4.8,0,0,1-8.2,3.4,4.5,4.5,0,0,1-1.4-3.4,4.2,4.2,0,0,1,1.4-3.4A4.5,4.5,0,0,1,42.7,289.5ZM46,321.8a4.8,4.8,0,0,1,0,6.8,4.9,4.9,0,0,1-3.4,1.4,5.8,5.8,0,0,1-1.9-.4,4,4,0,0,1-1.5-1,4.4,4.4,0,0,1-1-1.6,3.7,3.7,0,0,1-.4-1.8,4.2,4.2,0,0,1,1.4-3.4,4.5,4.5,0,0,1,3.5-1.4A4.2,4.2,0,0,1,46,321.8Z" transform="translate(-5 -39)"/><path class="cls-3" d="M32.4,438.7a10.4,10.4,0,0,1-4.5,3.7,18.1,18.1,0,0,1-6.9,1.3,15.7,15.7,0,0,1-7.9-1.8,11,11,0,0,1-3.6-3.5,7.6,7.6,0,0,1-1.4-4.3,2.6,2.6,0,0,1,.8-2,2.8,2.8,0,0,1,3.9-.2,4.3,4.3,0,0,1,1.2,2,12.6,12.6,0,0,0,1.4,2.6,4.9,4.9,0,0,0,2,1.7,7.8,7.8,0,0,0,3.4.7,7.8,7.8,0,0,0,4.8-1.4,4.1,4.1,0,0,0,1.8-3.4,3.3,3.3,0,0,0-1-2.6,6.3,6.3,0,0,0-2.5-1.6l-4.2-1.1a29.3,29.3,0,0,1-5.9-1.9,8.5,8.5,0,0,1-3.7-3,7.3,7.3,0,0,1-1.4-4.7,8.7,8.7,0,0,1,1.4-4.8,10.2,10.2,0,0,1,4.3-3.2,16.1,16.1,0,0,1,6.5-1.1,19.8,19.8,0,0,1,5.2.7,12.5,12.5,0,0,1,3.6,2,7.1,7.1,0,0,1,2.1,2.6,6.8,6.8,0,0,1,.7,2.6,3.3,3.3,0,0,1-.9,2.2,2.5,2.5,0,0,1-2,.9,2.1,2.1,0,0,1-1.7-.6,7.6,7.6,0,0,1-1.3-1.8,9.4,9.4,0,0,0-2.1-2.9,6.4,6.4,0,0,0-4-1,6.9,6.9,0,0,0-4.2,1.1,3.2,3.2,0,0,0-1.5,2.7,3.4,3.4,0,0,0,.5,1.7,6.1,6.1,0,0,0,1.5,1.2l1.9.8,3.1.8a49.9,49.9,0,0,1,5,1.5,16.8,16.8,0,0,1,3.8,1.8,9.2,9.2,0,0,1,2.4,2.8,9.3,9.3,0,0,1,.9,4.2A9.6,9.6,0,0,1,32.4,438.7Z" transform="translate(-5 -39)"/><path class="cls-3" d="M60,414.1a4.5,4.5,0,0,1,.9-3,2.9,2.9,0,0,1,2.3-1,3,3,0,0,1,2.5,1,4.5,4.5,0,0,1,.9,3v16a15.6,15.6,0,0,0,.6,4.6,5.4,5.4,0,0,0,2.1,2.8,7.8,7.8,0,0,0,4.3,1c2.6,0,4.4-.7,5.5-2a10.8,10.8,0,0,0,1.6-6.3V414.1a4.7,4.7,0,0,1,.8-3,3.1,3.1,0,0,1,2.4-1,3,3,0,0,1,2.4,1,3.8,3.8,0,0,1,1,3v15.6a22.7,22.7,0,0,1-.8,6.4,9.8,9.8,0,0,1-2.8,4.5,12,12,0,0,1-4.1,2.4,22.3,22.3,0,0,1-5.5.7,23.8,23.8,0,0,1-6.4-.8,11.1,11.1,0,0,1-4.4-2.5,9.1,9.1,0,0,1-2.5-4.4,19.7,19.7,0,0,1-.8-6.3Z" transform="translate(-5 -39)"/><path class="cls-3" d="M118.7,443.1a3.4,3.4,0,0,1-4-4V414.7a3.9,3.9,0,0,1,1-3.1,4.1,4.1,0,0,1,3-.9h10.6a24.2,24.2,0,0,1,4,.2,10.4,10.4,0,0,1,3.1,1.1,11.2,11.2,0,0,1,2,1.8,5.3,5.3,0,0,1,1.3,2.3,5.9,5.9,0,0,1,.5,2.7c0,3.3-1.6,5.6-4.9,7.1,4.3,1.4,6.4,4,6.4,8a9.2,9.2,0,0,1-1.3,4.9,8.4,8.4,0,0,1-3.8,3.2,15.3,15.3,0,0,1-3.4.9l-4.6.2Zm2.6-27.5V424h6.1a12.5,12.5,0,0,0,3.8-.5,3.5,3.5,0,0,0,2-1.8,3.7,3.7,0,0,0,.6-2.1,3.1,3.1,0,0,0-1.8-3.2c-1.1-.6-2.9-.8-5.3-.8Zm0,13.1v9.5h7.1c4.5,0,6.7-1.6,6.7-4.8a3.8,3.8,0,0,0-1.8-3.6c-1.1-.8-2.8-1.1-5.1-1.1Z" transform="translate(-5 -39)"/><path class="cls-4" d="M180,436.2l7.4-22c.4-1.1.6-1.9.8-2.3a3.1,3.1,0,0,1,1-1.3,3,3,0,0,1,1.8-.5,2.9,2.9,0,0,1,1.6.4,5.7,5.7,0,0,1,1.1,1.1,2.8,2.8,0,0,1,.4,1.5c0,.3-.1.6-.1,1a3.6,3.6,0,0,1-.4,1.1,4.9,4.9,0,0,1-.4,1.1l-7.8,21.2-.8,2.4c-.3.7-.7,1.3-1,1.9a6.7,6.7,0,0,1-1.5,1.4,5.1,5.1,0,0,1-2.2.5,5.2,5.2,0,0,1-2.3-.5,5,5,0,0,1-1.5-1.4,11.4,11.4,0,0,1-1-1.9c-.3-.8-.5-1.5-.8-2.4l-7.7-21a7.6,7.6,0,0,1-.4-1.1,5.6,5.6,0,0,1-.4-1.2,4.9,4.9,0,0,1-.1-1.1,2.9,2.9,0,0,1,.9-2.1,2.9,2.9,0,0,1,2.2-.9,2.5,2.5,0,0,1,2.4,1,13,13,0,0,1,1.5,3.3Z" transform="translate(-5 -39)"/><path class="cls-4" d="M226.1,415.7v8h13.7a2.9,2.9,0,0,1,2.2.7,2.2,2.2,0,0,1,.8,1.8,2.5,2.5,0,0,1-.8,1.8,3.4,3.4,0,0,1-2.2.7H226.1V438h15.3a3.3,3.3,0,0,1,2.4.7,2.6,2.6,0,0,1,.8,1.9,2.3,2.3,0,0,1-.8,1.8,3.3,3.3,0,0,1-2.4.7H223.6a4.3,4.3,0,0,1-3.1-.9,4.1,4.1,0,0,1-1-3.1V414.7a6.8,6.8,0,0,1,.4-2.3,2.7,2.7,0,0,1,1.3-1.3,5.7,5.7,0,0,1,2.4-.4h17.3a3.8,3.8,0,0,1,2.4.6,2.4,2.4,0,0,1,.7,1.8,2.5,2.5,0,0,1-.7,1.9,3.3,3.3,0,0,1-2.4.7Z" transform="translate(-5 -39)"/><path class="cls-4" d="M276.7,429.2v10.5a4.1,4.1,0,0,1-.9,3,3.4,3.4,0,0,1-4.8,0,4.5,4.5,0,0,1-.9-3v-25a4.4,4.4,0,0,1,1-3.1,4.3,4.3,0,0,1,3.1-.9h14.5a11.5,11.5,0,0,1,2.8.8,8,8,0,0,1,2.7,1.8,8.4,8.4,0,0,1,1.8,2.8,9.7,9.7,0,0,1,.6,3.4,8.1,8.1,0,0,1-2.1,5.8,11.7,11.7,0,0,1-6.2,3.1,11.9,11.9,0,0,1,3.4,2.7,27.6,27.6,0,0,1,2.8,3.9c.8,1.4,1.5,2.6,2,3.7a7.7,7.7,0,0,1,.6,2.3,2.7,2.7,0,0,1-.3,1.2,2.3,2.3,0,0,1-1.2,1,2.7,2.7,0,0,1-1.6.4,3.8,3.8,0,0,1-1.9-.5,8,8,0,0,1-1.3-1.3l-1.4-2.4-2.7-4.4a29,29,0,0,0-2.5-3.7,6,6,0,0,0-2.3-1.7,7.6,7.6,0,0,0-2.9-.5Zm0-13.6v9h5.9a15,15,0,0,0,4-.5,3.8,3.8,0,0,0,3.3-4.1,4,4,0,0,0-.7-2.4,4.3,4.3,0,0,0-1.9-1.6,14.5,14.5,0,0,0-4.5-.4Z" transform="translate(-5 -39)"/><path class="cls-4" d="M346.4,438.7a10.1,10.1,0,0,1-4.4,3.7,18.4,18.4,0,0,1-6.9,1.3,15.8,15.8,0,0,1-8-1.8,11,11,0,0,1-3.6-3.5,8.4,8.4,0,0,1-1.4-4.3,2.7,2.7,0,0,1,.9-2,2.6,2.6,0,0,1,2.1-.9,2.9,2.9,0,0,1,1.8.7,7,7,0,0,1,1.2,2,12.6,12.6,0,0,0,1.3,2.6,6,6,0,0,0,2.1,1.7,7.8,7.8,0,0,0,3.4.7,8.3,8.3,0,0,0,4.8-1.4,4.1,4.1,0,0,0,1.8-3.4,3.6,3.6,0,0,0-1-2.6,6.8,6.8,0,0,0-2.6-1.6l-4.2-1.1a30.3,30.3,0,0,1-5.8-1.9,9.4,9.4,0,0,1-3.8-3,7.9,7.9,0,0,1-1.4-4.7,8.1,8.1,0,0,1,1.5-4.8,9.8,9.8,0,0,1,4.2-3.2,16.6,16.6,0,0,1,6.6-1.1,18.5,18.5,0,0,1,5.1.7,10.3,10.3,0,0,1,3.6,2,8.7,8.7,0,0,1,2.2,2.6,6.5,6.5,0,0,1,.6,2.6,3.7,3.7,0,0,1-.8,2.2,2.9,2.9,0,0,1-2.1.9,2.4,2.4,0,0,1-1.7-.6,7.6,7.6,0,0,1-1.3-1.8,7,7,0,0,0-2.1-2.9c-.8-.7-2.1-1-4-1a6.6,6.6,0,0,0-4.1,1.1,3.3,3.3,0,0,0-1.6,2.7,2.7,2.7,0,0,0,.6,1.7,4.2,4.2,0,0,0,1.4,1.2l1.9.8,3.2.8a41.1,41.1,0,0,1,4.9,1.5,14.9,14.9,0,0,1,3.8,1.8,7.1,7.1,0,0,1,2.4,2.8,9.3,9.3,0,0,1,.9,4.2A9.6,9.6,0,0,1,346.4,438.7Z" transform="translate(-5 -39)"/><path class="cls-4" d="M374.2,414.1a4.5,4.5,0,0,1,.9-3,3.1,3.1,0,0,1,2.4-1,3,3,0,0,1,2.4,1,4.1,4.1,0,0,1,.9,3v25.6a4.5,4.5,0,0,1-.9,3,3,3,0,0,1-2.4,1,3.3,3.3,0,0,1-2.4-1,4.5,4.5,0,0,1-.9-3Z" transform="translate(-5 -39)"/><path class="cls-4" d="M431.5,412.2A13.4,13.4,0,0,1,437,418a18.7,18.7,0,0,1,1.9,8.8,21.2,21.2,0,0,1-1.1,6.9,14.6,14.6,0,0,1-3,5.3,13.7,13.7,0,0,1-5,3.5,17.9,17.9,0,0,1-6.8,1.2,18.3,18.3,0,0,1-6.8-1.2,14.1,14.1,0,0,1-5-3.5,14.4,14.4,0,0,1-3.1-5.4,21.1,21.1,0,0,1-1-6.8,21.7,21.7,0,0,1,1.1-6.9,14,14,0,0,1,3.1-5.3,11.8,11.8,0,0,1,4.9-3.3,17.8,17.8,0,0,1,6.7-1.2A16.9,16.9,0,0,1,431.5,412.2Zm-.4,8.4a8.8,8.8,0,0,0-3.3-4,9.2,9.2,0,0,0-4.9-1.3,9,9,0,0,0-3.7.7,7.4,7.4,0,0,0-2.8,2.2,8.8,8.8,0,0,0-1.9,3.6,15.5,15.5,0,0,0-.7,5,15.9,15.9,0,0,0,.7,5,10.4,10.4,0,0,0,1.9,3.8,8.9,8.9,0,0,0,3,2.2,8,8,0,0,0,3.6.7,9.3,9.3,0,0,0,4.6-1.2,9.7,9.7,0,0,0,3.4-4,15.4,15.4,0,0,0,1.2-6.5A16.4,16.4,0,0,0,431.1,420.6Z" transform="translate(-5 -39)"/><path class="cls-4" d="M486.2,433.2V413.9a4.8,4.8,0,0,1,.8-2.9,2.9,2.9,0,0,1,2.2-.9,2.8,2.8,0,0,1,2.2.9,4.2,4.2,0,0,1,.8,2.9v25.5c0,2.9-1.1,4.3-3.5,4.3a4.1,4.1,0,0,1-1.6-.3,2.6,2.6,0,0,1-1.3-.8,7.7,7.7,0,0,1-1.2-1.3l-1-1.5-12.4-18.9v19a3.8,3.8,0,0,1-.9,2.8,2.7,2.7,0,0,1-2.2,1,2.6,2.6,0,0,1-2.2-1,3.8,3.8,0,0,1-.9-2.8v-25a6.5,6.5,0,0,1,.4-2.6,3.5,3.5,0,0,1,1.4-1.6,3.7,3.7,0,0,1,2.1-.6,3.3,3.3,0,0,1,1.5.3,2.8,2.8,0,0,1,1.1.8l1,1.2,1,1.6Z" transform="translate(-5 -39)"/><path class="cls-5" d="M5,459.7H495" transform="translate(-5 -39)"/><rect class="cls-1" width="490" height="423"/></svg>