<svg id="Calque_1" data-name="Calque 1" xmlns="http://www.w3.org/2000/svg" viewBox="0 0 490 490"><path d="M250,5C114.7,5,5,114.7,5,250S114.7,495,250,495,495,385.3,495,250,385.3,5,250,5ZM208.9,263.4,77.4,318.2c0-16-.6-30.4.5-44.6.3-3.5,5.8-7.8,9.9-9.4,27.5-11.1,55.3-21.6,86-33.5-31.3-12-58.9-22.8-86.8-33.1-7.4-2.7-10.2-6.4-9.8-14.4.7-12.6.2-25.4.2-39.9L132.1,166c31.4,13,62.7,26.1,94.3,38.8,7.5,3,10.9,6.6,10.9,15.3C237.2,251.5,237.6,251.5,208.9,263.4Zm36.6,75.8v-52H426v52Z" transform="translate(-5 -5)"/></svg>