<svg xmlns="http://www.w3.org/2000/svg" viewBox="0 0 123.96 123.88"><defs><style>.a{fill:#dcc40e;}.b{fill:#262625;}.c{fill:#272725;}.d{fill:#dfc70d;}</style></defs><path class="a" d="M64.16,123.59C35.17,127-1.37,99.71,0,61l64.33-.46Z"/><path class="b" d="M64.37,60.53,0,61C-.88,26.79,30.27-2.72,64.2.2q0,30.21,0,60.43Z"/><path class="c" d="M64.16,123.59l.21-63.06-.12.1,59.58.26c-.16,5.17.71,10.64-.66,15.48-6.9,24.37-22.68,40.16-47.38,46.48C72.1,123.79,68.05,123.37,64.16,123.59Z"/><path class="d" d="M123.83,60.89l-59.58-.26q0-30.21,0-60.43C96.56-.6,124.28,27.6,123.83,60.89Z"/></svg>