<svg id="Calque_1" data-name="Calque 1" xmlns="http://www.w3.org/2000/svg" viewBox="0 0 488 268.6"><defs><style>.cls-1{fill:#952781;}.cls-2{fill:#6483c0;}.cls-3{fill:#d87b30;}.cls-4{fill:#e0d400;}</style></defs><path d="M294.2,320.9V240.7l103.2,49.1v86.8L294.2,320.9" transform="translate(-6 -116.2)"/><path class="cls-1" d="M302.4,314.4V250.5l91.7,44.2v68.8l-91.7-49.1" transform="translate(-6 -116.2)"/><path d="M294.2,240.7l98.3-42.6,99.9,47.5-90.1,47.5L294.2,240.7" transform="translate(-6 -116.2)"/><path class="cls-1" d="M310.6,242.3l80.2-34.4L476,247.2l-77,39.3-88.4-44.2" transform="translate(-6 -116.2)"/><path d="M395.7,291.4l1.7,85.2L494,329.1l-1.6-83.5-96.7,45.9" transform="translate(-6 -116.2)"/><path class="cls-1" d="M405.6,294.7v68.8l78.6-39.3V253.8l-78.6,40.9" transform="translate(-6 -116.2)"/><path d="M146.8,237.4V157.2L250,206.3v86.8L146.8,237.4" transform="translate(-6 -116.2)"/><path class="cls-2" d="M155,230.9V167l91.7,44.2v70.4L155,230.8" transform="translate(-6 -116.2)"/><path d="M146.8,157.2l98.3-41L345,162.1l-90.1,47.5L146.8,157.2" transform="translate(-6 -116.2)"/><path class="cls-2" d="M163.2,158.8l80.2-34.4,85.2,39.3-77,39.3-88.4-44.2" transform="translate(-6 -116.2)"/><path d="M248.4,207.9l1.6,85.2,96.6-47.5L345,162.1l-96.7,45.8" transform="translate(-6 -116.2)"/><path class="cls-2" d="M258.2,211.2V280l78.6-39.3V171.9l-78.6,39.3" transform="translate(-6 -116.2)"/><path d="M6,316V235.8l101.5,49.1,1.7,86.8L6,316" transform="translate(-6 -116.2)"/><path class="cls-3" d="M14.2,309.5V245.6l91.7,44.2v68.8L14.2,309.5" transform="translate(-6 -116.2)"/><path d="M6,235.8l98.3-42.6,99.8,47.5-91.7,47.5L6,235.8" transform="translate(-6 -116.2)"/><path class="cls-3" d="M20.7,237.4,102.6,203l85.2,39.3-77,39.3L20.7,237.4" transform="translate(-6 -116.2)"/><path d="M107.5,286.5l1.7,85.2,96.6-47.5-1.7-83.5-96.6,45.8" transform="translate(-6 -116.2)"/><path class="cls-3" d="M115.7,289.8l1.7,68.8L196,319.3l-1.7-70.4-78.6,40.9" transform="translate(-6 -116.2)"/><path d="M155,327.5V247.2l101.5,49.2,1.7,88.4L155,327.5" transform="translate(-6 -116.2)"/><path class="cls-4" d="M163.2,322.6V257.1l91.7,44.2v70.4l-91.7-49.1" transform="translate(-6 -116.2)"/><path d="M155,247.2l98.3-40.9,99.9,45.8-91.7,47.5L155,247.2" transform="translate(-6 -116.2)"/><path class="cls-4" d="M169.8,250.5l81.8-34.4,85.2,39.3-78.6,37.7-88.4-42.6" transform="translate(-6 -116.2)"/><path d="M256.5,298l1.7,86.8,95-49.1V252.1L256.6,298" transform="translate(-6 -116.2)"/><path class="cls-4" d="M264.7,301.3l1.7,68.7L345,332.4,343.3,262l-78.6,39.3" transform="translate(-6 -116.2)"/><path class="cls-4" d="M6,116.2" transform="translate(-6 -116.2)"/></svg>