<svg xmlns="http://www.w3.org/2000/svg" viewBox="0 0 474 474"><g id="Base"><path d="M250,37a213.1,213.1,0,0,1,82.9,409.3A213.1,213.1,0,0,1,167.1,53.7,211.3,211.3,0,0,1,250,37m0-24C119.1,13,13,119.1,13,250S119.1,487,250,487,487,380.9,487,250,380.9,13,250,13Z" transform="translate(-13 -13)"/></g><g id="Content"><path d="M167.9,70c2.9,1.3,5,3.2,5.5,6.7,2.7-4.5,5.4-5.9,8.9-4.7s4.8,3.7,4.5,9.1l1.8.5a6,6,0,0,1,3.5,7.3,6,6,0,0,1-7.2,3.9,4.5,4.5,0,0,0-2.8.2,20.4,20.4,0,0,1-5.2.5,5.8,5.8,0,0,1-5.6,4.8c-2.8.1-4.6-1.5-5.8-4.1-3.5,1.7-6.6,1.3-8.9-2.2-1.9,3-4.3,4.6-7.8,3.5a6,6,0,0,1-4.3-5.5c-.1-3.2,1.6-5.3,4.6-6.4-1-6.4,3.4-11.1,9.7-9.4l5.6-4.2Z" transform="translate(-13 -13)"/><path d="M323.5,174.9a36.3,36.3,0,1,1,36.2-36.3A36.3,36.3,0,0,1,323.5,174.9Z" transform="translate(-13 -13)"/><path d="M329.6,198.8c-4.4,1-8,1.2-11.8.2a11,11,0,0,0,5.2,1.2A13.7,13.7,0,0,0,329.6,198.8Z" transform="translate(-13 -13)"/><path d="M319.7,420.6V306.2h7.5v2.2c0,29.6.4,80,.4,109.6l39.5-20.8q-.2-91.9-.1-183.8v-2.5h.7c1.4,4.1,2.9,8.2,4.1,12.3,4.6,16.8,6.1,34.1,6.2,51.4.1,12-.4,24.1-.7,36.1-.1,3.6.5,6.9,2.7,9.7a13,13,0,0,0,14.1,4.4c5.4-1.7,8.7-6.4,9-12.7a442.2,442.2,0,0,0,.1-54,204.7,204.7,0,0,0-5.6-38.2c-2.9-11.5-6.9-22.6-14.2-32.2s-18.6-16.9-32.7-16.6c-19,.4-37.9.1-56.9.1a56.5,56.5,0,0,1-15.3-2.1c-13.7-3.9-25.2-11.5-35.4-21.2s-17.2-19.4-24-30.6a13.3,13.3,0,0,0-10-6.7h-3.6c0-2.4.1-4.5,0-6.7s-2.3-6.3-5.5-6.7-8.2-.6-12.4-.6a31.4,31.4,0,0,0-6.8.7,5.3,5.3,0,0,0-2.6,1.3c-2.5,2.8-5.7,4.3-9.1,3s-7.1-3.1-11-3.6c-.3,0-.5-.3-.7-.3s-.9-.2-1.1,0a10.5,10.5,0,0,1-8.1,1.5c-.3,2.1-.5,4.1-.7,6-1.2,12.3-2.4,24.7-3.7,37-.3,2.7.4,4,2.9,4.8a13.4,13.4,0,0,0,3.5.5h37a12,12,0,0,0,4.2-.8,3.2,3.2,0,0,0,2.2-3.9c-.4-2.7-.6-5.4-.8-8.4a28,28,0,0,0,4.1,0c1.9-.3,2.8.6,3.8,2a159.8,159.8,0,0,0,27.6,33.2c14.2,12.7,30.3,22,49.1,25.8,2,.4,2.5,1.1,2.5,3,0,73.9.9,158.9.9,232.8M160.5,137.2c0,2.2-1,3.4-2.7,3.4s-2.7-1.2-2.7-3.3V110.7c0-2.1,1.1-3.4,2.8-3.3s2.6,1.3,2.6,3.4v26.4Zm10.9-.1c0,2.3-1,3.5-2.8,3.5s-2.6-1.2-2.6-3.6V111c0-2.3.9-3.6,2.6-3.6s2.8,1.2,2.8,3.5Zm8.1,3.5c-1.7,0-2.6-1.1-2.6-3.4V110.8c0-2.2,1-3.5,2.7-3.4s2.6,1.2,2.6,3.4v26.4C182.2,139.5,181.2,140.6,179.5,140.6Zm21.3-29.1a1.9,1.9,0,0,1-.7,1.4c-5.2,4.9-6.4,9.2-4.1,15.8a1.5,1.5,0,0,1,.1.7h-3.8c-1-9.2-1.9-18.4-2.9-27.8h9a2.2,2.2,0,0,1,2.4,2.5C200.9,106.5,200.9,109,200.8,111.5ZM337,271.1c-4.6,5.6-8.9,11.2-13.5,17-.6-.7-1.2-1.3-1.7-2-4.2-5.2-8.4-10.5-12.5-15.8a5.2,5.2,0,0,1-.9-3.2c2.5-18.7,5.1-37.5,7.6-56.2.3-2.2.6-9.6.9-12.1l.9.2a10.9,10.9,0,0,1-2.3-1.4,3.2,3.2,0,0,1-.9-2.4c.7-3.2,1.5-6.5,2.4-9.7a2.5,2.5,0,0,1,1.6-1.2c3.2-.1,6.5-.1,9.7,0a2.2,2.2,0,0,1,1.5,1.3c1,3.2,1.8,6.4,2.5,9.7a3,3,0,0,1-.8,2.2l-1.9,1.3h.3c.5,3.8,1,12.4,1.5,15.9,2.3,17.1,4.6,34.1,7,51.2A6.1,6.1,0,0,1,337,271.1Z" transform="translate(-13 -13)"/><line x1="309.4" y1="412.8" x2="363.9" y2="412.8"/><path d="M129.2,186.9h4.7c8.1,2.7,9.9,9.1,9.1,16.7h11.9c-.7-7.8,1.1-14,9.1-16.7h4.6c8,2.7,9.8,9,9,16.7h12c-.8-7.8,1-14,9.1-16.7h4.7c8,2.8,9.7,9.2,8.8,16.9h3.9c11.4.1,19.2,7.6,19.2,19,.1,34,.1,67.9,0,101.9a18.1,18.1,0,0,1-18.4,18.5H114.4c-10.5-.1-18.5-7.9-18.5-18.4q-.2-51.2,0-102.2c.1-11.2,8-18.7,19.1-18.8h5.4C119.4,195.8,121.4,189.7,129.2,186.9Zm95.5,43.9H106.6v91.7c0,7.6,2.3,10,10,10h98.1c7.6,0,10-2.4,10-10V230.8Zm-28.8-21.5c0,3.3,0,6.7.1,10s1.9,5.6,4.8,5.7,5.1-2.2,5.1-5.7c.1-6.7.1-13.5.1-20.3-.1-3.3-2-5.5-4.9-5.7s-5,2.1-5.1,5.7S196,205.9,195.9,209.3Zm-59.3-.1v-9.9c-.1-3.7-1.9-5.9-4.9-6s-5,2.2-5.1,5.8v20.3c0,3.2,2.1,5.5,4.9,5.6s5-2.1,5-5.4S136.6,212.7,136.6,209.2Zm34.7.1h0c0-3.5.1-7.1-.1-10.6s-2.3-5.5-5.1-5.4a5.1,5.1,0,0,0-4.8,5.4c-.1,6.8-.1,13.7,0,20.6,0,3.6,2.1,5.7,5.1,5.7s4.9-2.4,4.9-6Z" transform="translate(-13 -13)"/><path d="M142.8,249.8h19.3v17.1H142.8Z" transform="translate(-13 -13)"/><path d="M169.2,249.7h19.2v17.1H169.2Z" transform="translate(-13 -13)"/><path d="M162.2,273.3v17H142.9v-17Z" transform="translate(-13 -13)"/><path d="M169.2,273.2h19.3v17.1H169.2Z" transform="translate(-13 -13)"/><path d="M142.8,296.5H162v17.2H142.8Z" transform="translate(-13 -13)"/><path d="M169.1,296.5h19.3v17.1H169.1Z" transform="translate(-13 -13)"/><path d="M135.8,249.8v17.1H116.6V249.8Z" transform="translate(-13 -13)"/><path d="M214.7,249.8v17.1H195.5V249.8Z" transform="translate(-13 -13)"/><path d="M116.6,273.1h19.1v17.2H116.6Z" transform="translate(-13 -13)"/><path d="M214.7,273.3v16.9H195.5V273.3Z" transform="translate(-13 -13)"/><path d="M135.8,313.7H116.6V296.6h19.2Z" transform="translate(-13 -13)"/><path d="M214.7,296.6v17.1H195.5V296.6Z" transform="translate(-13 -13)"/></g></svg>