<svg xmlns="http://www.w3.org/2000/svg" viewBox="0 0 474 474"><g id="Base"><path d="M250,37a213.1,213.1,0,0,1,82.9,409.3A213.1,213.1,0,0,1,167.1,53.7,211.3,211.3,0,0,1,250,37m0-24C119.1,13,13,119.1,13,250S119.1,487,250,487,487,380.9,487,250,380.9,13,250,13Z" transform="translate(-13 -13)"/></g><g id="Content"><path d="M76.5,297.7a41.9,41.9,0,0,1,5.1-14.1c1.5-2.8,3.4-5.4,5.1-8.1,24-35.9,47.9-72,72-107.9,6.8-10.2,16.3-17,28.6-19.3a34.1,34.1,0,0,1,19.7,1.9c3.7,1.4,4.7,4.7,2.5,8.1l-18.3,27.5-1.9,3,108.4,13.7-2.7,9.7-13.4-1.7-38.7-4.8-35.8-4.6-22.8-2.9c-1.2-.2-1.7.4-2.2,1.2-17.9,27-35.9,53.9-53.8,81-2.1,3.2-4.8,4-8.4,2.3-8-3.9-16.2-3.6-23.7,1.1-14.5,8.8-11.3,27.2.4,34.6a25.4,25.4,0,0,0,10.7,3.4l32.7,4.9,39.1,5.8,45.5,6.8,36.5,5.4,1.9.4-2.2.9c-4.5,2-9.1,4.1-13.7,6a4.8,4.8,0,0,1-2.4.3l-45.2-6.7-43.1-6.4-43.2-6.4c-5.4-.8-10.9-1-16.1-3.1-11.7-4.7-18.5-13.4-20.3-25.9l-.3-1.1Z" transform="translate(-13 -13)"/><path d="M338.3,89.5c2.8,1.2,4,3.4,3.8,6.5a33.8,33.8,0,0,0-.1,4.5l4,1.6a20.3,20.3,0,0,1,2.6,34.8,1.8,1.8,0,0,0-1,2.3c2.8,9.8,5.5,19.6,8.3,29.4a7.6,7.6,0,0,0,.4,1.1h4.4a5,5,0,0,1,5.2,5,5.2,5.2,0,0,1-5.2,5H359c.8,2.8,1.5,5.5,2.3,8.2,3.2,11.6,6.5,23.2,9.8,34.9.7,2.8-.1,5.1-2.3,6.3s-6.3.1-7.3-3.3c-1.7-6.1-3.4-12.1-5-18.1L349,181.1c-.1-.5-.3-.9-.4-1.4H326.4c-.4,0-1,.9-1.1,1.5-2.9,10.2-5.8,20.4-8.6,30.7-1.3,4.7-2.7,9.5-4.1,14.3a4.9,4.9,0,0,1-4.9,3.5,4.7,4.7,0,0,1-4.6-4,8.7,8.7,0,0,1,.2-3.2l11.4-40.8c.2-.6.3-1.3.5-2.2H303.9c-3.3-.1-5.4-2.1-5.4-5s2.1-5,5.4-5h13c.8,0,1.3-.2,1.5-1.1,2.9-10.2,5.7-20.5,8.6-30.8-7.2-4.8-10.8-11.4-9.6-20.1s6.3-14.1,14.6-16.9c0-1.5.1-3.1,0-4.7s.9-5.2,3.8-6.4Zm-1.2,40.2a10,10,0,1,0-10.1-10A10,10,0,0,0,337.1,129.7Zm8.5,38.7c-.1-.5-.1-.8-.2-1.2l-7.5-26.4a9.4,9.4,0,0,0-.9-1.2,6,6,0,0,0-.9,1.3c-1.8,6.3-3.6,12.6-5.3,18.9-.8,2.8-1.6,5.7-2.5,8.6Z" transform="translate(-13 -13)"/><path d="M224.9,242.6l-7.3-1.1c-6.4-1-12.7-1.9-19.1-2.7a1.6,1.6,0,0,0-1.4.4c-2,2.4-3.8,4.9-5.7,7.5,2,.5,4,.9,5.8,1.5a4.8,4.8,0,0,1,3.4,5.1,4.9,4.9,0,0,1-3.9,4.5h-1.5l-13.6-3c-3.2-.8-5.2-4.7-2.9-7.6,4.3-5.5,8.3-11.1,12.5-16.7a5.3,5.3,0,0,1,5.5-2.2l36.3,5.3a2.1,2.1,0,0,0,2.2-1c2.3-3.1,4.7-6.1,7.1-9.1a5.3,5.3,0,0,1,5.3-2.3l37.8,5.4,9.4,1.3a5,5,0,0,1,3.6,8l-4.7,6,18,2.6,14.1,2c4.5.7,6.2,4.9,3.4,8.5l-59.1,76.4a5.2,5.2,0,0,1-5.4,2.2l-45.4-6.4-41.1-5.9-41-5.7c-2.2-.3-4.1-1-5-3.3s-.1-3.9,1.2-5.6l14.5-18.9a5.2,5.2,0,0,1,6.1-2.3l12.3,2.8a4.9,4.9,0,0,1,3.9,6,4.6,4.6,0,0,1-5.7,3.7l-8.9-2a2.1,2.1,0,0,0-1.6.3l-7.9,10.4,11,1.7c4.9.7,9.8,1.3,14.7,2.1a2.8,2.8,0,0,0,3-1.2c16.3-21.8,32.7-43.5,49.1-65.3Zm10.6,76.8,1.2.2c7.9,1.2,15.9,2.2,23.8,3.5,2.3.3,3.9.1,5-2.1a16.4,16.4,0,0,1,2-2.6l2.7-3.5c-3.1-.8-5.9-1.3-8.7-2.1a8.3,8.3,0,0,1-3-1.8,5,5,0,0,1,4.7-8l12.2,2.8c.6.1,1.4.3,1.6.1s2.4-2.9,3.7-4.6l-9-2.1a5,5,0,1,1,2.2-9.7l12.2,2.8a2.4,2.4,0,0,0,1.7-.2c1.1-1.3,2.2-2.8,3.3-4.3l-8.6-2a9.9,9.9,0,0,1-2.8-1.2,4.8,4.8,0,0,1-1.5-6,5,5,0,0,1,6-2.7l12.2,2.9a2.6,2.6,0,0,0,1.8-.2c1.2-1.3,2.2-2.8,3.4-4.3l-9.8-2.3a5,5,0,1,1,2.2-9.7c4.3,1,8.5,1.9,12.7,3a2.1,2.1,0,0,0,2.6-.9c1.8-2.6,3.8-5,5.7-7.5l1.2-1.6-1-.2c-8.5-1.2-17-2.3-25.5-3.6a2.6,2.6,0,0,0-2.8,1.1L236.4,318Zm-49.2-7,1,.2,34.2,4.9a1.8,1.8,0,0,0,1.9-1c3.5-4.5,7-9.1,10.4-13.7l1.5-1.9-.8-.2-34.6-4.8a2.1,2.1,0,0,0-1.3.5ZM285,236.5l-13.6-1.9-21.3-2.9a2.1,2.1,0,0,0-1.6.2l-5.1,6.6,1,.2,34.4,4.8a1.8,1.8,0,0,0,1.1-.3C281.6,241.1,283.2,238.9,285,236.5ZM247.4,285l-1-.3L212.2,280a1.4,1.4,0,0,0-1.3.3c-1.7,2-3.3,4.2-5,6.4l1.4.3,33.8,4.7c.4,0,1.1-.1,1.3-.4C244.1,289.3,245.6,287.2,247.4,285Zm-29.1-14.3,13.4,1.8,21.7,3c.5.1,1.2.1,1.4-.2,1.8-2.1,3.4-4.2,5.2-6.6l-15.6-2.1-19.2-2.7c-.6,0-1.5-.1-1.7.2C221.7,266.2,220.1,268.4,218.3,270.7Zm54.1-17.9-1-.3L237,247.7a1.8,1.8,0,0,0-1.2.5l-4.8,6.2,1.1.4,33.9,4.6a1.8,1.8,0,0,0,1.5-.4C269.2,257,270.7,254.9,272.4,252.8Z" transform="translate(-13 -13)"/><path d="M395.9,305.3c-.2.6-.4,1.6-.7,2.6q-16.1,44.4-32,88.7l-3.6,9.9c-1.2,3.1-3.4,4.2-6.5,3.1l-102.6-35-4.1-1.4c-2.5-.9-3.8-2.6-3.9-4.8a5,5,0,0,1,3.4-4.9l36.3-16L388,300.8c1.7-.8,3.4-1.2,5.1-.3S395.8,302.9,395.9,305.3ZM304,362.6a5.2,5.2,0,0,0,3.8,5.2l37,12.6c3.2,1.2,5.8,0,6.9-3.3,4.3-11.5,8.4-23.2,12.6-34.8a4.9,4.9,0,0,0,.4-2.4c-.2-3.5-3.7-5.5-7.1-4.1l-17.8,8-32.3,14.3C305.4,359,304.1,360.5,304,362.6Z" transform="translate(-13 -13)"/><path d="M379.3,212.7c4.8.6,9.6,1.1,14.2,1.9a4.7,4.7,0,0,1,3.3,6.5,13,13,0,0,1-.8,1.7l-48.5,83.7a4.9,4.9,0,0,1-2.7,2.4l-11.9,5.2a2.6,2.6,0,0,1-1.6.3q26.3-45.3,52.7-91l-2.2-.3C381,219.6,380.2,216.3,379.3,212.7Z" transform="translate(-13 -13)"/><path d="M172,272.7l6.2.9c3.2.5,5,2.6,4.8,5.5a4.7,4.7,0,0,1-5.4,4.5c-5.5-.6-11-1.3-16.4-2.3a4.8,4.8,0,0,1-2.8-7.6c3.4-4.4,7-8.6,10.5-12.8a4.3,4.3,0,0,1,4.4-1.5l12,2c3.1.6,4.9,3.1,4.3,5.9s-3,4.5-6.1,4-4.9-.8-7.3-1.4a2.3,2.3,0,0,0-2.9,1.2C173,271.6,172.5,272,172,272.7Z" transform="translate(-13 -13)"/><path d="M349.6,219.1,325.3,216l2.7-9.7,11.4,1.4,6.2.8a1.8,1.8,0,0,1,1.2,1C347.8,212.6,348.6,215.7,349.6,219.1Z" transform="translate(-13 -13)"/><path d="M351,349.8l-7.2,19.8-21.2-7.3Z" transform="translate(-13 -13)"/></g></svg>