<svg xmlns="http://www.w3.org/2000/svg" viewBox="0 0 474 474"><defs><style>.cls-1{fill:none;stroke:#000;stroke-miterlimit:10;stroke-width:6px;}</style></defs><g id="Base"><path d="M250,37a213.1,213.1,0,0,1,82.9,409.3A213.1,213.1,0,0,1,167.1,53.7,211.3,211.3,0,0,1,250,37m0-24C119.1,13,13,119.1,13,250S119.1,487,250,487,487,380.9,487,250,380.9,13,250,13Z" transform="translate(-13 -13)"/></g><g id="Content"><path d="M361.4,313.5c38.6,0,69.6-10.7,73.2-25a2.6,2.6,0,0,0,.4-1.5V178.1a3.3,3.3,0,0,0-.4-1.4c-3.4-12.6-28.8-25.1-73.2-25.1s-69.7,12.5-73.1,25.1a2.4,2.4,0,0,0-.5,1.4v73.6h6.1a7.7,7.7,0,0,1-.2-1.5c0-.3.1-.6.1-.9a3.3,3.3,0,0,0-.1-1.4V226.1l.3.2,2,1.7c11.1,8.4,33.3,14.9,65.4,14.9s54.1-6.5,65.3-14.8a25.4,25.4,0,0,0,2.4-2h0v21.8a3.3,3.3,0,0,0-.1,1.4,2.8,2.8,0,0,1,.1.9,7.7,7.7,0,0,1-.2,1.5,4.2,4.2,0,0,1-.4,1,3.6,3.6,0,0,1-.4.9l-.7,1.1-.6.8-1.1,1.2-.7.7-1.6,1.2-.7.6-2.2,1.3-.6.4-2.8,1.4-.4.2-3.5,1.5c0,.1,0,.1-.1.1a117.9,117.9,0,0,1-25.2,6.4h-.1l-6,.7h-1l-5.4.5-2.6.2-4.2.2h-7.2m67.7-81.5v21.8a2.9,2.9,0,0,0-.1,1.3,3.8,3.8,0,0,1,.1,1,7.7,7.7,0,0,1-.2,1.5,4.2,4.2,0,0,1-.4,1,3.6,3.6,0,0,1-.4.9l-.7,1.1-.6.8-1.1,1.2-.7.6-1.6,1.3-.7.5-2.2,1.4-.6.3-2.8,1.5-.4.2-3.5,1.5h-.1a112.6,112.6,0,0,1-25.2,6.3h-.1l-6,.7h-1l-5.4.5-2.6.2-4.2.2H354.3l-4.2-.3h-2.6L342,236h-1l-6-.7h-.1a108.4,108.4,0,0,1-25.2-6.4h-.1l-3.5-1.5-.4-.2-2.8-1.5-.6-.3-2.1-1.4-.8-.5a9.3,9.3,0,0,1-1.5-1.3,2.7,2.7,0,0,1-.8-.7,11.4,11.4,0,0,1-1.1-1.1l-.6-.8-.7-1.1a15.5,15.5,0,0,1-.8-2,5.9,5.9,0,0,1-.2-1.4c0-.3.1-.6.1-1a2.9,2.9,0,0,0-.1-1.3V190.8l1.2.9.6.6,2.9,2,.6.4,2.8,1.6,1.1.6,3.3,1.6.6.2,4.4,1.7,1.3.4c1.2.5,2.5.8,3.7,1.2l1.5.4,5.3,1.4h.8l5.1,1,1.8.3,5.2.8,1.3.2,6.8.7h1.8l5.7.3h2.1l7.8.2,7.8-.2h2.2l5.7-.3h1.7l6.8-.7,1.4-.2,5.1-.8,1.8-.3,5.1-1h.8l5.4-1.4,1.4-.4c1.3-.4,2.5-.7,3.7-1.2l1.3-.4a44.9,44.9,0,0,0,4.4-1.7l.6-.2,3.4-1.6,1-.6,2.8-1.6.7-.4a33.9,33.9,0,0,0,2.8-2l.7-.6Zm-67.7-33.3c39.9,0,67.7,11.7,67.7,22.1s-27.8,22.1-67.7,22.1-67.7-11.7-67.7-22.1S321.5,157.5,361.4,157.5Zm0,120.7c32,0,54.1-6.5,65.3-14.8a15.9,15.9,0,0,0,2.4-2h0v24.8c0,.1-.1.2-.1.4-1.6,10.1-29.2,21-67.6,21" transform="translate(-13 -13)"/><path d="M359,293.3H171.6c-5.7,0-5.7,0-5.7,5.9V403.5c0,6.5,0,6.5,6.6,6.5H352.8c6.2,0,6.2,0,6.2-6.4V304.3c0,2.3-.1-15.6,3.3-15.6s2.4,13.3,2.4,15.6c0,23.2.3,78.6.3,101.8,0,7-2.9,9.9-10,9.9H169.8c-6.8,0-9.8-2.9-9.8-9.7q-.1-73.2,0-146.4c0-7.1,3.1-9.8,11-9.8H355c7,.1,10,3,10,10V310c0,2.3,0,4.8-3,4.8s-2.9-2.7-3-4.9Zm.3-6.3V261.9c0-6.1-.1-6.1-6.3-6.1H171.9c-1.1,0-2.4-.4-3.2.1s-2.9,1.8-2.9,2.7c-.3,9.4-.2,18.8-.2,28.4Z" transform="translate(-13 -13)"/><path d="M316.9,351.8c-8-7.9-15.3-15.2-22.7-22.4a10.5,10.5,0,0,1-2.9-11.2c1.2-3.8,4.1-6.6,8-6.7s6.8.9,8.8,2.8c10.4,9.8,20.5,20,30.4,30.2,4.2,4.3,4.2,10.1,0,14.4q-15,15.3-30.3,30.3a9.9,9.9,0,0,1-14.6-.2,10.2,10.2,0,0,1,.1-14.4C301.1,367,308.8,359.7,316.9,351.8Zm19.2-.2a26.7,26.7,0,0,0-2.8-4.1l-28-28c-2.3-2.3-4.8-3.7-7.4-1s-1.1,5.2,1.2,7.4c7.4,7.4,14.7,14.9,22.3,22.2,2.6,2.6,2.7,4.5,0,7.1-7.6,7.4-15.1,15-22.6,22.5-2.2,2.2-3.3,4.6-.9,7.1s4.9,1.6,7.1-.6l28.6-28.6A31.6,31.6,0,0,0,336.1,351.6Z" transform="translate(-13 -13)"/><path d="M208.6,351.8c7.2,7.2,14.3,14.2,21.2,21.3a16.5,16.5,0,0,1,4.2,7.2c1.1,4.2-.8,7.8-4.4,10.2a10,10,0,0,1-11.2,0,15.5,15.5,0,0,1-2.8-2.4c-9.4-9.4-18.9-18.8-28.3-28.3-5.1-5.2-5.2-10.9-.1-16.1,9.5-9.6,19-19.1,28.6-28.6,5.1-5.1,11.1-5.3,15.5-.8s3.9,10.5-1,15.6l-18.5,18.5Zm20.6-30.3c-1.4-1.5-2.3-3.5-3.6-3.8a5.9,5.9,0,0,0-5,1.1c-10,9.7-19.8,19.5-29.6,29.4-2.2,2.2-2.3,4.7-.1,6.9,9.9,9.9,19.8,19.9,29.8,29.7,1.9,1.9,4.2,2.2,6.2.2s1.9-4.3,0-6.5l-2.3-2.3c-6.9-7-13.8-14-20.8-20.8-2.8-2.7-3-4.6-.1-7.4,7.5-7.1,14.7-14.5,22-21.9A41.8,41.8,0,0,0,229.2,321.5Z" transform="translate(-13 -13)"/><path d="M281.1,321.8c-1.2,4.6-2.8,10.5-4.3,16.4-4.1,15.6-8.2,31.2-12.4,46.8-1.5,5.5-5.7,8.8-10.6,8.6s-9.8-3.7-9.7-8.7,11-46,12.4-51c.1-.7,2.8.4,3.2.8s1.8,1.3,1.7,2.4c-.4,3.1-10.5,41-11.4,44s-.3,5.3,2.8,6.3,5-.9,5.8-4c5.4-20.2,10.9-40.4,16.2-60.7.8-3,.8-5.9-2.9-6.8s-5,1.8-5.8,4.8c-2.5,9.3-5,18.7-7.4,28-.6,2.3-1.5,4.7-4.2,3.6-1-.4-1.8-3.5-1.5-5,2.4-9.9,5.1-19.8,7.9-29.6,1.6-5.8,6.3-8.6,12.1-7.6S281.2,315.3,281.1,321.8Z" transform="translate(-13 -13)"/><path d="M287.9,271.4c0,5.4-4.8,10.3-10.2,10.2a10.1,10.1,0,1,1,10.2-10.2Z" transform="translate(-13 -13)"/><path d="M315.5,271.7a10.1,10.1,0,1,1-20.1.1,10.1,10.1,0,1,1,20.1-.1Z" transform="translate(-13 -13)"/><path d="M342.6,271.7a10.4,10.4,0,0,1-10.2,10.1,10.2,10.2,0,0,1-9.9-10,10.1,10.1,0,0,1,9.7-10.1A10.3,10.3,0,0,1,342.6,271.7Z" transform="translate(-13 -13)"/><path class="cls-1" d="M163.8,378H116.1A11.3,11.3,0,0,1,105,366.9V127a11.2,11.2,0,0,1,11.1-11.2H244.9A11.2,11.2,0,0,1,256,127V255" transform="translate(-13 -13)"/><rect x="112.4" y="146.4" width="112.1" height="22.23" rx="11.1"/><rect x="112.4" y="178.8" width="112.1" height="22.23" rx="11.1"/><rect x="111.5" y="211.2" width="112.1" height="22.23" rx="11.1"/><path d="M237.9,138.3a9.7,9.7,0,0,1-9.5,9.4,9.3,9.3,0,1,1,9.5-9.4Z" transform="translate(-13 -13)"/></g></svg>