<svg xmlns="http://www.w3.org/2000/svg" viewBox="0 0 474 474"><g id="Base"><path d="M250,37a213.1,213.1,0,0,1,82.9,409.3A213.1,213.1,0,0,1,167.1,53.7,211.3,211.3,0,0,1,250,37m0-24C119.1,13,13,119.1,13,250S119.1,487,250,487,487,380.9,487,250,380.9,13,250,13Z" transform="translate(-13 -13)"/></g><g id="Content"><path d="M332.8,287.4c-.5,9.2-.1,18.2-1.7,26.8-3.4,18.5-19.4,31.1-38.3,31-41.1-.2-82.3-.7-123.4-1.1a10.6,10.6,0,0,0-8.8,3.5c-12.9,13.3-26.1,26.2-39.1,39.4-2.8,2.9-5.7,5.1-9.9,3.4s-4.4-5.6-4.4-9.5c.1-11.5,0-23,.1-34.6.1-3-.6-5-3.6-6.7-12.8-7.7-19.1-19.4-19.2-34.3q-.3-42.9-.1-86c.1-23.1,17.3-40.3,40.4-40.4h51.3v-18c.1-21.1,16.4-38.6,37.5-38.7,57.5-.4,115.1-.3,172.6-.1,20.7.1,37.4,17.3,37.7,38.2q.5,44.7-.1,89.4c-.1,13.7-6.4,24.8-18.1,32-3.9,2.4-4.8,4.9-4.7,9,.2,11.2.1,22.3.2,33.4,0,4.1-.7,7.7-4.8,9.4s-6.8-.8-9.4-3.5l-37.1-37.3C343.1,285.9,343.1,285.9,332.8,287.4ZM121.7,366.3c11.1-11.1,21.4-21,31.4-31.3a16.6,16.6,0,0,1,12.9-5.4q62.5.9,125.1,1.4c16.6.1,26.8-9.9,27-26.6.2-11.3,0-22.6,0-33.9,0-17,.2-34,0-50.9s-9.9-26.2-24.4-26.2q-85.2-.3-170.3,0c-14.2,0-24.4,10.2-24.5,24.2q-.3,44.6,0,88.9c.1,11.1,5.9,18.8,16.1,22.9,5.1,2,6.9,5.1,6.8,10.3C121.6,348.2,121.7,356.6,121.7,366.3Zm265-56.9c0-10,0-18.8-.1-27.6,0-4.7,1.7-7.6,6.3-9.4,10.8-4.1,16.6-12.1,16.6-23.8,0-29.2.1-58.4-.1-87.7,0-14.3-10.6-25-25-25H215.8c-11.7,0-22.2,7.2-24.4,18.1-1.6,7.9-1.1,16.3-1.6,24.9H291.6c23.6,0,40.7,17.1,40.7,40.5v47.5c0,1.9.2,3.7.3,5.9,3.2,0,6,.3,8.8-.1,6.2-.8,10.5,1.7,14.8,6.1C365.8,288.9,375.8,298.6,386.7,309.4Z" transform="translate(-13 -13)"/><path d="M209.5,288.7h74.1c1.7,0,4-.6,5,.3s5.4,4.6,5.6,7.2-3.2,4.9-5.6,6.5-4,.4-6.1.4H133.7c-5.9-.2-9.5-3-9.3-7.5s3.7-6.9,9.3-6.9Z" transform="translate(-13 -13)"/><path d="M209.3,216.1c25.6,0,51.3-.1,76.9.2a10.7,10.7,0,0,1,7.3,3.8c1.1,1.3,1,5.3-.3,6.6a11.8,11.8,0,0,1-7.7,3.1c-23.6.3-47.1.2-70.7.2H133.4c-6.9,0-10.3-3.8-8.5-9.1s4.8-4.7,8.6-4.7Z" transform="translate(-13 -13)"/><path d="M209.5,252.4h76.3c4,0,7,1.1,8.4,5.1a6.5,6.5,0,0,1-4.9,8.6,32.3,32.3,0,0,1-6.2.4H135.5a35.4,35.4,0,0,1-4.6-.2c-4.3-.4-6.6-3.1-6.4-7.1a6.6,6.6,0,0,1,6.9-6.7c6.8-.2,13.6-.1,20.4-.1Z" transform="translate(-13 -13)"/></g></svg>