<svg xmlns="http://www.w3.org/2000/svg" viewBox="0 0 474 474"><g id="Base"><path d="M250,37a213.1,213.1,0,0,1,82.9,409.3A213.1,213.1,0,0,1,167.1,53.7,211.3,211.3,0,0,1,250,37m0-24C119.1,13,13,119.1,13,250S119.1,487,250,487,487,380.9,487,250,380.9,13,250,13Z" transform="translate(-13 -13)"/></g><g id="Content"><path d="M345,353c-4.1,25.9-27.8,40.3-59.4,19.2-.9,13.7-8.6,21.4-21.2,24.8s-22.7-1-31-8.1c-3.8,5.3-6.9,11.2-11.4,15.5s-12,7.2-18.6,5.2-15.3-5.2-20.7-10.2c-14.2-13-27.3-27.2-40.6-41C120.6,336,99,313.7,77.9,291c-7.1-7.6-16.3-10.7-25-15.1-4.1-2.1-4.7-3.9-3.1-8.1C65.5,225,81.1,182,96.7,139.1c1-2.8,1.4-5.6,5.7-5.2,29.8,2.9,57.9-4.9,85.7-14.7,5.3-1.8,11-2.8,16.4-4.3s11.6,0,17.5,3.8l-73.8,65.4c11.4,17.9,22.9,35.3,46,38.6,13.9,2,26.8-3.1,36.1-12.6,10.8-11.1,23.8-12.7,37.5-15,7.9-1.3,12.4,1.1,17.5,6.7,30.1,32.6,60.8,64.7,91,97.2,5.1,5.5,10.1,11.8,13,18.6,4.6,10.6,4.6,21.8-4.1,30.8s-19.9,11.2-32,7.6C350.6,355.2,348,354.1,345,353Z" transform="translate(-13 -13)"/><path d="M421.1,141.9c2.3,16.5,4.7,33.8,7,51.1,3.8,27.8,7.5,55.6,11.5,83.3.9,6,.5,10.8-4,15.5s-10.8,13-16.5,20l-4.9-4.4L286.9,183.9c-2.9-2.9-5.5-3.9-9.8-3.1-11.7,2.1-23.7,3.3-35.5,5.2a19.1,19.1,0,0,0-7.9,4c-5.6,4.3-10.5,9.6-16.3,13.5-21.5,14.1-42.6,3.3-52.7-17.3,18.6-16.5,36.6-33.7,56.1-49.2,8.2-6.5,19.1-9.9,29.3-13.3,37.9-12.7,27.1-12.2,62.4-.2,12.8,4.3,25.6,8.6,38.3,13.3s26.1,6.1,39.9,5.2C400.4,141.3,410.3,141.9,421.1,141.9Z" transform="translate(-13 -13)"/></g></svg>