<svg xmlns="http://www.w3.org/2000/svg" viewBox="0 0 474 474"><g id="Base"><path d="M250,37a213.1,213.1,0,0,1,82.9,409.3A213.1,213.1,0,0,1,167.1,53.7,211.3,211.3,0,0,1,250,37m0-24C119.1,13,13,119.1,13,250S119.1,487,250,487,487,380.9,487,250,380.9,13,250,13Z" transform="translate(-13 -13)"/></g><g id="Content"><path d="M149.7,419c-2.3-1.5-3-3.8-3-6.8V397.9H133.9c-5.3,0-6.8-1.5-6.8-6.8V378.3H114.3c-6,0-6.8-1.5-6.8-6.8V110.1c-.7-6,0-7.5,6-7.5H320.7c6,0,6.8,1.5,6.8,6.8v12l.7.8H341c5.3,0,6.1,1.5,6.8,6.8v14.3h13.6c4.5,0,6,1.5,6,6V260.7c-.7,2.2-2.2,3.7-4.5,3.7s-3.8-1.5-4.5-3.7V153.1H347.8V272.2c0,3-2.2,5.3-4.5,5.3s-4.5-2.3-4.5-5.3V132H328.2V285.8a4.3,4.3,0,0,1-4.5,4.5,4.9,4.9,0,0,1-4.5-4.5V112.4H115.8V369.3H318.4V315.9a4.9,4.9,0,0,1,4.6-4.6c2.2,0,3.7,1.6,4.5,3.8v56.4c0,5.3-1.5,6.8-6.8,6.8H136.1v10.6H338.8V302.8c0-3,2.2-5.3,4.5-5.3s4.5,2.3,4.5,5.3v88.3c0,6.1-1.5,6.8-6.8,6.8H155.7v11.3H358.4V288c.7-2.3,2.2-3.8,4.5-3.8s3,1.5,4.5,3.1,0,2.2,0,3V412.2c0,3-.7,5.3-3,6.8Z" transform="translate(-13 -13)"/><path d="M130.1,174.2V132.7c0-5.2,1.5-6.8,6-6.8h58.8c5.3,0,6,1.6,6,6.8v82.1c0,5.3-1.5,6.8-6.8,6.8H135.4c-4.5,0-6-1.5-6-6C130.1,201.3,130.1,187.7,130.1,174.2Zm62.5,38.4V135.7H139.9v76.9Z" transform="translate(-13 -13)"/><path d="M259.7,125.9h37.7c5.2,0,6.7,1.6,6.7,6.8v17.4c0,4.5-1.5,6-6,6H221.3c-4.6,0-6.1-1.5-6.1-6V132c0-5.3,1.5-6.8,6.8-6.8C234.1,125.9,246.9,125.9,259.7,125.9Zm35.4,9.8H225V147h70.1Z" transform="translate(-13 -13)"/><path d="M240.9,244.2H183.6a8.1,8.1,0,0,1-5.3-2.2c-2.2-2.3-.7-6.1,3-6.8H298.1c3,0,5.3,2.2,5.3,4.5s-2.3,4.5-5.3,4.5Z" transform="translate(-13 -13)"/><path d="M240.9,279.6h59.5a3.5,3.5,0,0,1,3.7,3.8c0,2.3-.7,4.5-3.7,4.5H180.6c-2.3-.7-3.8-2.2-3.8-4.5s1.5-3.8,3.8-4.5h3Z" transform="translate(-13 -13)"/><path d="M240.9,311.3H180.6a6.3,6.3,0,0,1-3-4.5c0-1.6,1.5-3.1,3-3.8s2.2-.8,3.8-.8H289.1c3,0,5.3,2.3,5.3,4.6s-2.3,4.5-5.3,4.5Z" transform="translate(-13 -13)"/><path d="M241.6,257.8h58.8c2.2.7,3.7,2.2,3.7,4.5s-.7,3.8-3.7,4.5H181.3c-2.2-.7-3.7-2.2-3.7-4.5s1.5-4.5,4.5-4.5h59.5Z" transform="translate(-13 -13)"/><path d="M240.9,324.8h38.5a3.5,3.5,0,0,1,3.7,3.8c0,2.3-.7,3.8-3,4.5H181.3c-2.2-.7-3.7-2.2-3.7-4.5a3.5,3.5,0,0,1,3.7-3.8h59.6Z" transform="translate(-13 -13)"/><path d="M259.7,179.4H220.5c-2.2,0-4.5-.7-5.3-3s.8-6,3.8-6h80.6a4.3,4.3,0,0,1,4.5,4.5c0,3-2.2,4.5-5.2,4.5Z" transform="translate(-13 -13)"/><path d="M259.7,199H219c-2.3-.7-3.8-2.2-3.8-4.5s1.5-3,3.1-4.5,2.2-.8,3.7-.8h79.1c2.3.8,3.8,2.3,3,4.6s-1.5,3.7-3.7,4.5h-3C284.5,199,272.5,199,259.7,199Z" transform="translate(-13 -13)"/><path d="M259.7,212.6h39.2c2.2,0,3.7.7,5.2,3a4.6,4.6,0,0,1-3,6.8H222c-3,0-5.3-2.3-5.3-4.5s2.3-4.6,5.3-4.6C233.3,212.6,246.9,212.6,259.7,212.6Z" transform="translate(-13 -13)"/><path d="M147.4,333.9H136.1c-3.7,0-5.2-1.5-5.2-4.5s1.5-4.6,5.2-4.6h23.4c3.8,0,5.3,1.5,5.3,4.6s-2.3,4.5-5.3,4.5Z" transform="translate(-13 -13)"/><path d="M147.4,244.2h-12c-3,0-5.3-1.5-5.3-4.5s1.5-4.5,5.3-4.5h23.3c3.1,0,5.3,2.2,5.3,4.5s-2.2,4.5-5.3,4.5Z" transform="translate(-13 -13)"/><path d="M147.4,289.4h-12c-3,0-5.3-2.2-5.3-4.5s2.3-4.5,5.3-4.5h23.3c3.1,0,5.3,1.5,5.3,4.5s-1.5,4.5-5.3,4.5Z" transform="translate(-13 -13)"/><path d="M147.4,311.3h-12c-3,0-5.3-1.5-5.3-4.5s2.3-4.6,5.3-4.6h24.1c3,0,5.3,2.3,5.3,4.6s-1.5,4.5-5.3,4.5Z" transform="translate(-13 -13)"/><path d="M147.4,266.8H136.1c-3.7,0-5.2-1.5-5.2-4.5s2.2-4.5,5.2-4.5h22.6c3.8,0,5.3,1.5,5.3,4.5s-2.2,4.5-6,4.5Z" transform="translate(-13 -13)"/><path d="M439.7,245.7l-4.7,3-9.3,5.9-5.9-9.3L414,236l-5.9-9.3,9.2-5.9,4.7-2.9a16.5,16.5,0,0,1,17.7,27.8Zm-4.2-16.9a5.6,5.6,0,0,0-7.6-1.7l-4.6,3,5.8,9.3,4.7-3A5.6,5.6,0,0,0,435.5,228.8ZM253,344.8l26.3-36.2h0l119.5-76,5.9,9.3-119.5,76,5.9,9.3,119.5-76,5.9,9.3L297,336.5" transform="translate(-13 -13)"/></g></svg>