<svg xmlns="http://www.w3.org/2000/svg" viewBox="0 0 474 474"><defs><style>.cls-1{fill:none;stroke:#000;stroke-miterlimit:10;stroke-width:6px;}</style></defs><g id="Base"><path d="M250,37a213.1,213.1,0,0,1,82.9,409.3A213.1,213.1,0,0,1,167.1,53.7,211.3,211.3,0,0,1,250,37m0-24C119.1,13,13,119.1,13,250S119.1,487,250,487,487,380.9,487,250,380.9,13,250,13Z" transform="translate(-13 -13)"/></g><g id="Content"><path d="M262.5,197.8a8.2,8.2,0,0,0-2.7-6.4l-50.2-50.1a7.5,7.5,0,0,0-5.9-2.5h-95v-9.5H272.6v158a7.1,7.1,0,0,1,3.4-1.5,5.1,5.1,0,0,1,3.8.8V127.2c0-4.2-1-5.2-5.1-5.2H106.8c-4.5,0-5.5.9-5.5,5.4v11.5h-6c-8.1,0-11.9,3.9-11.9,12V365.8c0,7.9,3.9,11.8,11.8,11.8H218.8a5.8,5.8,0,0,1-1.9-7.2H96c-4.8,0-5.5-.7-5.5-5.6V151.5c0-4.8.7-5.5,5.6-5.5H200.9a7.4,7.4,0,0,1,5.6,2.2c15.5,15.7,31.2,31.3,46.8,46.9a6.2,6.2,0,0,1,2,4.8v96.7a17.5,17.5,0,0,1,7.1-4.8C262.4,260.5,262.4,229.1,262.5,197.8Z" transform="translate(-13 -13)"/><path d="M213.5,355.9H106V336.4H219.1a3.6,3.6,0,0,1,1.4-2.3,17.5,17.5,0,0,1,2.2-5.3H210.5V317.4H231a4.4,4.4,0,0,1,.8-1.1l4.4-6.5H210.5V298.4h30.3v6a15.1,15.1,0,0,1,7.4-4.1v-61c0-4.3-1-5.3-5.3-5.3H103.6c-4,0-5,1-5,5V358.4c0,3.8,1,4.8,4.8,4.8q55.2.2,110.4,0A22.5,22.5,0,0,1,213.5,355.9Zm-3-84V260.5h30.3v11.4Zm30.4,19H210.6V279.5h30.3Zm-30.5-48.2a2.3,2.3,0,0,1,1.5-1.5h29V253H210.4C210.4,249.5,210.3,246.1,210.4,242.7Zm-7.3,86.1H175.9V317.4h27.2ZM176,241.3h27.1V253H176Zm27,19.1v11.5H176V260.4Zm-27.1,19.1h27.2v11.4H175.9Zm0,18.9h27.2v11.3H175.9Zm-34.7-57.1h27.2v11.8H141.2Zm-.1,19.2h27.3v11.3H141.1Zm.2,37.9h27.1v11.5H141.3Zm-.1-7.4V279.5h27.1V291Zm-.2,27.8a2.6,2.6,0,0,1,1.8-1.6h23.9a2.7,2.7,0,0,1,1.8,1.5c.1,3.3.1,6.6.1,10.1H140.9C140.9,325.3,140.9,322,141,318.8Zm-35.1-77.5h27.7V253H105.9Zm.1,49.6V279.5h27.6v11.4Zm27.6,7.5v11.4H106V298.4ZM106,271.9V260.5h27.6v11.4Zm-.1,45.4h27.7v11.5H105.9Z" transform="translate(-13 -13)"/><path d="M150.3,195.9h42.3c1,0,2.2-.3,2.9.2s2.9,2,2.9,3.2-1.4,2.7-2.5,3.6-2.1.2-3.2.2H107.3c-4.2,0-5.9-1.1-5.9-3.6s1.6-3.6,5.7-3.6Z" transform="translate(-13 -13)"/><path d="M139.3,185.4H106.6a6.9,6.9,0,0,1-3.8-.9,4.3,4.3,0,0,1-1.3-3.3,5,5,0,0,1,2.3-2.7,7.6,7.6,0,0,1,3.1-.3h65.9c2.4,0,4,1,4.1,3.6s-1.6,3.6-4.3,3.6Z" transform="translate(-13 -13)"/><path d="M127.4,167.6H106.1c-3.2,0-4.7-1.1-4.7-3.4s1.6-3.7,4.9-3.7h42.5c3.2,0,4.7,1.2,4.8,3.5s-1.6,3.6-4.6,3.6Z" transform="translate(-13 -13)"/><path d="M287.3,444.8h1.3l-6.7-.7-6.7-1.2A82.5,82.5,0,0,1,225.8,410a80.8,80.8,0,0,1-15.3-41.5l-.3-3.6v-6.2l.3-3.6A83.2,83.2,0,0,1,279.2,280c3.8-.6,7.7-.8,11.6-1.1,2-.2,2.5.4,2.5,2.3q0,39.4-.1,78.7a3.8,3.8,0,0,0,1.6,3.2L355.7,412l.7.6c1,.9,1.2,1.8.2,2.8s-4.2,4.7-6.6,6.9A81.4,81.4,0,0,1,304.9,444c-2.3.4-4.6.5-6.9.8m-87.8,15,75.6-173.1c-30.4,2.6-60,26-66.7,61.1a75.4,75.4,0,0,0,46,84.1c31.4,12.7,64.1,1.9,81.9-17.2l-.4-.4-56.8-45.6a9.9,9.9,0,0,1-4-8.4V286.7Z" transform="translate(-13 -13)"/><path d="M397,359.7c-.1,20.7-5.8,37.5-16.9,52.3-1.1,1.4-1.8,1.5-3.2.4l-61-49c-1.4-1.1-1.4-2,0-3.3L374,307.7c1.2-1.1,2-1.1,3.1.2A81.7,81.7,0,0,1,396,349.2C396.6,353.4,396.8,357.6,397,359.7Zm-22.3-42.6-49.2,44.4L377.2,403C394.1,378,393.8,342.6,374.7,317.1Z" transform="translate(-13 -13)"/><path d="M306.5,298.6V260.4c0-1.8.5-2.3,2.4-2.3a81.6,81.6,0,0,1,48.9,17.8c3.1,2.4,5.9,5.2,8.8,7.9,1.2,1.2,1.2,2-.1,3.1l-56.9,51.4a1.9,1.9,0,0,1-2.1.6,1.9,1.9,0,0,1-1-2Zm7.6-32.7v58.3l43.2-39A75.3,75.3,0,0,0,314.1,265.9Z" transform="translate(-13 -13)"/><rect class="cls-1" x="279.7" y="136" width="136.6" height="86" rx="12"/><path d="M337.5,171a3.8,3.8,0,0,1,2.5.9,3,3,0,0,1,1,2.4,4.4,4.4,0,0,1-.3,1.5l-14.1,32.9a3.9,3.9,0,0,1-1.4,1.7,4.9,4.9,0,0,1-1.9.5,3.2,3.2,0,0,1-1.8-.6,3.4,3.4,0,0,1-1.3-1.6l-14.1-33a1.4,1.4,0,0,1-.2-.7c0-.2-.1-.5-.1-.7a2.9,2.9,0,0,1,1.2-2.5,4,4,0,0,1,2.3-.9,3.1,3.1,0,0,1,3.1,2.2l12.5,29.3h-2l11.5-29.4A3.1,3.1,0,0,1,337.5,171Z" transform="translate(-13 -13)"/><path d="M364.8,171.1c3.6,0,6.4.8,8.1,2.5s2.7,4.3,2.7,7.6a8.3,8.3,0,0,1-1.3,4.7,8.7,8.7,0,0,1-3.9,3.1,14.8,14.8,0,0,1-6.3,1.1l.2-2.5a15.8,15.8,0,0,1,4.1.5,12.6,12.6,0,0,1,4.4,1.7,9.7,9.7,0,0,1,4.9,9,13.5,13.5,0,0,1-1.2,6.1,9,9,0,0,1-3.2,3.7,11.6,11.6,0,0,1-4.3,1.8,22.8,22.8,0,0,1-4.4.5H350.5a3.4,3.4,0,0,1-3.5-3.5V174.5a3.1,3.1,0,0,1,1-2.4,3.3,3.3,0,0,1,2.5-1Zm-1,6.7H353.6l.8-.9v10.3l-.7-.5H364a4.8,4.8,0,0,0,2.9-1.1,3.8,3.8,0,0,0,1.3-3.2,4.5,4.5,0,0,0-1.2-3.5A4.8,4.8,0,0,0,363.8,177.8Zm.4,15.6H353.9l.5-.5v12l-.6-.5h10.8a6.1,6.1,0,0,0,4.2-1.4,5.7,5.7,0,0,0,1.5-4.2c0-1.7-.3-3-1-3.7a4.3,4.3,0,0,0-2.4-1.4Z" transform="translate(-13 -13)"/><path d="M398.9,180l-12.3,28.9a4.3,4.3,0,0,1-1.2,1.7,3.2,3.2,0,0,1-1.8.6,2.9,2.9,0,0,1-2.3-.9,2.8,2.8,0,0,1-.7-2.1,4.5,4.5,0,0,1,.1-1.1l14.2-34a3.9,3.9,0,0,1,1.4-1.7,3,3,0,0,1,2-.6,3.3,3.3,0,0,1,1.9.6,3.7,3.7,0,0,1,1.3,1.7l14,33.4a3.5,3.5,0,0,1,.3,1.3,3,3,0,0,1-1,2.5,3.3,3.3,0,0,1-2.2.9,2.8,2.8,0,0,1-1.8-.6,4.3,4.3,0,0,1-1.3-1.7l-12.3-28.6Zm-10.5,22,3.1-6.6h15.4l1,6.6Z" transform="translate(-13 -13)"/></g></svg>