<svg xmlns="http://www.w3.org/2000/svg" viewBox="0 0 474 474"><g id="Base"><path d="M250,37a213.1,213.1,0,0,1,82.9,409.3A213.1,213.1,0,0,1,167.1,53.7,211.3,211.3,0,0,1,250,37m0-24C119.1,13,13,119.1,13,250S119.1,487,250,487,487,380.9,487,250,380.9,13,250,13Z" transform="translate(-13 -13)"/></g><g id="Content"><path d="M251.5,124.8h3.6c4.5,1.3,9.2,2,13.6,3.8,12.9,5.4,25.7,11.4,38.6,17,36.4,15.6,72.8,31.1,109.2,46.8,6.7,2.9,13.2,6.5,19.7,10a16.4,16.4,0,0,1,6.8,7.2v2.6c-1.6,1.7-3,3.8-4.8,5.1s-6.3,3.8-9.6,5.6a3.5,3.5,0,0,0-2,3.6c.1,20.5.2,40.9,0,61.3-.1,4.4.9,7.6,4,10.4s6.3,6.8,9.5,10.4L412.5,340l-28.3-30.9,17.7-17.6a4.2,4.2,0,0,0,1.4-3.3c-.1-17-.1-33.9-.1-50.8v-2.2l-2.3,1L273.2,294.3c-9.8,4.4-19.8,6.6-30.3,4.8-7-1.1-13.6-3.7-20.1-6.4C182,276,141.2,259.5,101.3,240.6c-10.9-5.2-21.6-11-32.2-16.9a38.5,38.5,0,0,1-9.4-8.2c-3-3.4-2.6-7.1.3-10.6a15.5,15.5,0,0,1,3.3-3c3.3-2.1,6.6-4.5,10.2-6,16.3-6.9,32.6-13.6,48.9-20.3L230.8,131a151.4,151.4,0,0,1,14.8-5A38.6,38.6,0,0,1,251.5,124.8Z" transform="translate(-13 -13)"/><path d="M248.4,374.4l-11.2-.8c-30.6-2.8-58.8-13.2-83.9-32.8a138.4,138.4,0,0,1-10.7-9.6,3.5,3.5,0,0,1-1-2.1V291.2a8.1,8.1,0,0,1,.2-.9l3.5,1.4,70.9,27.2c9.3,3.6,18.7,6.6,28.5,7.6,12.3,1.2,24.1-.1,35.5-5.9,24.5-12.4,49.1-24.5,73.7-36.7l2.3-1v45.2a5.1,5.1,0,0,1-1.5,3.9,144.2,144.2,0,0,1-44,29.9A142.3,142.3,0,0,1,258,374.1a19,19,0,0,0-2.5.3Z" transform="translate(-13 -13)"/></g></svg>