<svg xmlns="http://www.w3.org/2000/svg" viewBox="0 0 474 474"><defs><style>.cls-1{stroke:#fff;stroke-width:5px;}.cls-1,.cls-2,.cls-3{stroke-miterlimit:10;}.cls-2,.cls-3{stroke:#000;}.cls-3{stroke-width:4px;}</style></defs><g id="Content"><path class="cls-1" d="M76,158.8H243a6.1,6.1,0,0,1,6,6.1v1H70v-1A6.1,6.1,0,0,1,76,158.8Zm86.6,113.1H70V176H249v81.4l10-.3V164.9a16.2,16.2,0,0,0-16-16.2H76a16.2,16.2,0,0,0-16,16.2v128A16.1,16.1,0,0,0,76,309h61.7v14.8H122a5,5,0,0,0-5,5,5.1,5.1,0,0,0,5,5.1h43.2l-.3-10.1H147.7V309h17.6l-.4-10H76a6.1,6.1,0,0,1-6-6.1V282h92.6m96.4-5" transform="translate(-13 -13)"/><path class="cls-2" d="M427.7,207.8l.5.3a8.3,8.3,0,0,1,6.8,8.5v96.7a8.4,8.4,0,0,1-6.9,8.7l-.4.2H386.1l-.5-.2a8.4,8.4,0,0,1-6.7-8.5c-.1-17.3-.1-34.7-.1-52V217c.1-4.8,2.4-7.8,7-9l.3-.2ZM382.3,265v48.5a4.9,4.9,0,0,0,5.1,5.2h39l1.4-.2c2.4-.6,3.7-2.4,3.7-5.1V216.6a4.8,4.8,0,0,0-5.1-5.2H422c-.9,0-1.4,3.3-1.4,4.3a2.5,2.5,0,0,1-2.8,2.7H396.3a2.5,2.5,0,0,1-2.8-2.7c-.1-1-.5-4.3-1.4-4.3h-4.2c-3.7,0-5.6,1.9-5.6,5.6Z" transform="translate(-13 -13)"/><path class="cls-3" d="M404.7,137.2c3.5-.1,4.5,1,4.5,4.5-.1,21.9-.1,49.5-.1,71.4h5.1V141c0-6.8-2.3-9-9.1-9H308.4c-7.9,0-9.8,1.9-9.8,9.8V253.2h5V141.4c0-3.5,1.3-4.2,4.4-4.2C340.2,137.3,372.5,137.3,404.7,137.2Z" transform="translate(-13 -13)"/><path class="cls-3" d="M379.8,289.4h-16v5.2h16Z" transform="translate(-13 -13)"/><path d="M359,293.3H171.6c-5.7,0-5.7,0-5.7,5.9V403.5c0,6.5,0,6.5,6.6,6.5H352.8c6.2,0,6.2,0,6.2-6.4V304.3c0,2.3-.1-15.6,3.3-15.6s2.4,13.3,2.4,15.6c0,23.2.3,78.6.3,101.8,0,7-2.9,9.9-10,9.9H169.8c-6.8,0-9.8-2.9-9.8-9.7q-.1-73.2,0-146.4c0-7.1,3.1-9.8,11-9.8H355c7,.1,10,3,10,10V310c0,2.3,0,4.8-3,4.8s-2.9-2.7-3-4.9Zm.3-6.3V261.9c0-6.1-.1-6.1-6.3-6.1H171.9c-1.1,0-2.4-.4-3.2.1s-2.9,1.8-2.9,2.7c-.3,9.4-.2,18.8-.2,28.4Z" transform="translate(-13 -13)"/><path d="M316.9,351.8c-8-7.9-15.3-15.2-22.7-22.4a10.5,10.5,0,0,1-2.9-11.2c1.2-3.8,4.1-6.6,8-6.7s6.8.9,8.8,2.8c10.4,9.8,20.5,20,30.4,30.2,4.2,4.3,4.2,10.1,0,14.4q-15,15.3-30.3,30.3a9.9,9.9,0,0,1-14.6-.2,10.2,10.2,0,0,1,.1-14.4C301.1,367,308.8,359.7,316.9,351.8Zm19.2-.2a26.7,26.7,0,0,0-2.8-4.1l-28-28c-2.3-2.3-4.8-3.7-7.4-1s-1.1,5.2,1.2,7.4c7.4,7.4,14.7,14.9,22.3,22.2,2.6,2.6,2.7,4.5,0,7.1-7.6,7.4-15.1,15-22.6,22.5-2.2,2.2-3.3,4.6-.9,7.1s4.9,1.6,7.1-.6l28.6-28.6A31.6,31.6,0,0,0,336.1,351.6Z" transform="translate(-13 -13)"/><path d="M208.6,351.8c7.2,7.2,14.3,14.2,21.2,21.3a16.5,16.5,0,0,1,4.2,7.2c1.1,4.2-.8,7.8-4.4,10.2a10,10,0,0,1-11.2,0,15.5,15.5,0,0,1-2.8-2.4c-9.4-9.4-18.9-18.8-28.3-28.3-5.1-5.2-5.2-10.9-.1-16.1,9.5-9.6,19-19.1,28.6-28.6,5.1-5.1,11.1-5.3,15.5-.8s3.9,10.5-1,15.6l-18.5,18.5Zm20.6-30.3c-1.4-1.5-2.3-3.5-3.6-3.8a5.9,5.9,0,0,0-5,1.1c-10,9.7-19.8,19.5-29.6,29.4-2.2,2.2-2.3,4.7-.1,6.9,9.9,9.9,19.8,19.9,29.8,29.7,1.9,1.9,4.2,2.2,6.2.2s1.9-4.3,0-6.5l-2.3-2.3c-6.9-7-13.8-14-20.8-20.8-2.8-2.7-3-4.6-.1-7.4,7.5-7.1,14.7-14.5,22-21.9A41.8,41.8,0,0,0,229.2,321.5Z" transform="translate(-13 -13)"/><path d="M281.1,321.8c-1.2,4.6-2.8,10.5-4.3,16.4-4.1,15.6-8.2,31.2-12.4,46.8-1.5,5.5-5.7,8.8-10.6,8.6s-9.8-3.7-9.7-8.7,11-46,12.4-51c.1-.7,2.8.4,3.2.8s1.8,1.3,1.7,2.4c-.4,3.1-10.5,41-11.4,44s-.3,5.3,2.8,6.3,5-.9,5.8-4c5.4-20.2,10.9-40.4,16.2-60.7.8-3,.8-5.9-2.9-6.8s-5,1.8-5.8,4.8c-2.5,9.3-5,18.7-7.4,28-.6,2.3-1.5,4.7-4.2,3.6-1-.4-1.8-3.5-1.5-5,2.4-9.9,5.1-19.8,7.9-29.6,1.6-5.8,6.3-8.6,12.1-7.6S281.2,315.3,281.1,321.8Z" transform="translate(-13 -13)"/><path d="M287.9,271.4c0,5.4-4.8,10.3-10.2,10.2a10.1,10.1,0,1,1,10.2-10.2Z" transform="translate(-13 -13)"/><path d="M315.5,271.7a10.1,10.1,0,1,1-20.1.1,10.1,10.1,0,1,1,20.1-.1Z" transform="translate(-13 -13)"/><path d="M342.6,271.7a10.4,10.4,0,0,1-10.2,10.1,10.2,10.2,0,0,1-9.9-10,10.1,10.1,0,0,1,9.7-10.1A10.3,10.3,0,0,1,342.6,271.7Z" transform="translate(-13 -13)"/><path d="M161.5,302.5c-26,.6-90.6,4.8-93.5-3.5s-.8-14.8-2.5-22.5h96Z" transform="translate(-13 -13)"/><path d="M74.4,155l84.1.2c23.8.1,47.5.2,71.3-.9,7.1-.3,14.9-.5,20.5,3.8a9.3,9.3,0,0,1,3.4,4.9,4.9,4.9,0,0,1-2.1,5.3,7.2,7.2,0,0,1-3.9.7q-89.7,1.4-179.4.5a4.2,4.2,0,0,1-1.6-.4,2.7,2.7,0,0,1-.7-1.4,10.3,10.3,0,0,1,8.1-11.6Z" transform="translate(-13 -13)"/></g><g id="Base"><path d="M250,37a213.1,213.1,0,0,1,82.9,409.3A213.1,213.1,0,0,1,167.1,53.7,211.3,211.3,0,0,1,250,37m0-24C119.1,13,13,119.1,13,250S119.1,487,250,487,487,380.9,487,250,380.9,13,250,13Z" transform="translate(-13 -13)"/></g></svg>