<svg xmlns="http://www.w3.org/2000/svg" viewBox="0 0 474 474"><defs><style>.cls-1{fill:none;}.cls-1,.cls-2{stroke:#000;stroke-miterlimit:10;stroke-width:6px;}</style></defs><g id="Base"><path d="M250,37a213.1,213.1,0,0,1,82.9,409.3A213.1,213.1,0,0,1,167.1,53.7,211.3,211.3,0,0,1,250,37m0-24C119.1,13,13,119.1,13,250S119.1,487,250,487,487,380.9,487,250,380.9,13,250,13Z" transform="translate(-13 -13)"/></g><g id="Content"><path d="M170.7,380.4h-23c-6,0-6.7-.6-6.7-6.7V95c0-5.9.5-6.4,6.4-6.4H305.6a10,10,0,0,1,7.8,3.3c14.2,13.9,28.5,27.5,42.6,41.5,2.8,2.7,4.9,6.2,8.2,10.6,3.8,0,9.4.1,15-.1s5.8,1.6,5.8,5.8c-.1,13.1-.1,26.2-.1,39.3V393.5c0,8.2,0,8.2-7.9,8.2H179c-7.6,0-7.8-.2-7.8-8,0-3.9-.1-7.8-.1-11.7A6.6,6.6,0,0,0,170.7,380.4Zm-21.9-7.9h205v-228H311c-5.4,0-6.5-1.2-6.6-6.6V96.4H148.8ZM361.7,151.6V372.5c0,7.5-.4,7.9-7.9,7.9H179v13.4H377.1V151.6Zm-49.4-15h36.3l-36.3-35.2Z" transform="translate(-13 -13)"/><path d="M164.2,165.5v37.4c0,1.4.4,3.1-.2,4.1s-2.3,3-3.7,3.2-2.7-1.7-3.4-3-.3-2.7-.3-4.1V128.3c0-1.1-.3-2.4.2-3.2a23.6,23.6,0,0,1,3.6-4.2c1.2,1.3,2.8,2.5,3.7,4s.1,2.5.1,3.7Z" transform="translate(-13 -13)"/><path d="M154.8,110.7c2.6-2.1,4.1-4.2,5.8-4.4s4.1,2.3,3.4,4.7-2.4,3.2-3.7,4.8Z" transform="translate(-13 -13)"/><path d="M194.5,288.5a25.5,25.5,0,1,1,25.6-25.4A25.4,25.4,0,0,1,194.5,288.5Zm-.1-7.6a18,18,0,1,0-17.7-18.2A17.7,17.7,0,0,0,194.4,280.9Z" transform="translate(-13 -13)"/><path d="M220.1,323.4a25.5,25.5,0,1,1-25.5-25.7A25.5,25.5,0,0,1,220.1,323.4Zm-7.5-.2a18,18,0,1,0-18,18.3A18,18,0,0,0,212.6,323.2Z" transform="translate(-13 -13)"/><path d="M285.5,259.4H241c-2.7,0-5.8,0-5.9-3.6s3.1-4,6-4h89.4c.8,0,1.8-.3,2.3.1a47.5,47.5,0,0,1,4,3.8c-1.4,1.2-2.7,3.4-4.1,3.5-5.1.4-10.3.2-15.4.2Z" transform="translate(-13 -13)"/><path d="M286,312.3h43.5c1.3,0,2.7-.4,3.7.1s3.4,2.2,3.3,3.1-1.6,3.1-3,4-2.7.3-4.1.3h-87c-1.3,0-2.8.4-3.7-.2s-2.5-2.6-3.7-3.9c1.2-1.2,2.4-2.9,3.8-3.3s4.7-.2,7-.2Z" transform="translate(-13 -13)"/><path d="M263.7,332.4H240.4c-2.8,0-5.4-.5-5.4-3.8s2.6-3.8,5.3-3.8h47.3c2.8,0,5.4.9,4.9,4-.3,1.4-3.2,3.3-4.9,3.4C279.6,332.6,271.7,332.4,263.7,332.4Z" transform="translate(-13 -13)"/><path d="M264,264.5h23.3c2.7,0,5.4.5,5.3,3.8s-2.6,3.8-5.3,3.8H240.6c-2.9,0-5.7-.5-5.6-4.1s3-3.5,5.6-3.5Z" transform="translate(-13 -13)"/><path d="M192.3,262.8l7.5-7.2c2-1.7,4.5-2.6,6-.1s.2,4.2-.9,5.5c-2.9,3.4-6.4,6.3-9.6,9.4s-4.5,1.9-6.6-.2-3.5-2.8-4.5-4.7-1.5-4.3-.7-5.6,4-1.5,6,.3A35.8,35.8,0,0,0,192.3,262.8Z" transform="translate(-13 -13)"/><path d="M192.2,323.3c2.9-2.7,5.1-5.4,7.9-7.2s3.7-.4,5.7-.5c-.2,1.9.3,4.4-.7,5.6a64.9,64.9,0,0,1-10,9.6c-1.4,1-4.3.7-6-.1a12.2,12.2,0,0,1-4.9-4.9c-.9-1.5-.6-3.7-.8-5.6a28.2,28.2,0,0,1,5.8.3C190.2,320.8,191,322.1,192.2,323.3Z" transform="translate(-13 -13)"/><rect class="cls-1" x="186.4" y="158.1" width="41.6" height="29.12"/><circle class="cls-1" cx="207.2" cy="171.9" r="1.4"/><circle class="cls-2" cx="205.9" cy="116.4" r="13.9"/><path class="cls-2" d="M246.6,165.5A16.7,16.7,0,0,0,230,148.9H210.5a16.7,16.7,0,0,0-16.6,16.6l-11.1,18a16.7,16.7,0,0,0,16.6,16.7h.1V171.3h41.6v28.9a16.8,16.8,0,0,0,16.6-16.7Z" transform="translate(-13 -13)"/></g></svg>