<svg xmlns="http://www.w3.org/2000/svg" viewBox="0 0 474 474"><defs><style>.cls-1,.cls-2{stroke:#000;stroke-miterlimit:10;}.cls-2{fill:none;stroke-width:6px;}</style></defs><g id="Base"><path d="M250,37a213.1,213.1,0,0,1,82.9,409.3A213.1,213.1,0,0,1,167.1,53.7,211.3,211.3,0,0,1,250,37m0-24C119.1,13,13,119.1,13,250S119.1,487,250,487,487,380.9,487,250,380.9,13,250,13Z" transform="translate(-13 -13)"/></g><g id="Content"><circle class="cls-1" cx="232.3" cy="206.6" r="29.4"/><rect class="cls-1" x="197.6" y="236" width="72.1" height="109.51" rx="12"/><rect class="cls-1" x="298.8" y="184.9" width="16" height="106.84" rx="3" transform="translate(245.4 -160.1) rotate(45)"/><rect class="cls-1" x="192" y="264.1" width="16" height="106.84" rx="3" transform="translate(134.9 -67.1) rotate(24.2)"/><rect class="cls-1" x="197.1" y="301" width="24.6" height="138.01" rx="3"/><rect class="cls-1" x="246.2" y="252" width="24.6" height="186.06" rx="3"/><line class="cls-2" x1="152.2" y1="415" x2="186.9" y2="415"/><line class="cls-2" x1="281.8" y1="416.3" x2="316.5" y2="416.3"/><line class="cls-2" x1="68.1" y1="274.7" x2="169.6" y2="274.7"/><line class="cls-2" x1="279.1" y1="274.7" x2="426" y2="274.7"/><line class="cls-2" x1="68.1" y1="154.5" x2="426" y2="154.5"/><line class="cls-2" x1="81.4" y1="183.9" x2="116.2" y2="183.9"/><line class="cls-2" x1="81.4" y1="216" x2="116.2" y2="216"/><line class="cls-2" x1="81.4" y1="248" x2="116.2" y2="248"/><line class="cls-2" x1="126.8" y1="183.9" x2="161.6" y2="183.9"/><line class="cls-2" x1="126.8" y1="216" x2="161.6" y2="216"/><line class="cls-2" x1="126.8" y1="248" x2="161.6" y2="248"/><line class="cls-2" x1="332.5" y1="183.9" x2="367.2" y2="183.9"/><line class="cls-2" x1="332.5" y1="216" x2="367.2" y2="216"/><line class="cls-2" x1="332.5" y1="248" x2="367.2" y2="248"/><line class="cls-2" x1="377.9" y1="183.9" x2="412.6" y2="183.9"/><line class="cls-2" x1="377.9" y1="216" x2="412.6" y2="216"/><line class="cls-2" x1="377.9" y1="248" x2="412.6" y2="248"/><line class="cls-2" x1="161.6" y1="63.7" x2="196.3" y2="63.7"/><line class="cls-2" x1="161.6" y1="95.8" x2="196.3" y2="95.8"/><line class="cls-2" x1="161.6" y1="127.8" x2="196.3" y2="127.8"/><line class="cls-2" x1="207" y1="63.7" x2="241.7" y2="63.7"/><line class="cls-2" x1="207" y1="95.8" x2="241.7" y2="95.8"/><line class="cls-2" x1="207" y1="127.8" x2="241.7" y2="127.8"/><line class="cls-2" x1="255" y1="63.7" x2="289.8" y2="63.7"/><line class="cls-2" x1="255" y1="95.8" x2="289.8" y2="95.8"/><line class="cls-2" x1="255" y1="127.8" x2="289.8" y2="127.8"/><line class="cls-2" x1="300.4" y1="63.7" x2="335.2" y2="63.7"/><line class="cls-2" x1="300.4" y1="95.8" x2="335.2" y2="95.8"/><line class="cls-2" x1="300.4" y1="127.8" x2="335.2" y2="127.8"/><line class="cls-2" x1="300.4" y1="314.8" x2="335.2" y2="314.8"/><line class="cls-2" x1="300.4" y1="346.9" x2="335.2" y2="346.9"/><line class="cls-2" x1="300.4" y1="378.9" x2="335.2" y2="378.9"/><line class="cls-2" x1="345.9" y1="314.8" x2="380.6" y2="314.8"/><line class="cls-2" x1="345.9" y1="346.9" x2="380.6" y2="346.9"/><line class="cls-2" x1="345.9" y1="378.9" x2="380.6" y2="378.9"/><line class="cls-2" x1="121.5" y1="304.1" x2="121.5" y2="397.6"/><line class="cls-2" x1="84.1" y1="304.1" x2="84.1" y2="346.9"/><line class="cls-2" x1="81.4" y1="127.8" x2="142.9" y2="127.8"/><line class="cls-2" x1="108.1" y1="95.8" x2="142.9" y2="95.8"/><line class="cls-2" x1="356.5" y1="98.5" x2="385.9" y2="98.5"/><line class="cls-2" x1="356.5" y1="127.8" x2="407.3" y2="127.8"/><line class="cls-2" x1="268.4" y1="181.3" x2="297.8" y2="181.3"/><path class="cls-2" d="M155.9,202.3c0,63.5-26.3,114.8-58.8,114.8" transform="translate(-13 -13)"/><path class="cls-2" d="M284.1,108.8c0,45.8,57.3,82.8,128.2,82.8" transform="translate(-13 -13)"/><path class="cls-2" d="M195.9,76.7c0,35.5-29.8,64.1-66.7,64.1" transform="translate(-13 -13)"/><path class="cls-2" d="M326.8,327.8c0,34,21.5,61.4,48.1,61.4" transform="translate(-13 -13)"/><path class="cls-2" d="M420.3,229c0,54.6-20.3,98.8-45.4,98.8" transform="translate(-13 -13)"/><path class="cls-2" d="M244,76.7c0,14.8,62.1,26.7,138.9,26.7" transform="translate(-13 -13)"/><path class="cls-2" d="M254.7,108.8c0,45.8,17.9,82.8,40.1,82.8" transform="translate(-13 -13)"/><path class="cls-2" d="M382.9,399.9c0,13.3-25.1,24.1-56.1,24.1" transform="translate(-13 -13)"/><path class="cls-2" d="M140.1,375.3c23.6-.8,43.7,26,44.9,59.9" transform="translate(-13 -13)"/></g></svg>