<svg xmlns="http://www.w3.org/2000/svg" viewBox="0 0 474 474"><g id="Content"><path d="M231.2,336.5a38.9,38.9,0,0,0,4.6,2.9,50.1,50.1,0,0,0,17.8,5.6,179.7,179.7,0,0,0,25.4,1.8,101.4,101.4,0,0,0,31.9-5.6,119,119,0,0,0,30-15.1,53,53,0,0,1,10.7-5.9c9.9-3.9,17.5,1.6,20.6,8.3a16.1,16.1,0,0,1-2,17.8,164.9,164.9,0,0,1-22.6,23.9,89.4,89.4,0,0,1-44,20.7c-6.3,1.1-12.6,2-18.9,2.8l-26.9,3.8a131.2,131.2,0,0,1-28,.8,89.4,89.4,0,0,1-26-6.5c-9.7-3.9-18.8-8.9-28-13.6s-15.6-8-23.5-11.6-18.5-6.4-28.1-8.6l-11.9-2.6c-.8-.1-1-.4-.9-1V287.7c0-1.3,0-2.6-.1-4s.2-1,1-1.2c6.4-1.4,12.8-3,19.2-4.3a178.8,178.8,0,0,1,35-3.2c11.4.1,22.8.8,33.7,4.3,7.3,2.4,14.4,5,21.6,7.7,9.3,3.5,18.5,7.2,28.3,9.5a100.7,100.7,0,0,0,18.1,2.3c7.2.4,14.3.6,21.4,1.1a65.1,65.1,0,0,1,14.5,2.7c7.2,2.3,11.9,7.1,13.6,14.2a11.2,11.2,0,0,1-2.8,10.7,28,28,0,0,1-13.1,8.1c-7,2.1-14.2,2.3-21.4,1.7-9.9-.9-19.8-1.8-29.6-2.5a72.2,72.2,0,0,0-19.1,1.5Z" transform="translate(-13 -13)"/><path d="M62.6,319.9c-5.6-21.9-9-29.3-9-44,0-3.3,1.8-5,5.2-5h42.4c3.4,0,5.1,1.7,5.1,4.9v88.1c0,3.1-1.8,4.8-5.1,4.8H91c-3.7,0-5.4-1.6-5.4-5.2C73,347,71,336,62.6,319.9Z" transform="translate(-13 -13)"/><path d="M384.5,231.4l-45.1-44.6c-6.5-6.3-8.4-14-5.8-22.3s8.1-13.1,15.8-13.2c6-.1,13.5,1.7,17.6,5.5,20.7,19.5,40.7,39.8,60.5,60.1,8.3,8.5,8.3,20,0,28.5q-29.8,30.6-60.4,60.3c-8.8,8.7-20.8,8.1-29-.4a20.1,20.1,0,0,1,.3-28.5C353.1,261.7,368.4,247.2,384.5,231.4Zm38.1-.4c-2-3-3.3-5.9-5.5-8.1-18.5-18.7-37.2-37.2-55.7-55.8-4.5-4.5-9.5-7.4-14.7-1.9s-2.2,10.2,2.3,14.7c14.8,14.7,29.4,29.7,44.4,44.2,5.3,5.1,5.4,8.9,0,14.1-15.2,14.7-29.9,29.8-44.9,44.7-4.4,4.4-6.5,9.2-1.9,14.2s9.8,3.1,14.2-1.2c18.9-19,38-37.9,56.8-57C419.6,236.9,420.7,234.1,422.6,231Z" transform="translate(-13 -13)"/><path d="M169,231.3c14.4,14.5,28.6,28.2,42.2,42.5,3.7,4,7.1,9.1,8.4,14.3,2.1,8.3-1.7,15.5-8.9,20.2s-14.8,4.7-22.1.1a35.8,35.8,0,0,1-5.6-4.7l-56.3-56.3c-10.2-10.4-10.4-21.8-.2-32.2,18.8-19.1,37.8-38,56.9-56.9,10.1-10,22.1-10.4,30.8-1.5s7.8,20.9-2.1,30.9c-12.2,12.4-24.5,24.6-36.7,36.9C173.3,226.6,171.4,228.8,169,231.3Zm40.9-60.1c-2.6-3.1-4.4-7-7-7.7s-7.9.1-10.1,2.2C173,185,153.5,204.6,134,224.2c-4.3,4.4-4.5,9.3-.1,13.7,19.6,19.8,39.4,39.6,59.2,59.2,3.8,3.8,8.4,4.2,12.4.4s3.7-8.7,0-13c-1.4-1.6-3-3.1-4.6-4.6-13.8-13.8-27.4-27.8-41.5-41.3-5.5-5.3-5.9-9.2-.1-14.7,14.8-14.3,29.3-29,43.7-43.7C205.4,177.9,207.2,174.9,209.9,171.2Z" transform="translate(-13 -13)"/><path d="M313.2,171.7c-2.4,9.1-5.4,20.8-8.5,32.6q-12.3,46.5-24.7,93.2c-2.9,10.8-11.3,17.4-21,17.1s-19.5-7.5-19.4-17.3,21.9-91.6,24.6-101.6c.4-1.3,5.7.9,6.6,1.6s3.5,2.7,3.2,4.9c-.8,6.1-20.8,81.6-22.6,87.5s-.6,10.6,5.5,12.4,10.1-1.6,11.7-7.8l32.2-120.7c1.6-6.1,1.6-11.9-5.9-13.6s-10,3.5-11.5,9.5c-5,18.6-10,37.1-14.8,55.7-1.2,4.6-2.9,9.3-8.3,7.1-2-.8-3.6-6.9-2.9-9.9,4.8-19.7,10.1-39.3,15.6-58.8,3.3-11.6,12.6-17.2,24.2-15.2C306.6,150,313.5,158.7,313.2,171.7Z" transform="translate(-13 -13)"/></g><g id="Base"><path d="M250,37a213.1,213.1,0,0,1,82.9,409.3A213.1,213.1,0,0,1,167.1,53.7,211.3,211.3,0,0,1,250,37m0-24C119.1,13,13,119.1,13,250S119.1,487,250,487,487,380.9,487,250,380.9,13,250,13Z" transform="translate(-13 -13)"/></g></svg>