<svg xmlns="http://www.w3.org/2000/svg" viewBox="0 0 474 474"><defs><style>.cls-1,.cls-2{stroke:#000;stroke-miterlimit:10;stroke-width:6px;}.cls-2{fill:none;}</style></defs><g id="Base"><path d="M250,37a213.1,213.1,0,0,1,82.9,409.3A213.1,213.1,0,0,1,167.1,53.7,211.3,211.3,0,0,1,250,37m0-24C119.1,13,13,119.1,13,250S119.1,487,250,487,487,380.9,487,250,380.9,13,250,13Z" transform="translate(-13 -13)"/></g><g id="Content"><circle class="cls-1" cx="166.1" cy="182.4" r="56.6"/><path class="cls-1" d="M241.6,257.9c-22.7.9-42.3.7-59.1.3l29.3,20.2-20.6,14.3,13,65.9-24.9,24.5-23.8-26.3,8.3-63.3-17-15.1L176.4,258C82.2,255.2,79,244,84,353l47,50,146.4-2V293.7A36,36,0,0,0,241.6,257.9Z" transform="translate(-13 -13)"/><path class="cls-1" d="M179.3,256l-2.9,2,6.1.2Z" transform="translate(-13 -13)"/><path class="cls-2" d="M301.2,111.9h-5.9a35.9,35.9,0,0,0-35.8,35.8V269.9a35.9,35.9,0,0,0,35.8,35.7h86.4a35.9,35.9,0,0,0,35.8-35.7V147.7a35.9,35.9,0,0,0-35.8-35.8h-6" transform="translate(-13 -13)"/><rect class="cls-2" x="315.1" y="87" width="23.8" height="2.98" rx="0.5"/><rect class="cls-2" x="306.1" y="98.9" width="41.7" height="2.98" rx="0.5"/><line class="cls-2" x1="273.3" y1="131.7" x2="377.6" y2="131.7"/><line class="cls-2" x1="273.4" y1="156.9" x2="377.7" y2="156.9"/><line class="cls-2" x1="273.3" y1="182.4" x2="321" y2="182.4"/><line class="cls-2" x1="285.3" y1="250.9" x2="285.3" y2="271.8"/><line class="cls-2" x1="312.1" y1="265.8" x2="312.1" y2="271.8"/><line class="cls-2" x1="338.9" y1="245" x2="338.9" y2="271.8"/><line class="cls-2" x1="365.7" y1="224.1" x2="365.7" y2="271.8"/><polyline class="cls-2" points="368.7 188.3 310.3 241 274.2 215.5"/></g></svg>