<svg xmlns="http://www.w3.org/2000/svg" viewBox="0 0 474 474"><g id="Base"><path d="M250,37a213.1,213.1,0,0,1,82.9,409.3A213.1,213.1,0,0,1,167.1,53.7,211.3,211.3,0,0,1,250,37m0-24C119.1,13,13,119.1,13,250S119.1,487,250,487,487,380.9,487,250,380.9,13,250,13Z" transform="translate(-13 -13)"/></g><g id="Content"><path d="M170.7,380.4h-23c-6,0-6.7-.6-6.7-6.7V95c0-5.9.5-6.4,6.4-6.4H305.6a10,10,0,0,1,7.8,3.3c14.2,13.9,28.5,27.5,42.6,41.5,2.8,2.7,4.9,6.2,8.2,10.6,3.8,0,9.4.1,15-.1s5.8,1.6,5.8,5.8c-.1,13.1-.1,26.2-.1,39.3V393.5c0,8.2,0,8.2-7.9,8.2H179c-7.6,0-7.8-.2-7.8-8,0-3.9-.1-7.8-.1-11.7A6.6,6.6,0,0,0,170.7,380.4Zm-21.9-7.9h205v-228H311c-5.4,0-6.5-1.2-6.6-6.6V96.4H148.8ZM361.7,151.6V372.5c0,7.5-.4,7.9-7.9,7.9H179v13.4H377.1V151.6Zm-49.4-15h36.3l-36.3-35.2Z" transform="translate(-13 -13)"/><path d="M194.5,302.5a25.5,25.5,0,1,1,25.6-25.4A25.4,25.4,0,0,1,194.5,302.5Zm-.1-7.6a18,18,0,1,0-17.7-18.2A17.7,17.7,0,0,0,194.4,294.9Z" transform="translate(-13 -13)"/><path d="M220.1,337.4a25.5,25.5,0,1,1-25.5-25.7A25.5,25.5,0,0,1,220.1,337.4Zm-7.5-.2a18,18,0,1,0-18,18.3A18,18,0,0,0,212.6,337.2Z" transform="translate(-13 -13)"/><path d="M285.5,273.4H241c-2.7,0-5.8,0-5.9-3.6s3.1-4,6-4h89.4c.8,0,1.8-.3,2.3.1a47.5,47.5,0,0,1,4,3.8c-1.4,1.2-2.7,3.4-4.1,3.5-5.1.4-10.3.2-15.4.2Z" transform="translate(-13 -13)"/><path d="M286,326.3h43.5c1.3,0,2.7-.4,3.7.1s3.4,2.2,3.3,3.1-1.6,3.1-3,4-2.7.3-4.1.3h-87c-1.3,0-2.8.4-3.7-.2s-2.5-2.6-3.7-3.9c1.2-1.2,2.4-2.9,3.8-3.3s4.7-.2,7-.2Z" transform="translate(-13 -13)"/><path d="M164.2,165.5v37.4c0,1.4.4,3.1-.2,4.1s-2.3,3-3.7,3.2-2.7-1.7-3.4-3-.3-2.7-.3-4.1V128.3c0-1.1-.3-2.4.2-3.2a23.6,23.6,0,0,1,3.6-4.2c1.2,1.3,2.8,2.5,3.7,4s.1,2.5.1,3.7Z" transform="translate(-13 -13)"/><path d="M263.7,346.4H240.4c-2.8,0-5.4-.5-5.4-3.8s2.6-3.8,5.3-3.8h47.3c2.8,0,5.4.9,4.9,4-.3,1.4-3.2,3.3-4.9,3.4C279.6,346.6,271.7,346.4,263.7,346.4Z" transform="translate(-13 -13)"/><path d="M264,278.5h23.3c2.7,0,5.4.5,5.3,3.8s-2.6,3.8-5.3,3.8H240.6c-2.9,0-5.7-.5-5.6-4.1s3-3.5,5.6-3.5Z" transform="translate(-13 -13)"/><path d="M154.8,110.7c2.6-2.1,4.1-4.2,5.8-4.4s4.1,2.3,3.4,4.7-2.4,3.2-3.7,4.8Z" transform="translate(-13 -13)"/><path d="M192.3,276.8l7.5-7.2c2-1.7,4.5-2.6,6-.1s.2,4.2-.9,5.5c-2.9,3.4-6.4,6.3-9.6,9.4s-4.5,1.9-6.6-.2-3.5-2.8-4.5-4.7-1.5-4.3-.7-5.6,4-1.5,6,.3A35.8,35.8,0,0,0,192.3,276.8Z" transform="translate(-13 -13)"/><path d="M192.2,337.3c2.9-2.7,5.1-5.4,7.9-7.2s3.7-.4,5.7-.5c-.2,1.9.3,4.4-.7,5.6a64.9,64.9,0,0,1-10,9.6c-1.4,1-4.3.7-6-.1a12.2,12.2,0,0,1-4.9-4.9c-.9-1.5-.6-3.7-.8-5.6a28.2,28.2,0,0,1,5.8.3C190.2,334.8,191,336.1,192.2,337.3Z" transform="translate(-13 -13)"/><path d="M220.4,217.6A25.5,25.5,0,1,1,194.9,192,25.6,25.6,0,0,1,220.4,217.6Zm-7.5-.1a18,18,0,1,0-18,18.2A18.2,18.2,0,0,0,212.9,217.5Z" transform="translate(-13 -13)"/><path d="M286.3,206.6h43.5c1.3,0,2.7-.3,3.7.2s3.4,2.2,3.3,3.1-1.7,3.1-3,4-2.7.3-4.1.3h-87c-1.3,0-2.8.4-3.7-.2s-2.5-2.6-3.8-4c1.3-1.1,2.4-2.8,3.9-3.2s4.6-.2,7-.2Z" transform="translate(-13 -13)"/><path d="M264,226.6H240.6c-2.7.1-5.3-.4-5.3-3.7s2.5-3.8,5.3-3.8h47.2c2.9,0,5.5.9,5,4-.3,1.4-3.2,3.3-5,3.4C279.9,226.8,271.9,226.6,264,226.6Z" transform="translate(-13 -13)"/><path d="M192.5,217.5c2.8-2.6,5.1-5.3,7.9-7.2,1.3-.9,3.7-.3,5.6-.5-.2,1.9.4,4.4-.6,5.6a61.8,61.8,0,0,1-10.1,9.7c-1.3.9-4.3.7-6-.1a12.6,12.6,0,0,1-4.8-4.9c-.9-1.5-.6-3.7-.8-5.7,1.9.1,3.9-.1,5.7.4S191.2,216.4,192.5,217.5Z" transform="translate(-13 -13)"/><path d="M220.6,156.6a25.5,25.5,0,1,1-25.5-25.7A25.5,25.5,0,0,1,220.6,156.6Zm-7.6-.1a18,18,0,1,0-18,18.2A18,18,0,0,0,213,156.5Z" transform="translate(-13 -13)"/><path d="M286.5,145.6H330c1.2,0,2.7-.4,3.7.2s3.3,2.1,3.2,3.1-1.6,3.1-2.9,3.9-2.8.3-4.2.3h-87c-1.2,0-2.8.4-3.6-.1s-2.6-2.7-3.8-4c1.3-1.1,2.4-2.9,3.9-3.2s4.6-.2,6.9-.2Z" transform="translate(-13 -13)"/><path d="M264.2,165.6H240.8c-2.7,0-5.3-.4-5.3-3.8s2.5-3.8,5.3-3.8H288c2.8,0,5.5,1,4.9,4s-3.1,3.3-4.9,3.4C280.1,165.8,272.1,165.6,264.2,165.6Z" transform="translate(-13 -13)"/><path d="M192.6,156.5c2.9-2.7,5.1-5.3,7.9-7.2s3.8-.4,5.7-.5c-.2,1.9.3,4.4-.7,5.6a64.9,64.9,0,0,1-10,9.6c-1.3,1-4.3.7-6-.1a11.9,11.9,0,0,1-4.9-4.8c-.8-1.6-.5-3.8-.8-5.7,2,.1,4-.1,5.8.4S191.4,155.3,192.6,156.5Z" transform="translate(-13 -13)"/></g></svg>