<svg xmlns="http://www.w3.org/2000/svg" viewBox="0 0 474 474"><defs><style>.cls-1,.cls-2{stroke:#000;}.cls-1,.cls-2,.cls-3,.cls-4{stroke-miterlimit:10;}.cls-1,.cls-4{stroke-width:6px;}.cls-2,.cls-4{fill:none;}.cls-2{stroke-width:8px;}.cls-3{fill:#fff;stroke-width:5px;}.cls-3,.cls-4{stroke:#fff;}</style></defs><g id="Base"><path d="M250,37a213.1,213.1,0,0,1,82.9,409.3A213.1,213.1,0,0,1,167.1,53.7,211.3,211.3,0,0,1,250,37m0-24C119.1,13,13,119.1,13,250S119.1,487,250,487,487,380.9,487,250,380.9,13,250,13Z" transform="translate(-13 -13)"/></g><g id="Content"><circle class="cls-1" cx="177.9" cy="190.9" r="73.5"/><rect class="cls-1" x="73.4" y="165.5" width="22.6" height="53.68" rx="4"/><rect class="cls-1" x="257" y="165.5" width="22.6" height="53.68" rx="4"/><path class="cls-2" d="M100.5,175.6c0-39,40.5-70.6,90.4-70.6s90.4,31.6,90.4,70.6" transform="translate(-13 -13)"/><rect class="cls-3" x="158.1" y="216.3" width="36.7" height="14.13" rx="2.5"/><path class="cls-4" d="M207.8,235c4,6,28.3-3,54.4-20.1" transform="translate(-13 -13)"/><circle class="cls-2" cx="355.8" cy="210.3" r="56.1"/><line class="cls-2" x1="298.2" y1="380" x2="336.8" y2="271.4"/><path class="cls-1" d="M237.3,260.6a73.4,73.4,0,0,1-92.1-.1c-41.3,10.8-70.1,35.8-70.1,64.9,0,39,51.8,70.6,115.8,70.6s115.8-31.6,115.8-70.6C306.7,296.4,278.2,271.5,237.3,260.6Z" transform="translate(-13 -13)"/></g></svg>