<svg xmlns="http://www.w3.org/2000/svg" viewBox="0 0 474 474"><defs><style>.cls-1{fill:none;stroke:#1d1d1b;stroke-linecap:round;stroke-miterlimit:10;}.cls-2{fill:#1d1d1b;}</style></defs><g id="Base"><path d="M250,37a213.1,213.1,0,0,1,82.9,409.3A213.1,213.1,0,0,1,167.1,53.7,211.3,211.3,0,0,1,250,37m0-24C119.1,13,13,119.1,13,250S119.1,487,250,487,487,380.9,487,250,380.9,13,250,13Z" transform="translate(-13 -13)"/></g><g id="Content"><path d="M316.5,161.9c-10.3,0-15,7.1-15,15.1v80.5a6,6,0,0,1-6,6,6.1,6.1,0,0,1-6.1-6V146.8c.1-7.2-4.4-14.8-14.9-14.8s-15,8.1-15,14.9V251.6a5.9,5.9,0,0,1-5.9,6,6.1,6.1,0,0,1-6.1-6h0V135c0-6.1-4.7-15-14.9-15s-15,8.9-15,15V257.5a6,6,0,0,1-12,0V159.2c0-11-8.9-15-14.9-15s-15,3.9-15,14.3V313.1c-.2.2-.5.2-.8.3v-.3L145,277.3c-7.8-8.4-20.9-8.4-29.3,0s-8.4,20.9,0,29.3l.7.8a5.3,5.3,0,0,0,.8,1.7l50.9,65.4,16.4,21.2v-.2l2.1,2.7h0a52.1,52.1,0,0,0,39.2,20.6l2.4.2h49.2c26.5,0,53.8-20.1,53.8-53.8V177.3C331.2,169.1,326.8,161.9,316.5,161.9ZM288.3,339.3l-34.8,34.8-34.8-34.8a22.9,22.9,0,0,1-7.1-16.6,23.2,23.2,0,0,1,41.9-13.9,23,23,0,0,1,18.6-9.4,23.3,23.3,0,0,1,16.2,39.9Z" transform="translate(-13 -13)"/><path d="M253.8,448.1l-51.5-8c-3.3-1.1-1.1-19.8,2.6-19.8,25.2,0,24.9,3.7,50.1,3.7,8.3,0,40.1-3.7,48.4-3.7,3.6,0,9.6,18.7,5.6,19.8" transform="translate(-13 -13)"/><path class="cls-1" d="M427.8,172.2" transform="translate(-13 -13)"/><polygon class="cls-2" points="417.3 158.7 345.7 182.6 341.9 174.7 414.9 139 417.3 158.7"/><polygon class="cls-2" points="58 162.3 129.6 186.2 133.4 178.3 60.4 142.7 58 162.3"/><polygon class="cls-2" points="417.8 317.3 346.2 293.4 342.4 301.3 415.4 337 417.8 317.3"/><polygon class="cls-2" points="436 225 356 232 356 241 435.5 251.7 436 225"/><polygon class="cls-2" points="39.8 224.4 119.8 231.4 119.8 240.4 40.3 251.1 39.8 224.4"/><polygon class="cls-2" points="60.5 318.2 97.1 311.3 100.9 319.2 62.9 337.8 60.5 318.2"/></g></svg>